solid JSxCAD
facet normal 0.9541392910110492 -0.2993630126601017 0
outer loop
vertex 9.7953 -2.01299 0
vertex 9.7953 -2.01299 10
vertex 9.18958 -3.94356 0
endloop
endfacet
facet normal 0.9541392910110492 -0.2993630126601017 0
outer loop
vertex 9.18958 -3.94356 0
vertex 9.7953 -2.01299 10
vertex 9.18958 -3.94356 10
endloop
endfacet
facet normal 0.8743448768106896 -0.48530509619712425 0
outer loop
vertex 9.18958 -3.94356 0
vertex 9.18958 -3.94356 10
vertex 8.20763 -5.71268 0
endloop
endfacet
facet normal 0.8743448768106896 -0.48530509619712425 0
outer loop
vertex 8.20763 -5.71268 0
vertex 9.18958 -3.94356 10
vertex 8.20763 -5.71268 10
endloop
endfacet
facet normal 0.758760295269651 -0.6513699519645589 0
outer loop
vertex 8.20763 -5.71268 0
vertex 8.20763 -5.71268 10
vertex 6.88967 -7.24793 0
endloop
endfacet
facet normal 0.758760295269651 -0.6513699519645589 0
outer loop
vertex 6.88967 -7.24793 0
vertex 8.20763 -5.71268 10
vertex 6.88967 -7.24793 10
endloop
endfacet
facet normal 0.6121043108819778 -0.7907770309004295 0
outer loop
vertex 6.88967 -7.24793 0
vertex 6.88967 -7.24793 10
vertex 5.28964 -8.48644 0
endloop
endfacet
facet normal 0.6121043108819778 -0.7907770309004295 0
outer loop
vertex 5.28964 -8.48644 0
vertex 6.88967 -7.24793 10
vertex 5.28964 -8.48644 10
endloop
endfacet
facet normal 0.44039417700156197 -0.8978045270898988 0
outer loop
vertex 5.28964 -8.48644 0
vertex 5.28964 -8.48644 10
vertex 3.47305 -9.37752 0
endloop
endfacet
facet normal 0.44039417700156197 -0.8978045270898988 0
outer loop
vertex 3.47305 -9.37752 0
vertex 5.28964 -8.48644 10
vertex 3.47305 -9.37752 10
endloop
endfacet
facet normal 0.2506522121717591 -0.9680772017424041 0
outer loop
vertex 3.47305 -9.37752 0
vertex 3.47305 -9.37752 10
vertex 1.51428 -9.88468 0
endloop
endfacet
facet normal 0.2506522121717591 -0.9680772017424041 0
outer loop
vertex 1.51428 -9.88468 0
vertex 3.47305 -9.37752 10
vertex 1.51428 -9.88468 10
endloop
endfacet
facet normal 0.050653183663287464 -0.998716303554104 0
outer loop
vertex 1.51428 -9.88468 0
vertex 1.51428 -9.88468 10
vertex -0.50649 -9.98717 0
endloop
endfacet
facet normal 0.050653183663287464 -0.998716303554104 0
outer loop
vertex -0.50649 -9.98717 0
vertex 1.51428 -9.88468 10
vertex -0.50649 -9.98717 10
endloop
endfacet
facet normal -0.15143026040914673 -0.9884679439579303 0
outer loop
vertex -0.50649 -9.98717 0
vertex -0.50649 -9.98717 10
vertex -2.50653 -9.68077 0
endloop
endfacet
facet normal -0.15143026040914673 -0.9884679439579303 0
outer loop
vertex -2.50653 -9.68077 0
vertex -0.50649 -9.98717 10
vertex -2.50653 -9.68077 10
endloop
endfacet
facet normal -0.3473037319910581 -0.9377526954080609 0
outer loop
vertex -2.50653 -9.68077 0
vertex -2.50653 -9.68077 10
vertex -4.40394 -8.97805 0
endloop
endfacet
facet normal -0.3473037319910581 -0.9377526954080609 0
outer loop
vertex -4.40394 -8.97805 0
vertex -2.50653 -9.68077 10
vertex -4.40394 -8.97805 10
endloop
endfacet
facet normal -0.528964337870481 -0.8486440533352271 0
outer loop
vertex -4.40394 -8.97805 0
vertex -4.40394 -8.97805 10
vertex -6.12106 -7.90776 0
endloop
endfacet
facet normal -0.528964337870481 -0.8486440533352271 0
outer loop
vertex -6.12106 -7.90776 0
vertex -4.40394 -8.97805 10
vertex -6.12106 -7.90776 10
endloop
endfacet
facet normal -0.6889692012126757 -0.7247906178893099 0
outer loop
vertex -6.12106 -7.90776 0
vertex -6.12106 -7.90776 10
vertex -7.58758 -6.51372 0
endloop
endfacet
facet normal -0.6889692012126757 -0.7247906178893099 0
outer loop
vertex -7.58758 -6.51372 0
vertex -6.12106 -7.90776 10
vertex -7.58758 -6.51372 10
endloop
endfacet
facet normal -0.8207614283605478 -0.5712711070197348 0
outer loop
vertex -7.58758 -6.51372 0
vertex -7.58758 -6.51372 10
vertex -8.74347 -4.85302 0
endloop
endfacet
facet normal -0.8207614283605478 -0.5712711070197348 0
outer loop
vertex -8.74347 -4.85302 0
vertex -7.58758 -6.51372 10
vertex -8.74347 -4.85302 10
endloop
endfacet
facet normal -0.9189590816663482 -0.3943528955427383 0
outer loop
vertex -8.74347 -4.85302 0
vertex -8.74347 -4.85302 10
vertex -9.54139 -2.99363 0
endloop
endfacet
facet normal -0.9189590816663482 -0.3943528955427383 0
outer loop
vertex -9.54139 -2.99363 0
vertex -8.74347 -4.85302 10
vertex -9.54139 -2.99363 10
endloop
endfacet
facet normal -0.9795300463918056 -0.20129800847417026 0
outer loop
vertex -9.54139 -2.99363 0
vertex -9.54139 -2.99363 10
vertex -9.94869 -1.01168 0
endloop
endfacet
facet normal -0.9795300463918056 -0.20129800847417026 0
outer loop
vertex -9.94869 -1.01168 0
vertex -9.54139 -2.99363 10
vertex -9.94869 -1.01168 10
endloop
endfacet
facet normal -1 0 0
outer loop
vertex -9.94869 -1.01168 0
vertex -9.94869 -1.01168 10
vertex -9.94869 1.01168 0
endloop
endfacet
facet normal -1 0 0
outer loop
vertex -9.94869 1.01168 0
vertex -9.94869 -1.01168 10
vertex -9.94869 1.01168 10
endloop
endfacet
facet normal -0.9795300463918056 0.20129800847417026 0
outer loop
vertex -9.94869 1.01168 0
vertex -9.94869 1.01168 10
vertex -9.54139 2.99363 0
endloop
endfacet
facet normal -0.9795300463918056 0.20129800847417026 0
outer loop
vertex -9.54139 2.99363 0
vertex -9.94869 1.01168 10
vertex -9.54139 2.99363 10
endloop
endfacet
facet normal -0.9189590816663482 0.3943528955427383 0
outer loop
vertex -9.54139 2.99363 0
vertex -9.54139 2.99363 10
vertex -8.74347 4.85302 0
endloop
endfacet
facet normal -0.9189590816663482 0.3943528955427383 0
outer loop
vertex -8.74347 4.85302 0
vertex -9.54139 2.99363 10
vertex -8.74347 4.85302 10
endloop
endfacet
facet normal -0.8207614283605478 0.5712711070197348 0
outer loop
vertex -8.74347 4.85302 0
vertex -8.74347 4.85302 10
vertex -7.58758 6.51372 0
endloop
endfacet
facet normal -0.8207614283605478 0.5712711070197348 0
outer loop
vertex -7.58758 6.51372 0
vertex -8.74347 4.85302 10
vertex -7.58758 6.51372 10
endloop
endfacet
facet normal -0.6889692012126757 0.7247906178893099 0
outer loop
vertex -7.58758 6.51372 0
vertex -7.58758 6.51372 10
vertex -6.12106 7.90776 0
endloop
endfacet
facet normal -0.6889692012126757 0.7247906178893099 0
outer loop
vertex -6.12106 7.90776 0
vertex -7.58758 6.51372 10
vertex -6.12106 7.90776 10
endloop
endfacet
facet normal -0.528964337870481 0.8486440533352271 0
outer loop
vertex -6.12106 7.90776 0
vertex -6.12106 7.90776 10
vertex -4.40394 8.97805 0
endloop
endfacet
facet normal -0.528964337870481 0.8486440533352271 0
outer loop
vertex -4.40394 8.97805 0
vertex -6.12106 7.90776 10
vertex -4.40394 8.97805 10
endloop
endfacet
facet normal -0.3473037319910581 0.9377526954080609 0
outer loop
vertex -4.40394 8.97805 0
vertex -4.40394 8.97805 10
vertex -2.50653 9.68077 0
endloop
endfacet
facet normal -0.3473037319910581 0.9377526954080609 0
outer loop
vertex -2.50653 9.68077 0
vertex -4.40394 8.97805 10
vertex -2.50653 9.68077 10
endloop
endfacet
facet normal -0.15143026040914673 0.9884679439579303 0
outer loop
vertex -2.50653 9.68077 0
vertex -2.50653 9.68077 10
vertex -0.50649 9.98717 0
endloop
endfacet
facet normal -0.15143026040914673 0.9884679439579303 0
outer loop
vertex -0.50649 9.98717 0
vertex -2.50653 9.68077 10
vertex -0.50649 9.98717 10
endloop
endfacet
facet normal 0.050653183663287464 0.998716303554104 0
outer loop
vertex -0.50649 9.98717 0
vertex -0.50649 9.98717 10
vertex 1.51428 9.88468 0
endloop
endfacet
facet normal 0.050653183663287464 0.998716303554104 0
outer loop
vertex 1.51428 9.88468 0
vertex -0.50649 9.98717 10
vertex 1.51428 9.88468 10
endloop
endfacet
facet normal 0.2506522121717591 0.9680772017424041 0
outer loop
vertex 1.51428 9.88468 0
vertex 1.51428 9.88468 10
vertex 3.47305 9.37752 0
endloop
endfacet
facet normal 0.2506522121717591 0.9680772017424041 0
outer loop
vertex 3.47305 9.37752 0
vertex 1.51428 9.88468 10
vertex 3.47305 9.37752 10
endloop
endfacet
facet normal 0.44039417700156197 0.8978045270898988 0
outer loop
vertex 3.47305 9.37752 0
vertex 3.47305 9.37752 10
vertex 5.28964 8.48644 0
endloop
endfacet
facet normal 0.44039417700156197 0.8978045270898988 0
outer loop
vertex 5.28964 8.48644 0
vertex 3.47305 9.37752 10
vertex 5.28964 8.48644 10
endloop
endfacet
facet normal 0.6121043108819778 0.7907770309004295 0
outer loop
vertex 5.28964 8.48644 0
vertex 5.28964 8.48644 10
vertex 6.88967 7.24793 0
endloop
endfacet
facet normal 0.6121043108819778 0.7907770309004295 0
outer loop
vertex 6.88967 7.24793 0
vertex 5.28964 8.48644 10
vertex 6.88967 7.24793 10
endloop
endfacet
facet normal 0.758760295269651 0.6513699519645589 0
outer loop
vertex 6.88967 7.24793 0
vertex 6.88967 7.24793 10
vertex 8.20763 5.71268 0
endloop
endfacet
facet normal 0.758760295269651 0.6513699519645589 0
outer loop
vertex 8.20763 5.71268 0
vertex 6.88967 7.24793 10
vertex 8.20763 5.71268 10
endloop
endfacet
facet normal 0.8743448768106896 0.48530509619712425 0
outer loop
vertex 8.20763 5.71268 0
vertex 8.20763 5.71268 10
vertex 9.18958 3.94356 0
endloop
endfacet
facet normal 0.8743448768106896 0.48530509619712425 0
outer loop
vertex 9.18958 3.94356 0
vertex 8.20763 5.71268 10
vertex 9.18958 3.94356 10
endloop
endfacet
facet normal 0.9541392910110492 0.2993630126601017 0
outer loop
vertex 9.18958 3.94356 0
vertex 9.18958 3.94356 10
vertex 9.7953 2.01299 0
endloop
endfacet
facet normal 0.9541392910110492 0.2993630126601017 0
outer loop
vertex 9.7953 2.01299 0
vertex 9.18958 3.94356 10
vertex 9.7953 2.01299 10
endloop
endfacet
facet normal 0.9948693768905893 0.10116779589044378 0
outer loop
vertex 9.7953 2.01299 0
vertex 9.7953 2.01299 10
vertex 10 0 0
endloop
endfacet
facet normal 0.9948693768905893 0.10116779589044378 0
outer loop
vertex 10 0 0
vertex 9.7953 2.01299 10
vertex 10 0 10
endloop
endfacet
facet normal 0.9948693768905893 -0.10116779589044378 0
outer loop
vertex 10 0 0
vertex 10 0 10
vertex 9.7953 -2.01299 0
endloop
endfacet
facet normal 0.9948693768905893 -0.10116779589044378 0
outer loop
vertex 9.7953 -2.01299 0
vertex 10 0 10
vertex 9.7953 -2.01299 10
endloop
endfacet
facet normal 0 0 1
outer loop
vertex 9.7953 2.01299 10
vertex 9.7953 -2.01299 10
vertex 10 0 10
endloop
endfacet
facet normal 0 0 1
outer loop
vertex 9.18958 3.94356 10
vertex 9.7953 -2.01299 10
vertex 9.7953 2.01299 10
endloop
endfacet
facet normal 0 0 1
outer loop
vertex 9.18958 3.94356 10
vertex 9.18958 -3.94356 10
vertex 9.7953 -2.01299 10
endloop
endfacet
facet normal 0 0 1
outer loop
vertex 8.20763 5.71268 10
vertex 9.18958 -3.94356 10
vertex 9.18958 3.94356 10
endloop
endfacet
facet normal 0 0 1
outer loop
vertex 8.20763 5.71268 10
vertex 8.20763 -5.71268 10
vertex 9.18958 -3.94356 10
endloop
endfacet
facet normal 0 0 1
outer loop
vertex 6.88967 7.24793 10
vertex 8.20763 -5.71268 10
vertex 8.20763 5.71268 10
endloop
endfacet
facet normal 0 0 1
outer loop
vertex 6.88967 7.24793 10
vertex 6.88967 -7.24793 10
vertex 8.20763 -5.71268 10
endloop
endfacet
facet normal 0 0 1
outer loop
vertex 5.28964 8.48644 10
vertex 6.88967 -7.24793 10
vertex 6.88967 7.24793 10
endloop
endfacet
facet normal 0 0 1
outer loop
vertex 5.28964 8.48644 10
vertex 5.28964 -8.48644 10
vertex 6.88967 -7.24793 10
endloop
endfacet
facet normal 0 0 1
outer loop
vertex 3.47305 9.37752 10
vertex 5.28964 -8.48644 10
vertex 5.28964 8.48644 10
endloop
endfacet
facet normal 0 0 1
outer loop
vertex 3.47305 9.37752 10
vertex 3.47305 -9.37752 10
vertex 5.28964 -8.48644 10
endloop
endfacet
facet normal 0 0 1
outer loop
vertex 1.51428 9.88468 10
vertex 3.47305 -9.37752 10
vertex 3.47305 9.37752 10
endloop
endfacet
facet normal 0 0 1
outer loop
vertex 1.51428 9.88468 10
vertex 1.51428 -9.88468 10
vertex 3.47305 -9.37752 10
endloop
endfacet
facet normal 0 0 1
outer loop
vertex -0.50649 9.98717 10
vertex 1.51428 -9.88468 10
vertex 1.51428 9.88468 10
endloop
endfacet
facet normal 0 0 1
outer loop
vertex -0.50649 9.98717 10
vertex -0.50649 -9.98717 10
vertex 1.51428 -9.88468 10
endloop
endfacet
facet normal 0 0 1
outer loop
vertex -2.50653 9.68077 10
vertex -0.50649 -9.98717 10
vertex -0.50649 9.98717 10
endloop
endfacet
facet normal 0 0 1
outer loop
vertex -2.50653 9.68077 10
vertex -2.50653 -9.68077 10
vertex -0.50649 -9.98717 10
endloop
endfacet
facet normal 0 0 1
outer loop
vertex -2.50653 9.68077 10
vertex -4.40394 -8.97805 10
vertex -2.50653 -9.68077 10
endloop
endfacet
facet normal 0 0 1
outer loop
vertex -4.40394 8.97805 10
vertex -4.40394 -8.97805 10
vertex -2.50653 9.68077 10
endloop
endfacet
facet normal 0 0 1
outer loop
vertex -6.12106 7.90776 10
vertex -4.40394 -8.97805 10
vertex -4.40394 8.97805 10
endloop
endfacet
facet normal 0 0 1
outer loop
vertex -6.12106 7.90776 10
vertex -6.12106 -7.90776 10
vertex -4.40394 -8.97805 10
endloop
endfacet
facet normal 0 0 1
outer loop
vertex -7.58758 6.51372 10
vertex -6.12106 -7.90776 10
vertex -6.12106 7.90776 10
endloop
endfacet
facet normal 0 0 1
outer loop
vertex -7.58758 6.51372 10
vertex -7.58758 -6.51372 10
vertex -6.12106 -7.90776 10
endloop
endfacet
facet normal 0 0 1
outer loop
vertex -8.74347 4.85302 10
vertex -7.58758 -6.51372 10
vertex -7.58758 6.51372 10
endloop
endfacet
facet normal 0 0 1
outer loop
vertex -8.74347 4.85302 10
vertex -8.74347 -4.85302 10
vertex -7.58758 -6.51372 10
endloop
endfacet
facet normal 0 0 1
outer loop
vertex -9.54139 2.99363 10
vertex -8.74347 -4.85302 10
vertex -8.74347 4.85302 10
endloop
endfacet
facet normal 0 0 1
outer loop
vertex -9.54139 2.99363 10
vertex -9.54139 -2.99363 10
vertex -8.74347 -4.85302 10
endloop
endfacet
facet normal 0 0 1
outer loop
vertex -9.94869 1.01168 10
vertex -9.54139 -2.99363 10
vertex -9.54139 2.99363 10
endloop
endfacet
facet normal 0 0 1
outer loop
vertex -9.54139 -2.99363 10
vertex -9.94869 1.01168 10
vertex -9.94869 -1.01168 10
endloop
endfacet
facet normal 0 0 -1
outer loop
vertex 10 0 0
vertex 9.7953 -2.01299 0
vertex 9.7953 2.01299 0
endloop
endfacet
facet normal 0 0 -1
outer loop
vertex 9.7953 2.01299 0
vertex 9.7953 -2.01299 0
vertex 9.18958 3.94356 0
endloop
endfacet
facet normal 0 0 -1
outer loop
vertex 9.7953 -2.01299 0
vertex 9.18958 -3.94356 0
vertex 9.18958 3.94356 0
endloop
endfacet
facet normal 0 0 -1
outer loop
vertex 9.18958 3.94356 0
vertex 9.18958 -3.94356 0
vertex 8.20763 5.71268 0
endloop
endfacet
facet normal 0 0 -1
outer loop
vertex 9.18958 -3.94356 0
vertex 8.20763 -5.71268 0
vertex 8.20763 5.71268 0
endloop
endfacet
facet normal 0 0 -1
outer loop
vertex 8.20763 5.71268 0
vertex 8.20763 -5.71268 0
vertex 6.88967 7.24793 0
endloop
endfacet
facet normal 0 0 -1
outer loop
vertex 8.20763 -5.71268 0
vertex 6.88967 -7.24793 0
vertex 6.88967 7.24793 0
endloop
endfacet
facet normal 0 0 -1
outer loop
vertex 6.88967 7.24793 0
vertex 6.88967 -7.24793 0
vertex 5.28964 8.48644 0
endloop
endfacet
facet normal 0 0 -1
outer loop
vertex 6.88967 -7.24793 0
vertex 5.28964 -8.48644 0
vertex 5.28964 8.48644 0
endloop
endfacet
facet normal 0 0 -1
outer loop
vertex 5.28964 8.48644 0
vertex 5.28964 -8.48644 0
vertex 3.47305 9.37752 0
endloop
endfacet
facet normal 0 0 -1
outer loop
vertex 5.28964 -8.48644 0
vertex 3.47305 -9.37752 0
vertex 3.47305 9.37752 0
endloop
endfacet
facet normal 0 0 -1
outer loop
vertex 3.47305 9.37752 0
vertex 3.47305 -9.37752 0
vertex 1.51428 9.88468 0
endloop
endfacet
facet normal 0 0 -1
outer loop
vertex 3.47305 -9.37752 0
vertex 1.51428 -9.88468 0
vertex 1.51428 9.88468 0
endloop
endfacet
facet normal 0 0 -1
outer loop
vertex 1.51428 9.88468 0
vertex 1.51428 -9.88468 0
vertex -0.50649 9.98717 0
endloop
endfacet
facet normal 0 0 -1
outer loop
vertex 1.51428 -9.88468 0
vertex -0.50649 -9.98717 0
vertex -0.50649 9.98717 0
endloop
endfacet
facet normal 0 0 -1
outer loop
vertex -0.50649 9.98717 0
vertex -0.50649 -9.98717 0
vertex -2.50653 9.68077 0
endloop
endfacet
facet normal 0 0 -1
outer loop
vertex -0.50649 -9.98717 0
vertex -2.50653 -9.68077 0
vertex -2.50653 9.68077 0
endloop
endfacet
facet normal 0 0 -1
outer loop
vertex -2.50653 -9.68077 0
vertex -4.40394 -8.97805 0
vertex -2.50653 9.68077 0
endloop
endfacet
facet normal 0 0 -1
outer loop
vertex -2.50653 9.68077 0
vertex -4.40394 -8.97805 0
vertex -4.40394 8.97805 0
endloop
endfacet
facet normal 0 0 -1
outer loop
vertex -4.40394 8.97805 0
vertex -4.40394 -8.97805 0
vertex -6.12106 7.90776 0
endloop
endfacet
facet normal 0 0 -1
outer loop
vertex -4.40394 -8.97805 0
vertex -6.12106 -7.90776 0
vertex -6.12106 7.90776 0
endloop
endfacet
facet normal 0 0 -1
outer loop
vertex -6.12106 7.90776 0
vertex -6.12106 -7.90776 0
vertex -7.58758 6.51372 0
endloop
endfacet
facet normal 0 0 -1
outer loop
vertex -6.12106 -7.90776 0
vertex -7.58758 -6.51372 0
vertex -7.58758 6.51372 0
endloop
endfacet
facet normal 0 0 -1
outer loop
vertex -7.58758 6.51372 0
vertex -7.58758 -6.51372 0
vertex -8.74347 4.85302 0
endloop
endfacet
facet normal 0 0 -1
outer loop
vertex -7.58758 -6.51372 0
vertex -8.74347 -4.85302 0
vertex -8.74347 4.85302 0
endloop
endfacet
facet normal 0 0 -1
outer loop
vertex -8.74347 4.85302 0
vertex -8.74347 -4.85302 0
vertex -9.54139 2.99363 0
endloop
endfacet
facet normal 0 0 -1
outer loop
vertex -8.74347 -4.85302 0
vertex -9.54139 -2.99363 0
vertex -9.54139 2.99363 0
endloop
endfacet
facet normal 0 0 -1
outer loop
vertex -9.54139 2.99363 0
vertex -9.54139 -2.99363 0
vertex -9.94869 1.01168 0
endloop
endfacet
facet normal 0 0 -1
outer loop
vertex -9.94869 -1.01168 0
vertex -9.94869 1.01168 0
vertex -9.54139 -2.99363 0
endloop
endfacet
endsolid JSxCAD
