<?xml version="1.0" encoding="UTF-8"?>
<!-- Generated by jsxcad -->
<!DOCTYPE svg PUBLIC "-//W3C//DTD SVG 1.1 Tiny//EN" "http://www.w3.org/Graphics/SVG/1.1/DTD/svg11-tiny.dtd">
<svg viewBox="-250 -250 500 500" width="500" height="500" xmlns="http://www.w3.org/2000/svg"><path d="M36.97203299355495,66.11415195779048L62.727780393015564,53.10775908681352L33.86894128394681,60.04941514421338zM62.727780393015564,53.10775908681352L36.97203299355495,66.11415195779048L65.67310603289087,59.25831759586387z" style="fill:rgb(127,37,217)"/><path d="M63.478604259653004,60.3706275851271L66.43094183532017,66.63170550953066L66.43910058275652,66.517189672826z" style="fill:rgb(246,148,167)"/><path d="M40.277768652903085,77.31665789358676L-20.819848654896816,-38.319733672445565L36.91160627415809,73.62878563373494z" style="fill:rgb(23,55,145)"/><path d="M45.62061265387038,79.12491640399276L-17.370377473909237,-34.800497688124494L40.277768652903085,77.31665789358676z" style="fill:rgb(57,36,182)"/><path d="M63.478604259653004,60.3706275851271L11.675271688578015,-47.03627518014847L66.43094183532017,66.63170550953066z" style="fill:rgb(246,148,167)"/><path d="M66.43094183532017,66.63170550953066L8.134177047670624,-41.61374414194946L63.43725893021247,71.85249541569098z" style="fill:rgb(231,109,199)"/><path d="M63.8580323939007,55.2503345821981L11.690284371561754,-47.151880355544954L63.478604259653004,60.3706275851271z" style="fill:rgb(246,148,167)"/><path d="M-4.677549663054203,-34.059451566260584L45.62061265387038,79.12491640399276L52.01615349210925,78.7119424784544z" style="fill:rgb(102,32,209)"/><path d="M63.43725893021247,71.85249541569098L2.340336202863914,-37.01181127662L58.331126363187316,76.13558033788213z" style="fill:rgb(197,72,218)"/><path d="M2.340336202863914,-37.01181127662L52.01615349210925,78.7119424784544L58.331126363187316,76.13558033788213z" style="fill:rgb(152,45,222)"/><path d="M-20.819848654896816,-38.319733672445565L40.277768652903085,77.31665789358676L-17.370377473909237,-34.800497688124494z" style="fill:rgb(23,55,145)"/><path d="M11.690284371561754,-47.151880355544954L63.8580323939007,55.2503345821981L12.360504216430954,-52.31275763996369z" style="fill:rgb(246,148,167)"/><path d="M-17.370377473909237,-34.800497688124494L45.62061265387038,79.12491640399276L-11.661111705893324,-33.28204810309723z" style="fill:rgb(57,36,182)"/><path d="M8.134177047670624,-41.61374414194946L66.43094183532017,66.63170550953066L11.675271688578015,-47.03627518014847z" style="fill:rgb(231,109,199)"/><path d="M11.675271688578015,-47.03627518014847L63.478604259653004,60.3706275851271L11.690284371561754,-47.151880355544954z" style="fill:rgb(246,148,167)"/><path d="M45.62061265387038,79.12491640399276L-4.677549663054203,-34.059451566260584L-11.661111705893324,-33.28204810309723z" style="fill:rgb(102,32,209)"/><path d="M2.340336202863914,-37.01181127662L63.43725893021247,71.85249541569098L8.134177047670624,-41.61374414194946z" style="fill:rgb(197,72,218)"/><path d="M52.01615349210925,78.7119424784544L2.340336202863914,-37.01181127662L-4.677549663054203,-34.059451566260584z" style="fill:rgb(152,45,222)"/><path d="M-19.187152655243104,-48.59513119716601L-17.370377473909237,-34.800497688124494L-14.454837664590398,-53.58673800389591zM-14.454837664590398,-53.58673800389591L-11.661111705893324,-33.28204810309723L-8.058232056929056,-57.34636210805976zM-20.819848654896816,-38.319733672445565L-19.187152655243104,-48.59513119716601L-21.4471474971321,-43.20172170351365zM-8.058232056929056,-57.34636210805976L-4.677549663054203,-34.059451566260584L-1.0656639010175872,-59.249081464948404z" style="fill:rgb(83,212,212)"/><path d="M-47.56983593259173,59.045851187233566L-24.96847810345493,-163.40087635268162L-36.848255288624756,-188.91551477462951z" style="fill:rgb(247,158,158)"/><path d="M-86.96565322774936,68.72492765665416L-36.848255288624756,-188.91551477462951L-67.51471346483928,-179.50482527186344zM-1.0656639010175872,-59.249081464948404L2.340336202863914,-37.01181127662L5.354609414478825,-58.967077179954046zM-19.187152655243104,-48.59513119716601L-20.819848654896816,-38.319733672445565L-17.370377473909237,-34.800497688124494zM5.354609414478825,-58.967077179954046L8.134177047670624,-41.61374414194946L10.109960314367932,-56.52539646840559zM-14.454837664590398,-53.58673800389591L-17.370377473909237,-34.800497688124494L-11.661111705893324,-33.28204810309723zM10.109960314367932,-56.52539646840559L11.675271688578015,-47.03627518014847L12.360504216430954,-52.31275763996369zM-8.058232056929056,-57.34636210805976L-11.661111705893324,-33.28204810309723L-4.677549663054203,-34.059451566260584zM-1.0656639010175872,-59.249081464948404L-4.677549663054203,-34.059451566260584L2.340336202863914,-37.01181127662zM10.109960314367932,-56.52539646840559L8.134177047670624,-41.61374414194946L11.675271688578015,-47.03627518014847zM5.354609414478825,-58.967077179954046L2.340336202863914,-37.01181127662L8.134177047670624,-41.61374414194946z" style="fill:rgb(83,212,212)"/><path d="M-24.96847810345493,-163.40087635268162L-47.56983593259173,59.045851187233566L-32.04013685669522,85.18883543621138z" style="fill:rgb(247,158,158)"/><path d="M-36.848255288624756,-188.91551477462951L-86.96565322774936,68.72492765665416L-47.56983593259173,59.045851187233566z" style="fill:rgb(83,212,212)"/><path d="M-47.56983593259173,59.045851187233566L-70.54668356133422,94.36206887953185L-32.04013685669522,85.18883543621138zM-70.54668356133422,94.36206887953185L-47.56983593259173,59.045851187233566L-86.96565322774936,68.72492765665416z" style="fill:rgb(127,37,217)"/></svg>
