<?xml version="1.0" encoding="UTF-8"?>
<!-- Generated by jsxcad -->
<!DOCTYPE svg PUBLIC "-//W3C//DTD SVG 1.1 Tiny//EN" "http://www.w3.org/Graphics/SVG/1.1/DTD/svg11-tiny.dtd">
<svg viewBox="-250 -250 500 500" width="500" height="500" xmlns="http://www.w3.org/2000/svg"><path d="M32.08441876942766,53.51742213036171L-19.7969261242699,-47.06598866049238L36.70330332465772,63.585672037987834z" style="fill:rgb(242,183,130)"/><path d="M36.70330332465772,63.585672037987834L-18.41960199332342,-35.680731974505456L38.562239405854775,75.02130931277517z" style="fill:rgb(246,167,149)"/><path d="M-91.24340170280993,149.5459545201147L-172.15428913892953,39.16944923019665L-99.65394596946138,141.78256281987186z" style="fill:rgb(34,46,160)"/><path d="M-180.1934639053195,19.14020323481786L-109.91133725654888,-66.35850821927588L-124.44789818096591,-59.25035880027562z" style="fill:rgb(83,212,212)"/><path d="M38.562239405854775,75.02130931277517L-20.273250157683226,-23.148626920162506L37.494704328823616,87.40539631465533z" style="fill:rgb(246,149,167)"/><path d="M-180.1934639053195,19.14020323481786L-124.44789818096591,-59.25035880027562L-138.1444041063004,-50.48142730262216zM-180.1934639053195,19.14020323481786L-94.99471108581152,-71.57844242415094L-109.91133725654888,-66.35850821927588zM-180.1934639053195,19.14020323481786L-138.1444041063004,-50.48142730262216L-150.55983784206245,-40.321826749608256z" style="fill:rgb(83,212,212)"/><path d="M-80.47828795655828,155.20929592742252L-163.63724370107485,46.60574241646031L-91.24340170280993,149.5459545201147z" style="fill:rgb(51,38,177)"/><path d="M-180.1934639053195,19.14020323481786L-80.1720977379378,-74.72816841940522L-94.99471108581152,-71.57844242415094zM-180.1934639053195,19.14020323481786L-150.55983784206245,-40.321826749608256L-161.27764676298003,-29.082617853257663zM-180.1934639053195,19.14020323481786L-65.92656759410794,-75.67528495386786L-80.1720977379378,-74.72816841940522z" style="fill:rgb(83,212,212)"/><path d="M32.08441876942766,53.51742213036171L-24.23622494959921,-56.896796034196115L-19.7969261242699,-47.06598866049238z" style="fill:rgb(242,183,130)"/><path d="M37.494704328823616,87.40539631465533L-25.39207081420295,-9.958524652081254L33.454176177835414,100.24986278358789z" style="fill:rgb(242,130,183)"/><path d="M-180.1934639053195,19.14020323481786L-161.27764676298003,-29.082617853257663L-169.91325455338523,-17.114153187978584zM-180.1934639053195,19.14020323481786L-52.74352911031973,-74.342908034543L-65.92656759410794,-75.67528495386786z" style="fill:rgb(83,212,212)"/><path d="M-67.74748533205361,158.47030192440442L-152.4081023004506,51.803733057174604L-80.47828795655828,155.20929592742252z" style="fill:rgb(71,33,192)"/><path d="M-180.1934639053195,19.14020323481786L-169.91325455338523,-17.114153187978584L-176.12414555816676,-4.803633399656956zM-180.1934639053195,19.14020323481786L-41.10138364612496,-70.71715384061655L-52.74352911031973,-74.342908034543z" style="fill:rgb(83,212,212)"/><path d="M33.454176177835414,100.24986278358789L-33.65596937229159,3.3373538652448476L26.530759553954034,113.01656555507044z" style="fill:rgb(233,112,197)"/><path d="M-53.55531163366145,159.12617241090155L-138.8611090600859,54.46668113384775L-67.74748533205361,158.47030192440442z" style="fill:rgb(92,32,204)"/><path d="M36.70330332465772,63.585672037987834L-19.7969261242699,-47.06598866049238L-18.41960199332342,-35.680731974505456z" style="fill:rgb(246,167,149)"/><path d="M-180.1934639053195,19.14020323481786L-176.12414555816676,-4.803633399656956L-179.62289608272326,7.429311650475444zM-180.1934639053195,19.14020323481786L-31.458548276637174,-64.8557604798075L-41.10138364612496,-70.71715384061655z" style="fill:rgb(83,212,212)"/><path d="M26.530759553954034,113.01656555507044L-44.780669256886966,16.150410316712215L16.95971802419689,125.14400733393816z" style="fill:rgb(220,94,208)"/><path d="M-38.50119241756872,157.094850303591L-123.52835833091987,54.405219607636326L-53.55531163366145,159.12617241090155z" style="fill:rgb(115,34,214)"/><path d="M16.95971802419689,125.14400733393816L-58.320989126028124,27.89033745967669L5.11902312859181,136.08003530723295z" style="fill:rgb(203,77,216)"/><path d="M-23.24864627245647,152.42863812232878L-107.05974214127316,51.560088485634104L-38.50119241756872,157.094850303591z" style="fill:rgb(139,40,220)"/><path d="M-91.24340170280993,149.5459545201147L-163.63724370107485,46.60574241646031L-172.15428913892953,39.16944923019665z" style="fill:rgb(34,46,160)"/><path d="M38.562239405854775,75.02130931277517L-18.41960199332342,-35.680731974505456L-20.273250157683226,-23.148626920162506z" style="fill:rgb(246,149,167)"/><path d="M5.11902312859181,136.08003530723295L-73.68934401994566,38.00431521349956L-8.485709392004166,145.31744285606754z" style="fill:rgb(183,62,221)"/><path d="M-180.1934639053195,19.14020323481786L-24.23622494959921,-56.896796034196115L-31.458548276637174,-64.8557604798075z" style="fill:rgb(83,212,212)"/><path d="M-8.485709392004166,145.31744285606754L-90.18910753926266,46.016126034889226L-23.24864627245647,152.42863812232878z" style="fill:rgb(162,50,222)"/><path d="M-180.1934639053195,19.14020323481786L-19.7969261242699,-47.06598866049238L-24.23622494959921,-56.896796034196115z" style="fill:rgb(83,212,212)"/><path d="M-80.47828795655828,155.20929592742252L-152.4081023004506,51.803733057174604L-163.63724370107485,46.60574241646031z" style="fill:rgb(51,38,177)"/><path d="M37.494704328823616,87.40539631465533L-20.273250157683226,-23.148626920162506L-25.39207081420295,-9.958524652081254z" style="fill:rgb(242,130,183)"/><path d="M-180.1934639053195,19.14020323481786L-177.70961068237608,29.871519237207163L-172.15428913892953,39.16944923019665zM-180.1934639053195,19.14020323481786L-18.41960199332342,-35.680731974505456L-19.7969261242699,-47.06598866049238z" style="fill:rgb(83,212,212)"/><path d="M-67.74748533205361,158.47030192440442L-138.8611090600859,54.46668113384775L-152.4081023004506,51.803733057174604z" style="fill:rgb(71,33,192)"/><path d="M33.454176177835414,100.24986278358789L-25.39207081420295,-9.958524652081254L-33.65596937229159,3.3373538652448476z" style="fill:rgb(233,112,197)"/><path d="M-180.1934639053195,19.14020323481786L-172.15428913892953,39.16944923019665L-163.63724370107485,46.60574241646031zM-180.1934639053195,19.14020323481786L-20.273250157683226,-23.148626920162506L-18.41960199332342,-35.680731974505456z" style="fill:rgb(83,212,212)"/><path d="M-53.55531163366145,159.12617241090155L-123.52835833091987,54.405219607636326L-138.8611090600859,54.46668113384775z" style="fill:rgb(92,32,204)"/><path d="M26.530759553954034,113.01656555507044L-33.65596937229159,3.3373538652448476L-44.780669256886966,16.150410316712215z" style="fill:rgb(220,94,208)"/><path d="M-180.1934639053195,19.14020323481786L-163.63724370107485,46.60574241646031L-152.4081023004506,51.803733057174604zM-180.1934639053195,19.14020323481786L-25.39207081420295,-9.958524652081254L-20.273250157683226,-23.148626920162506z" style="fill:rgb(83,212,212)"/><path d="M-38.50119241756872,157.094850303591L-107.05974214127316,51.560088485634104L-123.52835833091987,54.405219607636326z" style="fill:rgb(115,34,214)"/><path d="M16.95971802419689,125.14400733393816L-44.780669256886966,16.150410316712215L-58.320989126028124,27.89033745967669z" style="fill:rgb(203,77,216)"/><path d="M-180.1934639053195,19.14020323481786L-152.4081023004506,51.803733057174604L-138.8611090600859,54.46668113384775z" style="fill:rgb(83,212,212)"/><path d="M-23.24864627245647,152.42863812232878L-90.18910753926266,46.016126034889226L-107.05974214127316,51.560088485634104z" style="fill:rgb(139,40,220)"/><path d="M5.11902312859181,136.08003530723295L-58.320989126028124,27.89033745967669L-73.68934401994566,38.00431521349956z" style="fill:rgb(183,62,221)"/><path d="M-8.485709392004166,145.31744285606754L-73.68934401994566,38.00431521349956L-90.18910753926266,46.016126034889226z" style="fill:rgb(162,50,222)"/><path d="M-180.1934639053195,19.14020323481786L-33.65596937229159,3.3373538652448476L-25.39207081420295,-9.958524652081254zM-180.1934639053195,19.14020323481786L-138.8611090600859,54.46668113384775L-123.52835833091987,54.405219607636326zM-180.1934639053195,19.14020323481786L-44.780669256886966,16.150410316712215L-33.65596937229159,3.3373538652448476zM-180.1934639053195,19.14020323481786L-123.52835833091987,54.405219607636326L-107.05974214127316,51.560088485634104zM-180.1934639053195,19.14020323481786L-58.320989126028124,27.89033745967669L-44.780669256886966,16.150410316712215zM-180.1934639053195,19.14020323481786L-107.05974214127316,51.560088485634104L-90.18910753926266,46.016126034889226zM-180.1934639053195,19.14020323481786L-73.68934401994566,38.00431521349956L-58.320989126028124,27.89033745967669zM-180.1934639053195,19.14020323481786L-90.18910753926266,46.016126034889226L-73.68934401994566,38.00431521349956z" style="fill:rgb(83,212,212)"/><path d="M171.97855365482903,-65.24536622728435L129.14068616003965,-195.47030013652181L147.62942891542855,-74.40126152717318zM171.97855365482903,-65.24536622728435L147.62942891542855,-74.40126152717318L193.68114522288877,57.90334327244645z" style="fill:rgb(247,158,158)"/><path d="M-48.116544576244266,-22.318932889365247L129.14068616003965,-195.47030013652181L-42.33801464448271,-144.67088966478718z" style="fill:rgb(83,212,212)"/><path d="M193.68114522288877,57.90334327244645L-48.116544576244266,-22.318932889365247L18.277654190802558,98.59320552969753z" style="fill:rgb(127,37,217)"/><path d="M-48.116544576244266,-22.318932889365247L147.62942891542855,-74.40126152717318L129.14068616003965,-195.47030013652181z" style="fill:rgb(83,212,212)"/><path d="M193.68114522288877,57.90334327244645L147.62942891542855,-74.40126152717318L-48.116544576244266,-22.318932889365247z" style="fill:rgb(127,37,217)"/></svg>
