<?xml version="1.0" encoding="UTF-8"?>
<!-- Generated by jsxcad -->
<!DOCTYPE svg PUBLIC "-//W3C//DTD SVG 1.1 Tiny//EN" "http://www.w3.org/Graphics/SVG/1.1/DTD/svg11-tiny.dtd">
<svg viewBox="-250 -250 500 500" width="500" height="500" xmlns="http://www.w3.org/2000/svg"><path d="M25.757521930924927,102.72297590178219L75.28062761030733,78.51234498173825L19.66119272296125,91.50739987889504zM75.28062761030733,78.51234498173825L25.757521930924927,102.72297590178219L80.79386040761017,90.03498576316126z" style="fill:rgb(127,37,217)"/><path d="M62.271246527178334,81.55188727054875L68.79587933205295,107.58606179936204L67.92245887973097,93.00233839475632z" style="fill:rgb(247,158,158)"/><path d="M32.82037068238673,103.12626505990336L62.271246527178334,81.55188727054875L32.401724815934415,88.53067174879422z" style="fill:rgb(83,212,212)"/><path d="M63.08178952226688,96.16491027291379L38.855819295274834,114.38083526306337L68.79587933205295,107.58606179936204zM38.855819295274834,114.38083526306337L63.08178952226688,96.16491027291379L32.82037068238673,103.12626505990336z" style="fill:rgb(127,37,217)"/><path d="M68.79587933205295,107.58606179936204L62.271246527178334,81.55188727054875L63.08178952226688,96.16491027291379z" style="fill:rgb(247,158,158)"/><path d="M62.271246527178334,81.55188727054875L32.82037068238673,103.12626505990336L63.08178952226688,96.16491027291379z" style="fill:rgb(83,212,212)"/><path d="M31.89179569679005,125.16131359285102L-101.56134723621085,-112.28982782806055L25.498138465243333,117.63497314826776z" style="fill:rgb(23,55,145)"/><path d="M42.18068414228302,129.0365365210352L-95.02622308551524,-105.52542616990787L31.89179569679005,125.16131359285102z" style="fill:rgb(57,36,182)"/><path d="M82.47339735740681,104.48201192742843L-32.401959696616665,-132.51773499996804L82.46061376897934,104.71070696150682zM77.53035285751656,82.78462151718924L-32.359029780853135,-132.74875869191L76.90791315651343,92.98434859297979z" style="fill:rgb(246,148,167)"/><path d="M82.46061376897934,104.71070696150682L-40.471358664277034,-121.36198095460739L76.75035367840549,115.08203871109845z" style="fill:rgb(231,109,199)"/><path d="M-68.54768489547386,-105.03357827580835L42.18068414228302,129.0365365210352L54.58713507345473,128.47836384794323z" style="fill:rgb(102,32,209)"/><path d="M76.75035367840549,115.08203871109845L-53.30364462703045,-111.58698232292288L66.86363648653152,123.52787727732448z" style="fill:rgb(197,72,218)"/><path d="M-53.30364462703045,-111.58698232292288L54.58713507345473,128.47836384794323L66.86363648653152,123.52787727732448z" style="fill:rgb(152,45,222)"/><path d="M-101.56134723621085,-112.28982782806055L31.89179569679005,125.16131359285102L-95.02622308551524,-105.52542616990787z" style="fill:rgb(23,55,145)"/><path d="M-32.359029780853135,-132.74875869191L77.53035285751656,82.78462151718924L-30.453657024803327,-143.00297088400615zM-32.401959696616665,-132.51773499996804L82.47339735740681,104.48201192742843L-32.359029780853135,-132.74875869191z" style="fill:rgb(246,148,167)"/><path d="M-95.02622308551524,-105.52542616990787L42.18068414228302,129.0365365210352L-83.3563156547071,-102.90862132367207z" style="fill:rgb(57,36,182)"/><path d="M-40.471358664277034,-121.36198095460739L82.46061376897934,104.71070696150682L-32.401959696616665,-132.51773499996804z" style="fill:rgb(231,109,199)"/><path d="M42.18068414228302,129.0365365210352L-68.54768489547386,-105.03357827580835L-83.3563156547071,-102.90862132367207z" style="fill:rgb(102,32,209)"/><path d="M-53.30364462703045,-111.58698232292288L76.75035367840549,115.08203871109845L-40.471358664277034,-121.36198095460739z" style="fill:rgb(197,72,218)"/><path d="M54.58713507345473,128.47836384794323L-53.30364462703045,-111.58698232292288L-68.54768489547386,-105.03357827580835z" style="fill:rgb(152,45,222)"/><path d="M-96.4520488189856,-132.66229746063323L-95.02622308551524,-105.52542616990787L-85.98296552827124,-142.7911040801655zM-101.56134723621085,-112.28982782806055L-96.4520488189856,-132.66229746063323L-101.99700823603193,-121.90117407411624zM-85.98296552827124,-142.7911040801655L-83.3563156547071,-102.90862132367207L-72.343435605223,-150.67501034720314zM-72.343435605223,-150.67501034720314L-68.54768489547386,-105.03357827580835L-57.71993381754168,-155.0619348868013zM-57.71993381754168,-155.0619348868013L-53.30364462703045,-111.58698232292288L-44.46157527344499,-155.20738099758935zM-96.4520488189856,-132.66229746063323L-101.56134723621085,-112.28982782806055L-95.02622308551524,-105.52542616990787zM-44.46157527344499,-155.20738099758935L-40.471358664277034,-121.36198095460739L-34.78739819135085,-150.99282647536322zM-85.98296552827124,-142.7911040801655L-95.02622308551524,-105.52542616990787L-83.3563156547071,-102.90862132367207zM-34.78739819135085,-150.99282647536322L-32.401959696616665,-132.51773499996804L-30.453657024803327,-143.00297088400615zM-72.343435605223,-150.67501034720314L-83.3563156547071,-102.90862132367207L-68.54768489547386,-105.03357827580835zM-57.71993381754168,-155.0619348868013L-68.54768489547386,-105.03357827580835L-53.30364462703045,-111.58698232292288zM-34.78739819135085,-150.99282647536322L-40.471358664277034,-121.36198095460739L-32.401959696616665,-132.51773499996804zM-44.46157527344499,-155.20738099758935L-53.30364462703045,-111.58698232292288L-40.471358664277034,-121.36198095460739z" style="fill:rgb(83,212,212)"/></svg>
