<?xml version="1.0" encoding="UTF-8"?>
<!-- Generated by jsxcad -->
<!DOCTYPE svg PUBLIC "-//W3C//DTD SVG 1.1 Tiny//EN" "http://www.w3.org/Graphics/SVG/1.1/DTD/svg11-tiny.dtd">
<svg viewBox="-250 -250 500 500" width="500" height="500" xmlns="http://www.w3.org/2000/svg"><path d="M-168.02412489408226,-52.218563860501234L-172.50146670960348,61.75761808654315L-151.0819157554832,-75.18656602786587zM-151.0819157554832,-75.18656602786587L-154.36726798729336,78.17191847899984L-130.26487124987096,-96.59011921489311zM-180.40866961613307,-28.281609171899188L-184.01544279313038,41.897590284042025L-168.02412489408226,-52.218563860501234zM-130.26487124987096,-96.59011921489311L-129.9288138171548,90.1280721476722L-106.26376912143776,-115.91520085179685zM-188.94214457301806,19.626303942357772L-180.40866961613307,-28.281609171899188L-187.57955438839392,-4.067474897855455zM-106.26376912143776,-115.91520085179685L-99.91950364289988,96.72932168283214L-79.7711111225572,-132.7130534658352zM-79.7711111225572,-132.7130534658352L-65.52155404207386,97.3051519002236L-51.48449018296705,-146.58558671722608z" style="fill:rgb(83,212,212)"/><path d="M145.03233022097882,-118.33696066624314L186.0887391939532,4.2425854431389505L178.73612805328415,-18.363517186088288z" style="fill:rgb(246,167,149)"/><path d="M-51.48449018296705,-146.58558671722608L-28.338937258610123,91.52114419256147L-22.11650116956544,-157.1743704977902zM-180.40866961613307,-28.281609171899188L-188.94214457301806,19.626303942357772L-184.01544279313038,41.897590284042025zM-22.11650116956544,-157.1743704977902L9.70049648391152,79.4635876033762L7.591571386931382,-164.15485936638274z" style="fill:rgb(83,212,212)"/><path d="M-92.5531217692173,164.42236147870287L-172.50146670960348,61.75761808654315L-110.49708628344294,147.4956677553683z" style="fill:rgb(34,46,160)"/><path d="M7.591571386931382,-164.15485936638274L46.509092327930965,61.674530391616884L36.85497384569971,-167.23720816590742zM-168.02412489408226,-52.218563860501234L-184.01544279313038,41.897590284042025L-172.50146670960348,61.75761808654315zM36.85497384569971,-167.23720816590742L80.04513376869541,39.121554871436594L64.83275288914415,-166.1750693591029z" style="fill:rgb(83,212,212)"/><path d="M186.0887391939532,4.2425854431389505L152.49968567100336,-70.82531762134761L187.1084399179641,29.544024991486168z" style="fill:rgb(246,149,167)"/><path d="M-151.0819157554832,-75.18656602786587L-172.50146670960348,61.75761808654315L-154.36726798729336,78.17191847899984z" style="fill:rgb(83,212,212)"/><path d="M-69.02448426136165,177.134038519429L-154.36726798729336,78.17191847899984L-92.5531217692173,164.42236147870287z" style="fill:rgb(51,38,177)"/><path d="M186.0887391939532,4.2425854431389505L145.03233022097882,-118.33696066624314L152.22135972962838,-96.13899432150389z" style="fill:rgb(246,167,149)"/><path d="M64.83275288914415,-166.1750693591029L80.04513376869541,39.121554871436594L90.62068701944467,-160.78326401647126zM90.62068701944467,-160.78326401647126L130.5670939349849,-14.891787744278368L113.25438795654256,-150.9653542897999zM-130.26487124987096,-96.59011921489311L-154.36726798729336,78.17191847899984L-129.9288138171548,90.1280721476722zM113.25438795654256,-150.9653542897999L145.3336669431515,-43.34020507527737L131.7277675233564,-136.75040311533525z" style="fill:rgb(83,212,212)"/><path d="M187.1084399179641,29.544024991486168L145.3336669431515,-43.34020507527737L181.3153003325174,56.565699604032034z" style="fill:rgb(242,130,183)"/><path d="M-172.50146670960348,61.75761808654315L-92.5531217692173,164.42236147870287L-154.36726798729336,78.17191847899984z" style="fill:rgb(34,46,160)"/><path d="M152.49968567100336,-70.82531762134761L186.0887391939532,4.2425854431389505L152.22135972962838,-96.13899432150389z" style="fill:rgb(246,149,167)"/><path d="M131.7277675233564,-136.75040311533525L152.49968567100336,-70.82531762134761L145.03233022097882,-118.33696066624314zM-106.26376912143776,-115.91520085179685L-129.9288138171548,90.1280721476722L-99.91950364289988,96.72932168283214z" style="fill:rgb(83,212,212)"/><path d="M-99.91950364289988,96.72932168283214L-69.02448426136165,177.134038519429L-40.66708831499938,184.7545166694987z" style="fill:rgb(71,33,192)"/><path d="M181.3153003325174,56.565699604032034L130.5670939349849,-14.891787744278368L168.56639022084687,84.10810612415965z" style="fill:rgb(233,112,197)"/><path d="M-79.7711111225572,-132.7130534658352L-99.91950364289988,96.72932168283214L-65.52155404207386,97.3051519002236zM145.03233022097882,-118.33696066624314L152.49968567100336,-70.82531762134761L152.22135972962838,-96.13899432150389z" style="fill:rgb(83,212,212)"/><path d="M-154.36726798729336,78.17191847899984L-69.02448426136165,177.134038519429L-129.9288138171548,90.1280721476722z" style="fill:rgb(51,38,177)"/><path d="M145.3336669431515,-43.34020507527737L187.1084399179641,29.544024991486168L152.49968567100336,-70.82531762134761z" style="fill:rgb(242,130,183)"/><path d="M-65.52155404207386,97.3051519002236L-40.66708831499938,184.7545166694987L-8.620075497422706,186.61688970900752z" style="fill:rgb(92,32,204)"/><path d="M-51.48449018296705,-146.58558671722608L-65.52155404207386,97.3051519002236L-28.338937258610123,91.52114419256147zM131.7277675233564,-136.75040311533525L145.3336669431515,-43.34020507527737L152.49968567100336,-70.82531762134761z" style="fill:rgb(83,212,212)"/><path d="M168.56639022084687,84.10810612415965L108.52039012092433,13.10315886672005L149.13779260001374,110.8075563616929z" style="fill:rgb(220,94,208)"/><path d="M113.25438795654256,-150.9653542897999L130.5670939349849,-14.891787744278368L145.3336669431515,-43.34020507527737zM-22.11650116956544,-157.1743704977902L-28.338937258610123,91.52114419256147L9.70049648391152,79.4635876033762z" style="fill:rgb(83,212,212)"/><path d="M-69.02448426136165,177.134038519429L-99.91950364289988,96.72932168283214L-129.9288138171548,90.1280721476722z" style="fill:rgb(71,33,192)"/><path d="M-28.338937258610123,91.52114419256147L-8.620075497422706,186.61688970900752L25.629138772063904,182.3622821057501z" style="fill:rgb(115,34,214)"/><path d="M90.62068701944467,-160.78326401647126L108.52039012092433,13.10315886672005L130.5670939349849,-14.891787744278368zM7.591571386931382,-164.15485936638274L9.70049648391152,79.4635876033762L46.509092327930965,61.674530391616884z" style="fill:rgb(83,212,212)"/><path d="M130.5670939349849,-14.891787744278368L181.3153003325174,56.565699604032034L145.3336669431515,-43.34020507527737z" style="fill:rgb(233,112,197)"/><path d="M149.13779260001374,110.8075563616929L80.04513376869541,39.121554871436594L123.76871577607926,135.23545723605872z" style="fill:rgb(203,77,216)"/><path d="M36.85497384569971,-167.23720816590742L46.509092327930965,61.674530391616884L80.04513376869541,39.121554871436594z" style="fill:rgb(83,212,212)"/><path d="M80.04513376869541,39.121554871436594L93.64839818883188,156.02670323544413L123.76871577607926,135.23545723605872z" style="fill:rgb(183,62,221)"/><path d="M9.70049648391152,79.4635876033762L25.629138772063904,182.3622821057501L60.337178340817054,172.01694968197162z" style="fill:rgb(139,40,220)"/><path d="M90.62068701944467,-160.78326401647126L80.04513376869541,39.121554871436594L108.52039012092433,13.10315886672005z" style="fill:rgb(83,212,212)"/><path d="M46.509092327930965,61.674530391616884L60.337178340817054,172.01694968197162L93.64839818883188,156.02670323544413z" style="fill:rgb(162,50,222)"/><path d="M-40.66708831499938,184.7545166694987L-65.52155404207386,97.3051519002236L-99.91950364289988,96.72932168283214z" style="fill:rgb(92,32,204)"/><path d="M108.52039012092433,13.10315886672005L168.56639022084687,84.10810612415965L130.5670939349849,-14.891787744278368z" style="fill:rgb(220,94,208)"/><path d="M-8.620075497422706,186.61688970900752L-28.338937258610123,91.52114419256147L-65.52155404207386,97.3051519002236z" style="fill:rgb(115,34,214)"/><path d="M80.04513376869541,39.121554871436594L149.13779260001374,110.8075563616929L108.52039012092433,13.10315886672005z" style="fill:rgb(203,77,216)"/><path d="M25.629138772063904,182.3622821057501L9.70049648391152,79.4635876033762L-28.338937258610123,91.52114419256147z" style="fill:rgb(139,40,220)"/><path d="M93.64839818883188,156.02670323544413L80.04513376869541,39.121554871436594L46.509092327930965,61.674530391616884z" style="fill:rgb(183,62,221)"/><path d="M60.337178340817054,172.01694968197162L46.509092327930965,61.674530391616884L9.70049648391152,79.4635876033762z" style="fill:rgb(162,50,222)"/></svg>
