solid JSxCAD
facet normal 0 0 1
outer loop
vertex 100 0 80
vertex 98.07853 19.50903 80
vertex 92.38795 38.26834 80
endloop
endfacet
facet normal 0 0 1
outer loop
vertex 100 0 80
vertex 92.38795 38.26834 80
vertex 83.14696 55.55702 80
endloop
endfacet
facet normal 0 0 1
outer loop
vertex 100 0 80
vertex 83.14696 55.55702 80
vertex 70.71068 70.71068 80
endloop
endfacet
facet normal 0 0 1
outer loop
vertex 100 0 80
vertex 70.71068 70.71068 80
vertex 55.55702 83.14696 80
endloop
endfacet
facet normal 0 0 1
outer loop
vertex 100 0 80
vertex 55.55702 83.14696 80
vertex 38.26834 92.38795 80
endloop
endfacet
facet normal 0 0 1
outer loop
vertex 100 0 80
vertex 38.26834 92.38795 80
vertex 19.50903 98.07853 80
endloop
endfacet
facet normal 0 0 1
outer loop
vertex 100 0 80
vertex 19.50903 98.07853 80
vertex 0 100 80
endloop
endfacet
facet normal 0 0 1
outer loop
vertex 100 0 80
vertex 0 100 80
vertex -19.50903 98.07853 80
endloop
endfacet
facet normal 0 0 1
outer loop
vertex 100 0 80
vertex -19.50903 98.07853 80
vertex -38.26834 92.38795 80
endloop
endfacet
facet normal 0 0 1
outer loop
vertex 100 0 80
vertex -38.26834 92.38795 80
vertex -55.55702 83.14696 80
endloop
endfacet
facet normal 0 0 1
outer loop
vertex 100 0 80
vertex -55.55702 83.14696 80
vertex -70.71068 70.71068 80
endloop
endfacet
facet normal 0 0 1
outer loop
vertex 100 0 80
vertex -70.71068 70.71068 80
vertex -83.14696 55.55702 80
endloop
endfacet
facet normal 0 0 1
outer loop
vertex 100 0 80
vertex -83.14696 55.55702 80
vertex -92.38795 38.26834 80
endloop
endfacet
facet normal 0 0 1
outer loop
vertex 100 0 80
vertex -92.38795 38.26834 80
vertex -98.07853 19.50903 80
endloop
endfacet
facet normal 0 0 1
outer loop
vertex 100 0 80
vertex -98.07853 19.50903 80
vertex -100 0 80
endloop
endfacet
facet normal 0 0 1
outer loop
vertex 100 0 80
vertex -100 0 80
vertex -98.07853 -19.50903 80
endloop
endfacet
facet normal 0 0 1
outer loop
vertex 100 0 80
vertex -98.07853 -19.50903 80
vertex -92.38795 -38.26834 80
endloop
endfacet
facet normal 0 0 1
outer loop
vertex 100 0 80
vertex -92.38795 -38.26834 80
vertex -83.14696 -55.55702 80
endloop
endfacet
facet normal 0 0 1
outer loop
vertex 100 0 80
vertex -83.14696 -55.55702 80
vertex -70.71068 -70.71068 80
endloop
endfacet
facet normal 0 0 1
outer loop
vertex 100 0 80
vertex -70.71068 -70.71068 80
vertex -55.55702 -83.14696 80
endloop
endfacet
facet normal 0 0 1
outer loop
vertex 100 0 80
vertex -55.55702 -83.14696 80
vertex -38.26834 -92.38795 80
endloop
endfacet
facet normal 0 0 1
outer loop
vertex 100 0 80
vertex -38.26834 -92.38795 80
vertex -19.50903 -98.07853 80
endloop
endfacet
facet normal 0 0 1
outer loop
vertex 100 0 80
vertex -19.50903 -98.07853 80
vertex 0 -100 80
endloop
endfacet
facet normal 0 0 1
outer loop
vertex 100 0 80
vertex 0 -100 80
vertex 19.50903 -98.07853 80
endloop
endfacet
facet normal 0 0 1
outer loop
vertex 100 0 80
vertex 19.50903 -98.07853 80
vertex 38.26834 -92.38795 80
endloop
endfacet
facet normal 0 0 1
outer loop
vertex 100 0 80
vertex 38.26834 -92.38795 80
vertex 55.55702 -83.14696 80
endloop
endfacet
facet normal 0 0 1
outer loop
vertex 100 0 80
vertex 55.55702 -83.14696 80
vertex 70.71068 -70.71068 80
endloop
endfacet
facet normal 0 0 1
outer loop
vertex 100 0 80
vertex 70.71068 -70.71068 80
vertex 83.14696 -55.55702 80
endloop
endfacet
facet normal 0 0 1
outer loop
vertex 100 0 80
vertex 83.14696 -55.55702 80
vertex 92.38795 -38.26834 80
endloop
endfacet
facet normal 0 0 1
outer loop
vertex 100 0 80
vertex 92.38795 -38.26834 80
vertex 98.07853 -19.50903 80
endloop
endfacet
facet normal 0 0 -1
outer loop
vertex 98.07853 -19.50903 0
vertex 92.38795 -38.26834 0
vertex 83.14696 -55.55702 0
endloop
endfacet
facet normal 0 0 -1
outer loop
vertex 98.07853 -19.50903 0
vertex 83.14696 -55.55702 0
vertex 70.71068 -70.71068 0
endloop
endfacet
facet normal 0 0 -1
outer loop
vertex 98.07853 -19.50903 0
vertex 70.71068 -70.71068 0
vertex 55.55702 -83.14696 0
endloop
endfacet
facet normal 0 0 -1
outer loop
vertex 98.07853 -19.50903 0
vertex 55.55702 -83.14696 0
vertex 38.26834 -92.38795 0
endloop
endfacet
facet normal 0 0 -1
outer loop
vertex 98.07853 -19.50903 0
vertex 38.26834 -92.38795 0
vertex 19.50903 -98.07853 0
endloop
endfacet
facet normal 0 0 -1
outer loop
vertex 98.07853 -19.50903 0
vertex 19.50903 -98.07853 0
vertex 0 -100 0
endloop
endfacet
facet normal 0 0 -1
outer loop
vertex 98.07853 -19.50903 0
vertex 0 -100 0
vertex -19.50903 -98.07853 0
endloop
endfacet
facet normal 0 0 -1
outer loop
vertex 98.07853 -19.50903 0
vertex -19.50903 -98.07853 0
vertex -38.26834 -92.38795 0
endloop
endfacet
facet normal 0 0 -1
outer loop
vertex 98.07853 -19.50903 0
vertex -38.26834 -92.38795 0
vertex -55.55702 -83.14696 0
endloop
endfacet
facet normal 0 0 -1
outer loop
vertex 98.07853 -19.50903 0
vertex -55.55702 -83.14696 0
vertex -70.71068 -70.71068 0
endloop
endfacet
facet normal 0 0 -1
outer loop
vertex 98.07853 -19.50903 0
vertex -70.71068 -70.71068 0
vertex -83.14696 -55.55702 0
endloop
endfacet
facet normal 0 0 -1
outer loop
vertex 98.07853 -19.50903 0
vertex -83.14696 -55.55702 0
vertex -92.38795 -38.26834 0
endloop
endfacet
facet normal 0 0 -1
outer loop
vertex 98.07853 -19.50903 0
vertex -92.38795 -38.26834 0
vertex -98.07853 -19.50903 0
endloop
endfacet
facet normal 0 0 -1
outer loop
vertex 98.07853 -19.50903 0
vertex -98.07853 -19.50903 0
vertex -100 0 0
endloop
endfacet
facet normal 0 0 -1
outer loop
vertex 98.07853 -19.50903 0
vertex -100 0 0
vertex -98.07853 19.50903 0
endloop
endfacet
facet normal 0 0 -1
outer loop
vertex 98.07853 -19.50903 0
vertex -98.07853 19.50903 0
vertex -92.38795 38.26834 0
endloop
endfacet
facet normal 0 0 -1
outer loop
vertex 98.07853 -19.50903 0
vertex -92.38795 38.26834 0
vertex -83.14696 55.55702 0
endloop
endfacet
facet normal 0 0 -1
outer loop
vertex 98.07853 -19.50903 0
vertex -83.14696 55.55702 0
vertex -70.71068 70.71068 0
endloop
endfacet
facet normal 0 0 -1
outer loop
vertex 98.07853 -19.50903 0
vertex -70.71068 70.71068 0
vertex -55.55702 83.14696 0
endloop
endfacet
facet normal 0 0 -1
outer loop
vertex 98.07853 -19.50903 0
vertex -55.55702 83.14696 0
vertex -38.26834 92.38795 0
endloop
endfacet
facet normal 0 0 -1
outer loop
vertex 98.07853 -19.50903 0
vertex -38.26834 92.38795 0
vertex -19.50903 98.07853 0
endloop
endfacet
facet normal 0 0 -1
outer loop
vertex 98.07853 -19.50903 0
vertex -19.50903 98.07853 0
vertex 0 100 0
endloop
endfacet
facet normal 0 0 -1
outer loop
vertex 98.07853 -19.50903 0
vertex 0 100 0
vertex 19.50903 98.07853 0
endloop
endfacet
facet normal 0 0 -1
outer loop
vertex 98.07853 -19.50903 0
vertex 19.50903 98.07853 0
vertex 38.26834 92.38795 0
endloop
endfacet
facet normal 0 0 -1
outer loop
vertex 98.07853 -19.50903 0
vertex 38.26834 92.38795 0
vertex 55.55702 83.14696 0
endloop
endfacet
facet normal 0 0 -1
outer loop
vertex 98.07853 -19.50903 0
vertex 55.55702 83.14696 0
vertex 70.71068 70.71068 0
endloop
endfacet
facet normal 0 0 -1
outer loop
vertex 98.07853 -19.50903 0
vertex 70.71068 70.71068 0
vertex 83.14696 55.55702 0
endloop
endfacet
facet normal 0 0 -1
outer loop
vertex 98.07853 -19.50903 0
vertex 83.14696 55.55702 0
vertex 92.38795 38.26834 0
endloop
endfacet
facet normal 0 0 -1
outer loop
vertex 98.07853 -19.50903 0
vertex 92.38795 38.26834 0
vertex 98.07853 19.50903 0
endloop
endfacet
facet normal 0 0 -1
outer loop
vertex 98.07853 -19.50903 0
vertex 98.07853 19.50903 0
vertex 100 0 0
endloop
endfacet
facet normal 0.9569402574453598 -0.290284935331492 0
outer loop
vertex 98.07853 -19.50903 0
vertex 98.07853 -19.50903 80
vertex 92.38795 -38.26834 80
endloop
endfacet
facet normal 0.9569402574453598 -0.290284935331492 0
outer loop
vertex 98.07853 -19.50903 0
vertex 92.38795 -38.26834 80
vertex 92.38795 -38.26834 0
endloop
endfacet
facet normal 0.8819213064636144 -0.47139665803388076 0
outer loop
vertex 92.38795 -38.26834 0
vertex 92.38795 -38.26834 80
vertex 83.14696 -55.55702 80
endloop
endfacet
facet normal 0.8819213064636144 -0.47139665803388076 0
outer loop
vertex 92.38795 -38.26834 0
vertex 83.14696 -55.55702 80
vertex 83.14696 -55.55702 0
endloop
endfacet
facet normal 0.7730106376137242 -0.6343930596531014 0
outer loop
vertex 83.14696 -55.55702 0
vertex 83.14696 -55.55702 80
vertex 70.71068 -70.71068 80
endloop
endfacet
facet normal 0.7730106376137242 -0.6343930596531014 0
outer loop
vertex 83.14696 -55.55702 0
vertex 70.71068 -70.71068 80
vertex 70.71068 -70.71068 0
endloop
endfacet
facet normal 0.6343930596531014 -0.7730106376137242 0
outer loop
vertex 70.71068 -70.71068 0
vertex 70.71068 -70.71068 80
vertex 55.55702 -83.14696 80
endloop
endfacet
facet normal 0.6343930596531014 -0.7730106376137242 0
outer loop
vertex 70.71068 -70.71068 0
vertex 55.55702 -83.14696 80
vertex 55.55702 -83.14696 0
endloop
endfacet
facet normal 0.47139665803388076 -0.8819213064636144 0
outer loop
vertex 55.55702 -83.14696 0
vertex 55.55702 -83.14696 80
vertex 38.26834 -92.38795 80
endloop
endfacet
facet normal 0.47139665803388076 -0.8819213064636144 0
outer loop
vertex 55.55702 -83.14696 0
vertex 38.26834 -92.38795 80
vertex 38.26834 -92.38795 0
endloop
endfacet
facet normal 0.290284935331492 -0.9569402574453598 0
outer loop
vertex 38.26834 -92.38795 0
vertex 38.26834 -92.38795 80
vertex 19.50903 -98.07853 80
endloop
endfacet
facet normal 0.290284935331492 -0.9569402574453598 0
outer loop
vertex 38.26834 -92.38795 0
vertex 19.50903 -98.07853 80
vertex 19.50903 -98.07853 0
endloop
endfacet
facet normal 0.09801705227898251 -0.9951847353444179 0
outer loop
vertex 19.50903 -98.07853 0
vertex 19.50903 -98.07853 80
vertex 0 -100 80
endloop
endfacet
facet normal 0.09801705227898251 -0.9951847353444179 0
outer loop
vertex 19.50903 -98.07853 0
vertex 0 -100 80
vertex 0 -100 0
endloop
endfacet
facet normal -0.09801705227898251 -0.9951847353444179 0
outer loop
vertex 0 -100 0
vertex 0 -100 80
vertex -19.50903 -98.07853 80
endloop
endfacet
facet normal -0.09801705227898251 -0.9951847353444179 0
outer loop
vertex 0 -100 0
vertex -19.50903 -98.07853 80
vertex -19.50903 -98.07853 0
endloop
endfacet
facet normal -0.290284935331492 -0.9569402574453598 0
outer loop
vertex -19.50903 -98.07853 0
vertex -19.50903 -98.07853 80
vertex -38.26834 -92.38795 80
endloop
endfacet
facet normal -0.290284935331492 -0.9569402574453598 0
outer loop
vertex -19.50903 -98.07853 0
vertex -38.26834 -92.38795 80
vertex -38.26834 -92.38795 0
endloop
endfacet
facet normal -0.47139665803388076 -0.8819213064636144 0
outer loop
vertex -38.26834 -92.38795 0
vertex -38.26834 -92.38795 80
vertex -55.55702 -83.14696 80
endloop
endfacet
facet normal -0.47139665803388076 -0.8819213064636144 0
outer loop
vertex -38.26834 -92.38795 0
vertex -55.55702 -83.14696 80
vertex -55.55702 -83.14696 0
endloop
endfacet
facet normal -0.6343930596531014 -0.7730106376137242 0
outer loop
vertex -55.55702 -83.14696 0
vertex -55.55702 -83.14696 80
vertex -70.71068 -70.71068 80
endloop
endfacet
facet normal -0.6343930596531014 -0.7730106376137242 0
outer loop
vertex -55.55702 -83.14696 0
vertex -70.71068 -70.71068 80
vertex -70.71068 -70.71068 0
endloop
endfacet
facet normal -0.7730106376137242 -0.6343930596531014 0
outer loop
vertex -70.71068 -70.71068 0
vertex -70.71068 -70.71068 80
vertex -83.14696 -55.55702 80
endloop
endfacet
facet normal -0.7730106376137242 -0.6343930596531014 0
outer loop
vertex -70.71068 -70.71068 0
vertex -83.14696 -55.55702 80
vertex -83.14696 -55.55702 0
endloop
endfacet
facet normal -0.8819213064636144 -0.47139665803388076 0
outer loop
vertex -83.14696 -55.55702 0
vertex -83.14696 -55.55702 80
vertex -92.38795 -38.26834 80
endloop
endfacet
facet normal -0.8819213064636144 -0.47139665803388076 0
outer loop
vertex -83.14696 -55.55702 0
vertex -92.38795 -38.26834 80
vertex -92.38795 -38.26834 0
endloop
endfacet
facet normal -0.9569402574453598 -0.290284935331492 0
outer loop
vertex -92.38795 -38.26834 0
vertex -92.38795 -38.26834 80
vertex -98.07853 -19.50903 80
endloop
endfacet
facet normal -0.9569402574453598 -0.290284935331492 0
outer loop
vertex -92.38795 -38.26834 0
vertex -98.07853 -19.50903 80
vertex -98.07853 -19.50903 0
endloop
endfacet
facet normal -0.9951847353444179 -0.09801705227898251 0
outer loop
vertex -98.07853 -19.50903 0
vertex -98.07853 -19.50903 80
vertex -100 0 80
endloop
endfacet
facet normal -0.9951847353444179 -0.09801705227898251 0
outer loop
vertex -98.07853 -19.50903 0
vertex -100 0 80
vertex -100 0 0
endloop
endfacet
facet normal -0.9951847353444179 0.09801705227898251 0
outer loop
vertex -100 0 0
vertex -100 0 80
vertex -98.07853 19.50903 80
endloop
endfacet
facet normal -0.9951847353444179 0.09801705227898251 0
outer loop
vertex -100 0 0
vertex -98.07853 19.50903 80
vertex -98.07853 19.50903 0
endloop
endfacet
facet normal -0.9569402574453598 0.290284935331492 0
outer loop
vertex -98.07853 19.50903 0
vertex -98.07853 19.50903 80
vertex -92.38795 38.26834 80
endloop
endfacet
facet normal -0.9569402574453598 0.290284935331492 0
outer loop
vertex -98.07853 19.50903 0
vertex -92.38795 38.26834 80
vertex -92.38795 38.26834 0
endloop
endfacet
facet normal -0.8819213064636144 0.47139665803388076 0
outer loop
vertex -92.38795 38.26834 0
vertex -92.38795 38.26834 80
vertex -83.14696 55.55702 80
endloop
endfacet
facet normal -0.8819213064636144 0.47139665803388076 0
outer loop
vertex -92.38795 38.26834 0
vertex -83.14696 55.55702 80
vertex -83.14696 55.55702 0
endloop
endfacet
facet normal -0.7730106376137242 0.6343930596531014 0
outer loop
vertex -83.14696 55.55702 0
vertex -83.14696 55.55702 80
vertex -70.71068 70.71068 80
endloop
endfacet
facet normal -0.7730106376137242 0.6343930596531014 0
outer loop
vertex -83.14696 55.55702 0
vertex -70.71068 70.71068 80
vertex -70.71068 70.71068 0
endloop
endfacet
facet normal -0.6343930596531014 0.7730106376137242 0
outer loop
vertex -70.71068 70.71068 0
vertex -70.71068 70.71068 80
vertex -55.55702 83.14696 80
endloop
endfacet
facet normal -0.6343930596531014 0.7730106376137242 0
outer loop
vertex -70.71068 70.71068 0
vertex -55.55702 83.14696 80
vertex -55.55702 83.14696 0
endloop
endfacet
facet normal -0.47139665803388076 0.8819213064636144 0
outer loop
vertex -55.55702 83.14696 0
vertex -55.55702 83.14696 80
vertex -38.26834 92.38795 80
endloop
endfacet
facet normal -0.47139665803388076 0.8819213064636144 0
outer loop
vertex -55.55702 83.14696 0
vertex -38.26834 92.38795 80
vertex -38.26834 92.38795 0
endloop
endfacet
facet normal -0.290284935331492 0.9569402574453598 0
outer loop
vertex -38.26834 92.38795 0
vertex -38.26834 92.38795 80
vertex -19.50903 98.07853 80
endloop
endfacet
facet normal -0.290284935331492 0.9569402574453598 0
outer loop
vertex -38.26834 92.38795 0
vertex -19.50903 98.07853 80
vertex -19.50903 98.07853 0
endloop
endfacet
facet normal -0.09801705227898251 0.9951847353444179 0
outer loop
vertex -19.50903 98.07853 0
vertex -19.50903 98.07853 80
vertex 0 100 80
endloop
endfacet
facet normal -0.09801705227898251 0.9951847353444179 0
outer loop
vertex -19.50903 98.07853 0
vertex 0 100 80
vertex 0 100 0
endloop
endfacet
facet normal 0.09801705227898251 0.9951847353444179 0
outer loop
vertex 0 100 0
vertex 0 100 80
vertex 19.50903 98.07853 80
endloop
endfacet
facet normal 0.09801705227898251 0.9951847353444179 0
outer loop
vertex 0 100 0
vertex 19.50903 98.07853 80
vertex 19.50903 98.07853 0
endloop
endfacet
facet normal 0.290284935331492 0.9569402574453598 0
outer loop
vertex 19.50903 98.07853 0
vertex 19.50903 98.07853 80
vertex 38.26834 92.38795 80
endloop
endfacet
facet normal 0.290284935331492 0.9569402574453598 0
outer loop
vertex 19.50903 98.07853 0
vertex 38.26834 92.38795 80
vertex 38.26834 92.38795 0
endloop
endfacet
facet normal 0.47139665803388076 0.8819213064636144 0
outer loop
vertex 38.26834 92.38795 0
vertex 38.26834 92.38795 80
vertex 55.55702 83.14696 80
endloop
endfacet
facet normal 0.47139665803388076 0.8819213064636144 0
outer loop
vertex 38.26834 92.38795 0
vertex 55.55702 83.14696 80
vertex 55.55702 83.14696 0
endloop
endfacet
facet normal 0.6343930596531014 0.7730106376137242 0
outer loop
vertex 55.55702 83.14696 0
vertex 55.55702 83.14696 80
vertex 70.71068 70.71068 80
endloop
endfacet
facet normal 0.6343930596531014 0.7730106376137242 0
outer loop
vertex 55.55702 83.14696 0
vertex 70.71068 70.71068 80
vertex 70.71068 70.71068 0
endloop
endfacet
facet normal 0.7730106376137242 0.6343930596531014 0
outer loop
vertex 70.71068 70.71068 0
vertex 70.71068 70.71068 80
vertex 83.14696 55.55702 80
endloop
endfacet
facet normal 0.7730106376137242 0.6343930596531014 0
outer loop
vertex 70.71068 70.71068 0
vertex 83.14696 55.55702 80
vertex 83.14696 55.55702 0
endloop
endfacet
facet normal 0.8819213064636144 0.47139665803388076 0
outer loop
vertex 83.14696 55.55702 0
vertex 83.14696 55.55702 80
vertex 92.38795 38.26834 80
endloop
endfacet
facet normal 0.8819213064636144 0.47139665803388076 0
outer loop
vertex 83.14696 55.55702 0
vertex 92.38795 38.26834 80
vertex 92.38795 38.26834 0
endloop
endfacet
facet normal 0.9569402574453598 0.290284935331492 0
outer loop
vertex 92.38795 38.26834 0
vertex 92.38795 38.26834 80
vertex 98.07853 19.50903 80
endloop
endfacet
facet normal 0.9569402574453598 0.290284935331492 0
outer loop
vertex 92.38795 38.26834 0
vertex 98.07853 19.50903 80
vertex 98.07853 19.50903 0
endloop
endfacet
facet normal 0.9951847353444179 0.09801705227898251 0
outer loop
vertex 98.07853 19.50903 0
vertex 98.07853 19.50903 80
vertex 100 0 80
endloop
endfacet
facet normal 0.9951847353444179 0.09801705227898251 0
outer loop
vertex 98.07853 19.50903 0
vertex 100 0 80
vertex 100 0 0
endloop
endfacet
facet normal 0.9951847353444179 -0.09801705227898251 0
outer loop
vertex 100 0 0
vertex 100 0 80
vertex 98.07853 -19.50903 80
endloop
endfacet
facet normal 0.9951847353444179 -0.09801705227898251 0
outer loop
vertex 100 0 0
vertex 98.07853 -19.50903 80
vertex 98.07853 -19.50903 0
endloop
endfacet
endsolid JSxCAD
