<?xml version="1.0" encoding="UTF-8"?>
<!-- Generated by jsxcad -->
<!DOCTYPE svg PUBLIC "-//W3C//DTD SVG 1.1 Tiny//EN" "http://www.w3.org/Graphics/SVG/1.1/DTD/svg11-tiny.dtd">
<svg viewBox="-250 -250 500 500" width="500" height="500" xmlns="http://www.w3.org/2000/svg"><path d="M-133.3849684641768,-40.2663586746539L-146.11161124412746,97.57450912754946L-127.52087899429621,-47.308592039821924zM-138.84607967985974,-33.06374873834515L-150.97200796750755,91.69749500102839L-133.3849684641768,-40.2663586746539zM-127.52087899429621,-47.308592039821924L-140.59955551782352,103.0857343401485L-121.2756716136783,-54.172479534551194zM-143.882455041651,-25.719602681982174L-155.17510554857643,85.48855557832928L-138.84607967985974,-33.06374873834515zM-121.2756716136783,-54.172479534551194L-134.445225201074,108.19768141105725L-114.6713252302655,-60.840880922310674zM-148.47258857174802,-18.253697388434283L-158.71869121734056,78.98163499988404L-143.882455041651,-25.719602681982174zM-114.6713252302655,-60.840880922310674L-127.66194086039035,112.87753475983625L-107.72987805732602,-67.29742869339292zM-152.59518279131524,-10.686785721457994L-161.60382700835748,72.2105295973669L-148.47258857174802,-18.253697388434283zM-107.72987805732602,-67.29742869339292L-120.26720686948698,117.09344556783093L-100.47345398400353,-73.52647465046086zM-156.22934252218116,-3.040642566424508L-163.83445761031513,65.20869641629878L-152.59518279131524,-10.686785721457994zM-100.47345398400353,-73.52647465046086L-112.28280904242249,120.81492055272169L-92.92419495906326,-79.51303698223033zM-159.3545570751168,4.661897869682412L-165.4172539958447,58.00903446331426L-156.22934252218116,-3.040642566424508zM-92.92419495906326,-79.51303698223033L-103.73499190160705,124.01314227755635L-85.1043130283553,-85.24276557582287zM-163.9992439280152,20.139361884414388L-166.37928029686165,35.54082325423361L-161.95093861415816,12.39691165937133zM-161.95093861415816,12.39691165937133L-166.3612174929454,50.643736296496456L-159.3545570751168,4.661897869682412zM-85.1043130283553,-85.24276557582287L-94.65454141770452,126.66138064622673L-77.03610937018291,-90.70186916063479zM-77.03610937018291,-90.70186916063479L-85.07672494532814,128.735317700633L-68.74193360705583,-95.87709646156503zM-166.37928029686165,35.54082325423361L-163.9992439280152,20.139361884414388L-165.48113732081353,27.863090736113154zM-68.74193360705583,-95.87709646156503L-75.04132459325245,130.21350047564633L-60.24427332400887,-100.75567683177219zM-60.24427332400887,-100.75567683177219L-64.59248986760399,131.0776317866706L-51.56576345292366,-105.32531343095023zM-161.95093861415816,12.39691165937133L-166.37928029686165,35.54082325423361L-166.6775502605383,43.144184514603985z" style="fill:rgb(83,212,212)"/><path d="M6.103757668515329,24.866766948843047L7.233089056114575,24.61228138528988L6.08971086311072,22.413579401942233zM7.233089056114575,24.61228138528988L6.103757668515329,24.866766948843047L7.2497371517595495,27.065224774863815z" style="fill:rgb(247,158,158)"/><path d="M7.233089056114575,24.61228138528988L16.7482192527706,19.733240896346647L6.08971086311072,22.413579401942233zM16.7482192527706,19.733240896346647L7.233089056114575,24.61228138528988L17.871541976367528,21.9435109516619z" style="fill:rgb(127,37,217)"/><path d="M-51.56576345292366,-105.32531343095023L-53.77853755679746,131.31295326415014L-42.729213180014355,-109.57413884124527zM-42.729213180014355,-109.57413884124527L-42.65169165894232,130.90858031031712L-33.75764997966545,-113.49067496426865zM-161.95093861415816,12.39691165937133L-166.6775502605383,43.144184514603985L-166.3612174929454,50.643736296496456zM-33.75764997966545,-113.49067496426865L-31.26775760672313,129.85773647254794L-24.674373410116093,-117.0638506254025zM-24.674373410116093,-117.0638506254025L-19.685705415524478,128.15804489711857L-15.502995782473379,-120.28297507475719zM-159.3545570751168,4.661897869682412L-166.3612174929454,50.643736296496456L-165.4172539958447,58.00903446331426zM-15.502995782473379,-120.28297507475719L-7.967180503455986,125.81166482440933L-6.2674834258830465,-123.13772546224392zM-156.22934252218116,-3.040642566424508L-165.4172539958447,58.00903446331426L-163.83445761031513,65.20869641629878zM-6.2674834258830465,-123.13772546224392L3.8240361863444217,122.82547345313688L3.0077950441474064,-125.61817129148503zM-152.59518279131524,-10.686785721457994L-163.83445761031513,65.20869641629878L-161.60382700835748,72.2105295973669zM3.0077950441474064,-125.61817129148503L15.622622543355938,119.21105233945433L12.298019623966358,-127.71477696439216zM12.298019623966358,-127.71477696439216L27.3623593011912,114.9847376516793L21.57787802887192,-129.4184233436956zM-148.47258857174802,-18.253697388434283L-161.60382700835748,72.2105295973669L-158.71869121734056,78.98163499988404zM21.57787802887192,-129.4184233436956L38.976802081653325,110.16749334856652L30.821525286745636,-130.72043874251273zM-143.882455041651,-25.719602681982174L-158.71869121734056,78.98163499988404L-155.17510554857643,85.48855557832928zM30.821525286745636,-130.72043874251273L50.399970777649166,104.78478012708717L40.00254792071607,-131.6126232913141zM40.00254792071607,-131.6126232913141L50.399970777649166,104.78478012708717L49.09392813091912,-132.0873438876882zM-138.84607967985974,-33.06374873834515L-155.17510554857643,85.48855557832928L-150.97200796750755,91.69749500102839zM49.09392813091912,-132.0873438876882L72.41501092572672,92.44574405618258L58.06802926483792,-132.13752072405018zM-133.3849684641768,-40.2663586746539L-150.97200796750755,91.69749500102839L-146.11161124412746,97.57450912754946zM58.06802926483792,-132.13752072405018L82.88339481898917,85.560394144187L66.89657518577485,-131.7567596964795z" style="fill:rgb(83,212,212)"/><path d="M-19.505468615878012,18.567850419790446L-14.00371877863133,-55.369380604653145L-17.997905305318408,-63.33438827877977z" style="fill:rgb(247,158,158)"/><path d="M66.89657518577485,-131.7567596964795L92.91478013985345,78.25073223495534L75.55063830957207,-130.93939656658358zM-28.616831574918432,-60.4220069537933L-19.505468615878012,18.567850419790446L-17.997905305318408,-63.33438827877977zM-127.52087899429621,-47.308592039821924L-146.11161124412746,97.57450912754946L-140.59955551782352,103.0857343401485zM75.55063830957207,-130.93939656658358L102.45543389531845,70.55999686376602L84.0006638005448,-129.680605806527zM84.0006638005448,-129.680605806527L111.45576809725257,62.53368635055335L92.21647298181175,-127.9764668535403zM-121.2756716136783,-54.172479534551194L-140.59955551782352,103.0857343401485L-134.445225201074,108.19768141105725z" style="fill:rgb(83,212,212)"/><path d="M161.0162633121423,-73.16716174901526L177.19167400073846,-24.725144756097134L174.87627928793532,-31.97222982868346z" style="fill:rgb(246,166,149)"/><path d="M92.21647298181175,-127.9764668535403L119.8707759683011,54.21905462498255L100.16730690779654,-125.82411223899057zM-114.6713252302655,-60.840880922310674L-134.445225201074,108.19768141105725L-127.66194086039035,112.87753475983625zM100.16730690779654,-125.82411223899057L127.66035173284324,45.6645953420532L107.82186268440174,-123.22181692672181z" style="fill:rgb(83,212,212)"/><path d="M-120.60878831564692,132.86436512921819L-150.97200796750755,91.69749500102839L-125.48232402630511,126.93768522890785z" style="fill:rgb(28,51,152)"/><path d="M107.82186268440174,-123.22181692672181L134.7895913494552,36.919508413877516L115.14840293682241,-120.16912165668228zM-107.72987805732602,-67.29742869339292L-127.66194086039035,112.87753475983625L-120.26720686948698,117.09344556783093z" style="fill:rgb(83,212,212)"/><path d="M163.3106911727039,-65.9682695144939L178.8662305155024,-17.164639214216827L177.19167400073846,-24.725144756097134z" style="fill:rgb(247,161,155)"/><path d="M115.14840293682241,-120.16912165668228L141.22890368709983,28.033219072893395L122.11478731044677,-116.66701871376834zM-100.47345398400353,-73.52647465046086L-120.26720686948698,117.09344556783093L-112.28280904242249,120.81492055272169zM122.11478731044677,-116.66701871376834L146.9541440510611,19.054872085964703L128.6886384096629,-112.71800118581695z" style="fill:rgb(83,212,212)"/><path d="M-115.11170611178528,138.43458009203047L-146.11161124412746,97.57450912754946L-120.60878831564692,132.86436512921819z" style="fill:rgb(32,47,158)"/><path d="M128.6886384096629,-112.71800118581695L151.94661085665362,10.032873936642384L134.8374621066511,-108.32629373091244zM-92.92419495906326,-79.51303698223033L-112.28280904242249,120.81492055272169L-103.73499190160705,124.01314227755635z" style="fill:rgb(83,212,212)"/><path d="M177.19167400073846,-24.725144756097134L161.0162633121423,-73.16716174901526L163.3106911727039,-65.9682695144939z" style="fill:rgb(246,166,149)"/><path d="M-14.00371877863133,-55.369380604653145L-19.505468615878012,18.567850419790446L-15.167557045462416,26.555318681560973z" style="fill:rgb(247,158,158)"/><path d="M134.8374621066511,-108.32629373091244L156.19295847819967,1.0144817744410233L140.52879867488215,-103.49797192814306z" style="fill:rgb(83,212,212)"/><path d="M178.8662305155024,-17.164639214216827L165.88368752848143,-50.60458857149636L179.87783019671713,-9.317047933002872z" style="fill:rgb(247,155,161)"/><path d="M-150.97200796750755,91.69749500102839L-120.60878831564692,132.86436512921819L-146.11161124412746,97.57450912754946z" style="fill:rgb(28,51,152)"/><path d="M-109.00150512110946,143.615234624355L-140.59955551782352,103.0857343401485L-115.11170611178528,138.43458009203047z" style="fill:rgb(37,44,163)"/><path d="M-85.1043130283553,-85.24276557582287L-103.73499190160705,124.01314227755635L-94.65454141770452,126.66138064622673zM140.52879867488215,-103.49797192814306L159.68505994717088,-7.9545825064870606L145.73041911235904,-98.24108930692964zM-19.505468615878012,18.567850419790446L-28.616831574918432,-60.4220069537933L-31.007024522143425,21.489560671710727zM145.73041911235904,-98.24108930692964L162.41982401270596,-16.830459750442596L150.4105564550673,-92.56584223730783z" style="fill:rgb(83,212,212)"/><path d="M178.8662305155024,-17.164639214216827L163.3106911727039,-65.9682695144939L164.94086168648565,-58.43885706305337z" style="fill:rgb(247,161,155)"/><path d="M-77.03610937018291,-90.70186916063479L-94.65454141770452,126.66138064622673L-85.07672494532814,128.735317700633zM150.4105564550673,-92.56584223730783L164.39892181750753,-25.571438659371342L154.538129820295,-86.48473698844823z" style="fill:rgb(83,212,212)"/><path d="M179.87783019671713,-9.317047933002872L166.1186873959195,-42.49393082262843L180.2068725334117,-1.2114044636957582z" style="fill:rgb(246,149,166)"/><path d="M-102.29237676223025,148.3738903544146L-134.445225201074,108.19768141105725L-109.00150512110946,143.615234624355z" style="fill:rgb(42,41,169)"/><path d="M-146.11161124412746,97.57450912754946L-115.11170611178528,138.43458009203047L-140.59955551782352,103.0857343401485z" style="fill:rgb(32,47,158)"/><path d="M-68.74193360705583,-95.87709646156503L-85.07672494532814,128.735317700633L-75.04132459325245,130.21350047564633zM154.538129820295,-86.48473698844823L165.62845238393155,-34.13818588695539L158.0829852532055,-80.01269088799754z" style="fill:rgb(83,212,212)"/><path d="M165.88368752848143,-50.60458857149636L178.8662305155024,-17.164639214216827L164.94086168648565,-58.43885706305337z" style="fill:rgb(247,155,161)"/><path d="M158.0829852532055,-80.01269088799754L166.1186873959195,-42.49393082262843L161.0162633121423,-73.16716174901526zM-60.24427332400887,-100.75567683177219L-75.04132459325245,130.21350047564633L-64.59248986760399,131.0776317866706z" style="fill:rgb(83,212,212)"/><path d="M180.2068725334117,-1.2114044636957582L165.62845238393155,-34.13818588695539L179.83668754656418,7.120579518413616z" style="fill:rgb(245,143,172)"/><path d="M161.0162633121423,-73.16716174901526L165.88368752848143,-50.60458857149636L163.3106911727039,-65.9682695144939z" style="fill:rgb(83,212,212)"/><path d="M-95.00248638087811,152.6790952705663L-127.66194086039035,112.87753475983625L-102.29237676223025,148.3738903544146z" style="fill:rgb(48,39,174)"/><path d="M-140.59955551782352,103.0857343401485L-109.00150512110946,143.615234624355L-134.445225201074,108.19768141105725z" style="fill:rgb(37,44,163)"/><path d="M-51.56576345292366,-105.32531343095023L-64.59248986760399,131.0776317866706L-53.77853755679746,131.31295326415014z" style="fill:rgb(83,212,212)"/><path d="M166.1186873959195,-42.49393082262843L179.87783019671713,-9.317047933002872L165.88368752848143,-50.60458857149636z" style="fill:rgb(246,149,166)"/><path d="M163.3106911727039,-65.9682695144939L165.88368752848143,-50.60458857149636L164.94086168648565,-58.43885706305337zM-42.729213180014355,-109.57413884124527L-53.77853755679746,131.31295326415014L-42.65169165894232,130.90858031031712z" style="fill:rgb(83,212,212)"/><path d="M179.83668754656418,7.120579518413616L164.39892181750753,-25.571438659371342L178.75386976695773,15.644572913781778z" style="fill:rgb(244,137,177)"/><path d="M161.0162633121423,-73.16716174901526L166.1186873959195,-42.49393082262843L165.88368752848143,-50.60458857149636z" style="fill:rgb(83,212,212)"/><path d="M-87.15408323117882,156.50065669460065L-120.26720686948698,117.09344556783093L-95.00248638087811,152.6790952705663z" style="fill:rgb(54,37,179)"/><path d="M-19.505468615878012,18.567850419790446L-26.59185353401362,29.431644878528743L-15.167557045462416,26.555318681560973z" style="fill:rgb(127,37,217)"/><path d="M-134.445225201074,108.19768141105725L-102.29237676223025,148.3738903544146L-127.66194086039035,112.87753475983625z" style="fill:rgb(42,41,169)"/><path d="M-33.75764997966545,-113.49067496426865L-42.65169165894232,130.90858031031712L-31.26775760672313,129.85773647254794z" style="fill:rgb(83,212,212)"/><path d="M-26.59185353401362,29.431644878528743L-19.505468615878012,18.567850419790446L-31.007024522143425,21.489560671710727z" style="fill:rgb(127,37,217)"/><path d="M158.0829852532055,-80.01269088799754L165.62845238393155,-34.13818588695539L166.1186873959195,-42.49393082262843z" style="fill:rgb(83,212,212)"/><path d="M165.62845238393155,-34.13818588695539L180.2068725334117,-1.2114044636957582L166.1186873959195,-42.49393082262843z" style="fill:rgb(245,143,172)"/><path d="M-24.674373410116093,-117.0638506254025L-31.26775760672313,129.85773647254794L-19.685705415524478,128.15804489711857zM154.538129820295,-86.48473698844823L164.39892181750753,-25.571438659371342L165.62845238393155,-34.13818588695539z" style="fill:rgb(83,212,212)"/><path d="M178.75386976695773,15.644572913781778L162.41982401270596,-16.830459750442596L176.9485905952014,24.323720704454892z" style="fill:rgb(242,131,182)"/><path d="M-78.77360255871214,159.81008322797078L-112.28280904242249,120.81492055272169L-87.15408323117882,156.50065669460065z" style="fill:rgb(60,35,184)"/><path d="M150.4105564550673,-92.56584223730783L162.41982401270596,-16.830459750442596L164.39892181750753,-25.571438659371342zM-15.502995782473379,-120.28297507475719L-19.685705415524478,128.15804489711857L-7.967180503455986,125.81166482440933z" style="fill:rgb(83,212,212)"/><path d="M-127.66194086039035,112.87753475983625L-95.00248638087811,152.6790952705663L-120.26720686948698,117.09344556783093z" style="fill:rgb(48,39,174)"/><path d="M145.73041911235904,-98.24108930692964L159.68505994717088,-7.9545825064870606L162.41982401270596,-16.830459750442596z" style="fill:rgb(83,212,212)"/><path d="M164.39892181750753,-25.571438659371342L179.83668754656418,7.120579518413616L165.62845238393155,-34.13818588695539z" style="fill:rgb(244,137,177)"/><path d="M-6.2674834258830465,-123.13772546224392L-7.967180503455986,125.81166482440933L3.8240361863444217,122.82547345313688zM140.52879867488215,-103.49797192814306L156.19295847819967,1.0144817744410233L159.68505994717088,-7.9545825064870606zM3.0077950441474064,-125.61817129148503L3.8240361863444217,122.82547345313688L15.622622543355938,119.21105233945433z" style="fill:rgb(83,212,212)"/><path d="M176.9485905952014,24.323720704454892L159.68505994717088,-7.9545825064870606L174.41495283207624,33.11879452336999z" style="fill:rgb(240,125,187)"/><path d="M134.8374621066511,-108.32629373091244L151.94661085665362,10.032873936642384L156.19295847819967,1.0144817744410233zM12.298019623966358,-127.71477696439216L15.622622543355938,119.21105233945433L27.3623593011912,114.9847376516793zM128.6886384096629,-112.71800118581695L146.9541440510611,19.054872085964703L151.94661085665362,10.032873936642384z" style="fill:rgb(83,212,212)"/><path d="M-120.26720686948698,117.09344556783093L-87.15408323117882,156.50065669460065L-112.28280904242249,120.81492055272169z" style="fill:rgb(54,37,179)"/><path d="M-94.65454141770452,126.66138064622673L-78.77360255871214,159.81008322797078L-69.89172369118809,162.58084485430405z" style="fill:rgb(66,34,189)"/><path d="M21.57787802887192,-129.4184233436956L27.3623593011912,114.9847376516793L38.976802081653325,110.16749334856652zM122.11478731044677,-116.66701871376834L141.22890368709983,28.033219072893395L146.9541440510611,19.054872085964703z" style="fill:rgb(83,212,212)"/><path d="M162.41982401270596,-16.830459750442596L178.75386976695773,15.644572913781778L164.39892181750753,-25.571438659371342z" style="fill:rgb(242,131,182)"/><path d="M30.821525286745636,-130.72043874251273L38.976802081653325,110.16749334856652L50.399970777649166,104.78478012708717zM115.14840293682241,-120.16912165668228L134.7895913494552,36.919508413877516L141.22890368709983,28.033219072893395z" style="fill:rgb(83,212,212)"/><path d="M174.41495283207624,33.11879452336999L156.19295847819967,1.0144817744410233L171.151358881212,41.9883760704698z" style="fill:rgb(237,120,191)"/><path d="M107.82186268440174,-123.22181692672181L127.66035173284324,45.6645953420532L134.7895913494552,36.919508413877516zM100.16730690779654,-125.82411223899057L119.8707759683011,54.21905462498255L127.66035173284324,45.6645953420532zM49.09392813091912,-132.0873438876882L61.56703685550112,98.86630769046411L72.41501092572672,92.44574405618258zM49.09392813091912,-132.0873438876882L50.399970777649166,104.78478012708717L61.56703685550112,98.86630769046411zM92.21647298181175,-127.9764668535403L111.45576809725257,62.53368635055335L119.8707759683011,54.21905462498255zM58.06802926483792,-132.13752072405018L72.41501092572672,92.44574405618258L82.88339481898917,85.560394144187zM84.0006638005448,-129.680605806527L102.45543389531845,70.55999686376602L111.45576809725257,62.53368635055335zM66.89657518577485,-131.7567596964795L82.88339481898917,85.560394144187L92.91478013985345,78.25073223495534zM75.55063830957207,-130.93939656658358L92.91478013985345,78.25073223495534L102.45543389531845,70.55999686376602z" style="fill:rgb(83,212,212)"/><path d="M-85.07672494532814,128.735317700633L-69.89172369118809,162.58084485430405L-60.54335657271798,164.78879257823885z" style="fill:rgb(73,33,193)"/><path d="M-112.28280904242249,120.81492055272169L-78.77360255871214,159.81008322797078L-103.73499190160705,124.01314227755635z" style="fill:rgb(60,35,184)"/><path d="M159.68505994717088,-7.9545825064870606L176.9485905952014,24.323720704454892L162.41982401270596,-16.830459750442596z" style="fill:rgb(240,125,187)"/><path d="M171.151358881212,41.9883760704698L151.94661085665362,10.032873936642384L167.1606407399316,50.88909377894055z" style="fill:rgb(234,114,195)"/><path d="M-78.77360255871214,159.81008322797078L-94.65454141770452,126.66138064622673L-103.73499190160705,124.01314227755635z" style="fill:rgb(66,34,189)"/><path d="M-75.04132459325245,130.21350047564633L-60.54335657271798,164.78879257823885L-50.76759742247402,166.4125085746337z" style="fill:rgb(79,32,198)"/><path d="M156.19295847819967,1.0144817744410233L174.41495283207624,33.11879452336999L159.68505994717088,-7.9545825064870606z" style="fill:rgb(237,120,191)"/><path d="M167.1606407399316,50.88909377894055L146.9541440510611,19.054872085964703L162.45047425681707,59.77591575046089z" style="fill:rgb(230,108,199)"/><path d="M-64.59248986760399,131.0776317866706L-50.76759742247402,166.4125085746337L-40.60758003738169,167.43363872028306z" style="fill:rgb(86,32,201)"/><path d="M-69.89172369118809,162.58084485430405L-85.07672494532814,128.735317700633L-94.65454141770452,126.66138064622673z" style="fill:rgb(73,33,193)"/><path d="M162.45047425681707,59.77591575046089L141.22890368709983,28.033219072893395L157.03339809260487,68.60246454048128z" style="fill:rgb(226,102,203)"/><path d="M151.94661085665362,10.032873936642384L171.151358881212,41.9883760704698L156.19295847819967,1.0144817744410233z" style="fill:rgb(234,114,195)"/><path d="M-53.77853755679746,131.31295326415014L-40.60758003738169,167.43363872028306L-30.11029151320748,167.83726861934304z" style="fill:rgb(94,32,205)"/><path d="M-60.54335657271798,164.78879257823885L-75.04132459325245,130.21350047564633L-85.07672494532814,128.735317700633z" style="fill:rgb(79,32,198)"/><path d="M157.03339809260487,68.60246454048128L134.7895913494552,36.919508413877516L150.9270759293811,77.321394006755z" style="fill:rgb(222,96,207)"/><path d="M146.9541440510611,19.054872085964703L167.1606407399316,50.88909377894055L151.94661085665362,10.032873936642384z" style="fill:rgb(230,108,199)"/><path d="M-42.65169165894232,130.90858031031712L-30.11029151320748,167.83726861934304L-19.32631728443231,167.61215571691093z" style="fill:rgb(101,32,208)"/><path d="M-50.76759742247402,166.4125085746337L-64.59248986760399,131.0776317866706L-75.04132459325245,130.21350047564633z" style="fill:rgb(86,32,201)"/><path d="M150.9270759293811,77.321394006755L127.66035173284324,45.6645953420532L144.15427817529107,85.88479546469381z" style="fill:rgb(217,91,210)"/><path d="M-31.26775760672313,129.85773647254794L-19.32631728443231,167.61215571691093L-8.309492580765053,166.7510779746407z" style="fill:rgb(108,33,211)"/><path d="M141.22890368709983,28.033219072893395L162.45047425681707,59.77591575046089L146.9541440510611,19.054872085964703z" style="fill:rgb(226,102,203)"/><path d="M144.15427817529107,85.88479546469381L119.8707759683011,54.21905462498255L136.74289486116353,94.2446575580599z" style="fill:rgb(212,85,213)"/><path d="M-40.60758003738169,167.43363872028306L-53.77853755679746,131.31295326415014L-64.59248986760399,131.0776317866706z" style="fill:rgb(94,32,205)"/><path d="M-19.685705415524478,128.15804489711857L-8.309492580765053,166.7510779746407L2.8834740867915616,165.2510058414027z" style="fill:rgb(116,34,214)"/><path d="M136.74289486116353,94.2446575580599L111.45576809725257,62.53368635055335L128.72589397582752,102.35330259796588z" style="fill:rgb(206,80,215)"/><path d="M134.7895913494552,36.919508413877516L157.03339809260487,68.60246454048128L141.22890368709983,28.033219072893395z" style="fill:rgb(222,96,207)"/><path d="M-7.967180503455986,125.81166482440933L2.8834740867915616,165.2510058414027L14.193473900675952,163.11332989025053z" style="fill:rgb(123,36,216)"/><path d="M-30.11029151320748,167.83726861934304L-42.65169165894232,130.90858031031712L-53.77853755679746,131.31295326415014z" style="fill:rgb(101,32,208)"/><path d="M128.72589397582752,102.35330259796588L102.45543389531845,70.55999686376602L120.14109084226145,110.16389973626625z" style="fill:rgb(200,75,217)"/><path d="M3.8240361863444217,122.82547345313688L14.193473900675952,163.11332989025053L25.55950281712733,160.343933312107z" style="fill:rgb(131,38,218)"/><path d="M127.66035173284324,45.6645953420532L150.9270759293811,77.321394006755L134.7895913494552,36.919508413877516z" style="fill:rgb(217,91,210)"/><path d="M120.14109084226145,110.16389973626625L92.91478013985345,78.25073223495534L111.03096410640325,117.63091770815818z" style="fill:rgb(194,70,219)"/><path d="M15.622622543355938,119.21105233945433L25.55950281712733,160.343933312107L36.91923084602976,156.95328047016415z" style="fill:rgb(138,40,220)"/><path d="M92.91478013985345,78.25073223495534L101.44235757724582,124.71068679045503L111.03096410640325,117.63091770815818z" style="fill:rgb(188,65,220)"/><path d="M-19.32631728443231,167.61215571691093L-31.26775760672313,129.85773647254794L-42.65169165894232,130.90858031031712z" style="fill:rgb(108,33,211)"/><path d="M27.3623593011912,114.9847376516793L36.91923084602976,156.95328047016415L48.209591847148836,152.9564235710548z" style="fill:rgb(146,43,221)"/><path d="M82.88339481898917,85.560394144187L91.4260082768741,131.36179830827862L101.44235757724582,124.71068679045503z" style="fill:rgb(181,61,221)"/><path d="M119.8707759683011,54.21905462498255L144.15427817529107,85.88479546469381L127.66035173284324,45.6645953420532z" style="fill:rgb(212,85,213)"/><path d="M38.976802081653325,110.16749334856652L48.209591847148836,152.9564235710548L59.36743166160725,148.3728988800082z" style="fill:rgb(153,46,222)"/><path d="M72.41501092572672,92.44574405618258L81.03617879021314,137.54560371839375L91.4260082768741,131.36179830827862z" style="fill:rgb(175,57,222)"/><path d="M50.399970777649166,104.78478012708717L59.36743166160725,148.3728988800082L70.33010685552874,143.22661148720778z" style="fill:rgb(160,49,222)"/><path d="M61.56703685550112,98.86630769046411L70.33010685552874,143.22661148720778L81.03617879021314,137.54560371839375z" style="fill:rgb(168,53,222)"/><path d="M-8.309492580765053,166.7510779746407L-19.685705415524478,128.15804489711857L-31.26775760672313,129.85773647254794z" style="fill:rgb(116,34,214)"/><path d="M111.45576809725257,62.53368635055335L136.74289486116353,94.2446575580599L119.8707759683011,54.21905462498255z" style="fill:rgb(206,80,215)"/><path d="M2.8834740867915616,165.2510058414027L-7.967180503455986,125.81166482440933L-19.685705415524478,128.15804489711857z" style="fill:rgb(123,36,216)"/><path d="M102.45543389531845,70.55999686376602L128.72589397582752,102.35330259796588L111.45576809725257,62.53368635055335z" style="fill:rgb(200,75,217)"/><path d="M14.193473900675952,163.11332989025053L3.8240361863444217,122.82547345313688L-7.967180503455986,125.81166482440933z" style="fill:rgb(131,38,218)"/><path d="M92.91478013985345,78.25073223495534L120.14109084226145,110.16389973626625L102.45543389531845,70.55999686376602z" style="fill:rgb(194,70,219)"/><path d="M25.55950281712733,160.343933312107L15.622622543355938,119.21105233945433L3.8240361863444217,122.82547345313688z" style="fill:rgb(138,40,220)"/><path d="M101.44235757724582,124.71068679045503L92.91478013985345,78.25073223495534L82.88339481898917,85.560394144187z" style="fill:rgb(188,65,220)"/><path d="M36.91923084602976,156.95328047016415L27.3623593011912,114.9847376516793L15.622622543355938,119.21105233945433z" style="fill:rgb(146,43,221)"/><path d="M91.4260082768741,131.36179830827862L82.88339481898917,85.560394144187L72.41501092572672,92.44574405618258z" style="fill:rgb(181,61,221)"/><path d="M48.209591847148836,152.9564235710548L38.976802081653325,110.16749334856652L27.3623593011912,114.9847376516793z" style="fill:rgb(153,46,222)"/><path d="M81.03617879021314,137.54560371839375L72.41501092572672,92.44574405618258L61.56703685550112,98.86630769046411z" style="fill:rgb(175,57,222)"/><path d="M59.36743166160725,148.3728988800082L50.399970777649166,104.78478012708717L38.976802081653325,110.16749334856652z" style="fill:rgb(160,49,222)"/><path d="M70.33010685552874,143.22661148720778L61.56703685550112,98.86630769046411L50.399970777649166,104.78478012708717z" style="fill:rgb(168,53,222)"/></svg>
