<?xml version="1.0" encoding="UTF-8"?>
<!-- Generated by jsxcad -->
<!DOCTYPE svg PUBLIC "-//W3C//DTD SVG 1.1 Tiny//EN" "http://www.w3.org/Graphics/SVG/1.1/DTD/svg11-tiny.dtd">
<svg viewBox="-250 -250 500 500" width="500" height="500" xmlns="http://www.w3.org/2000/svg"><path d="M32.08679179886496,103.20021466741125L70.20599437989247,84.63533850521621L27.453159034662967,94.57293027384802zM70.20599437989247,84.63533850521621L32.08679179886496,103.20021466741125L74.49425386296193,93.44380385027397z" style="fill:rgb(127,37,217)"/><path d="M71.39931670793287,95.76604897668466L75.70865230238469,104.73465871007342L75.71942611344483,104.55923977514831z" style="fill:rgb(246,148,167)"/><path d="M36.904411344468734,120.43728872942508L-59.34602623357184,-53.17701684049883L31.949404210046772,114.67925102270718z" style="fill:rgb(23,55,145)"/><path d="M44.820186822967,123.37940250956285L-54.25135518010039,-47.774386751361156L36.904411344468734,120.43728872942508z" style="fill:rgb(57,36,182)"/><path d="M71.39931670793287,95.76604897668466L-8.720410837606822,-67.07677349707784L75.70865230238469,104.73465871007342z" style="fill:rgb(246,148,167)"/><path d="M75.70865230238469,104.73465871007342L-14.41778551409681,-58.643217922145276L71.30293085601136,112.6779831490096z" style="fill:rgb(231,109,199)"/><path d="M71.91186465311296,87.9314353756091L-8.693336216407587,-67.25520919345288L71.39931670793287,95.76604897668466z" style="fill:rgb(246,148,167)"/><path d="M-34.65744497322388,-46.75489170282044L44.820186822967,123.37940250956285L54.328225308299,122.93090055575297z" style="fill:rgb(102,32,209)"/><path d="M71.30293085601136,112.6779831490096L-23.61625902891293,-51.426032151040104L63.72415484153057,119.13706074398267z" style="fill:rgb(197,72,218)"/><path d="M-23.61625902891293,-51.426032151040104L54.328225308299,122.93090055575297L63.72415484153057,119.13706074398267z" style="fill:rgb(152,45,222)"/><path d="M-59.34602623357184,-53.17701684049883L36.904411344468734,120.43728872942508L-54.25135518010039,-47.774386751361156z" style="fill:rgb(23,55,145)"/><path d="M-8.693336216407587,-67.25520919345288L71.91186465311296,87.9314353756091L-7.4880626599128695,-75.19856056707093z" style="fill:rgb(246,148,167)"/><path d="M-54.25135518010039,-47.774386751361156L44.820186822967,123.37940250956285L-45.52120685482461,-45.47476251980126z" style="fill:rgb(57,36,182)"/><path d="M-14.41778551409681,-58.643217922145276L75.70865230238469,104.73465871007342L-8.720410837606822,-67.07677349707784z" style="fill:rgb(231,109,199)"/><path d="M-8.720410837606822,-67.07677349707784L71.39931670793287,95.76604897668466L-8.693336216407587,-67.25520919345288z" style="fill:rgb(246,148,167)"/><path d="M44.820186822967,123.37940250956285L-34.65744497322388,-46.75489170282044L-45.52120685482461,-45.47476251980126z" style="fill:rgb(102,32,209)"/><path d="M-23.61625902891293,-51.426032151040104L71.30293085601136,112.6779831490096L-14.41778551409681,-58.643217922145276z" style="fill:rgb(197,72,218)"/><path d="M54.328225308299,122.93090055575297L-23.61625902891293,-51.426032151040104L-34.65744497322388,-46.75489170282044z" style="fill:rgb(152,45,222)"/><path d="M-56.23257040864567,-68.96020147206775L-54.25135518010039,-47.774386751361156L-48.723114368731295,-76.64066849445341zM-59.34602623357184,-53.17701684049883L-56.23257040864567,-68.96020147206775L-60.009804717713635,-60.676986017552636zM-48.723114368731295,-76.64066849445341L-45.52120685482461,-45.47476251980126L-38.75247091910319,-82.46891518867554zM-38.75247091910319,-82.46891518867554L-34.65744497322388,-46.75489170282044L-27.952913001974913,-85.49773744978356zM-27.952913001974913,-85.49773744978356L-23.61625902891293,-51.426032151040104L-18.09416487964268,-85.20756713795596zM-56.23257040864567,-68.96020147206775L-59.34602623357184,-53.17701684049883L-54.25135518010039,-47.774386751361156zM-18.09416487964268,-85.20756713795596L-14.41778551409681,-58.643217922145276L-10.839891114117192,-81.5930303570215zM-48.723114368731295,-76.64066849445341L-54.25135518010039,-47.774386751361156L-45.52120685482461,-45.47476251980126zM-10.839891114117192,-81.5930303570215L-8.720410837606822,-67.07677349707784L-7.4880626599128695,-75.19856056707093zM-38.75247091910319,-82.46891518867554L-45.52120685482461,-45.47476251980126L-34.65744497322388,-46.75489170282044zM-27.952913001974913,-85.49773744978356L-34.65744497322388,-46.75489170282044L-23.61625902891293,-51.426032151040104zM-10.839891114117192,-81.5930303570215L-14.41778551409681,-58.643217922145276L-8.720410837606822,-67.07677349707784zM-18.09416487964268,-85.20756713795596L-23.61625902891293,-51.426032151040104L-14.41778551409681,-58.643217922145276z" style="fill:rgb(83,212,212)"/><path d="M-38.025570216853886,-155.9744466811219L-17.802237882963535,-74.88356019480169L-17.11194904245023,-112.34963367351067z" style="fill:rgb(247,158,158)"/><path d="M-92.43581657499529,-139.7196857465188L-39.619931011275476,-118.86162771450427L-38.025570216853886,-155.9744466811219z" style="fill:rgb(83,212,212)"/><path d="M-39.619931011275476,-118.86162771450427L-72.61862661802122,-59.69302920603626L-17.802237882963535,-74.88356019480169z" style="fill:rgb(127,37,217)"/><path d="M-17.802237882963535,-74.88356019480169L-38.025570216853886,-155.9744466811219L-39.619931011275476,-118.86162771450427z" style="fill:rgb(247,158,158)"/><path d="M-39.619931011275476,-118.86162771450427L-92.43581657499529,-139.7196857465188L-96.25674269104351,-102.45954661394923z" style="fill:rgb(83,212,212)"/><path d="M-72.61862661802122,-59.69302920603626L-39.619931011275476,-118.86162771450427L-96.25674269104351,-102.45954661394923z" style="fill:rgb(127,37,217)"/></svg>
