<?xml version="1.0" encoding="UTF-8"?>
<!-- Generated by jsxcad -->
<!DOCTYPE svg PUBLIC "-//W3C//DTD SVG 1.1 Tiny//EN" "http://www.w3.org/Graphics/SVG/1.1/DTD/svg11-tiny.dtd">
<svg viewBox="-250 -250 500 500" width="500" height="500" xmlns="http://www.w3.org/2000/svg"><path d="M-160.59267271907288,-40.67420512959963L-164.10825099969065,73.36353260446266L-143.94260669607038,-63.58395043865627zM-143.94260669607038,-63.58395043865627L-145.9837481401652,89.86961507279202L-123.42432715620295,-84.90597944954479zM-172.70090921715027,-16.77250590012426L-175.70022243912427,53.441139316704195L-160.59267271907288,-40.67420512959963zM-123.42432715620295,-84.90597944954479L-121.65360253625005,101.94977548583992L-99.721479018403,-104.1261200964064zM-99.721479018403,-104.1261200964064L-91.85556741227226,108.70908281345382L-73.52121632066134,-120.79589070191557zM-180.7778096704575,31.134167607927946L-172.70090921715027,-16.77250590012426L-179.6228894732918,7.429311854467888zM-73.52121632066134,-120.79589070191557L-57.76708249213471,109.47646017082823L-45.51700154322098,-134.51819427913415zM-45.51700154322098,-134.51819427913415L-20.97696165991294,103.91310175390471L-16.418031836512398,-144.9365929276001zM-172.70090921715027,-16.77250590012426L-180.7778096704575,31.134167607927946L-175.70022243912427,53.441139316704195zM-16.418031836512398,-144.9365929276001L16.61185916556137,92.09612811919474L13.037594988205818,-151.7298019366091z" style="fill:rgb(83,212,212)"/><path d="M149.5889688581875,-104.82090699024857L182.1857977903772,-7.3255645204866235L174.84434938815903,-29.907439782414023z" style="fill:rgb(246,167,149)"/><path d="M13.037594988205818,-151.7298019366091L52.943648208725506,74.55368727184675L42.06865533071871,-154.61275494423055zM-160.59267271907288,-40.67420512959963L-175.70022243912427,53.441139316704195L-164.10825099969065,73.36353260446266zM42.06865533071871,-154.61275494423055L86.01110914239743,52.2360650786449L69.838554781088,-153.3455996514424z" style="fill:rgb(83,212,212)"/><path d="M-99.66773394948665,154.4952154552721L-164.10825099969065,73.36353260446266L-117.64760775462504,137.60809974095253z" style="fill:rgb(34,46,160)"/><path d="M-143.94260669607038,-63.58395043865627L-164.10825099969065,73.36353260446266L-145.9837481401652,89.86961507279202zM69.838554781088,-153.3455996514424L86.01110914239743,52.2360650786449L95.44872882602512,-147.7514675755899zM95.44872882602512,-147.7514675755899L135.74126999818503,-1.4114373536222269L117.94204267149071,-137.74396388467326z" style="fill:rgb(83,212,212)"/><path d="M182.1857977903772,-7.3255645204866235L149.5889688581875,-104.82090699024857L156.80895904527486,-82.5415032687428z" style="fill:rgb(246,167,149)"/><path d="M182.1857977903772,-7.3255645204866235L157.1966182700193,-57.20369175791339L183.12779157745135,17.999704280312567z" style="fill:rgb(246,149,167)"/><path d="M-123.42432715620295,-84.90597944954479L-145.9837481401652,89.86961507279202L-121.65360253625005,101.94977548583992zM117.94204267149071,-137.74396388467326L150.2255453816538,-29.757489755039277L136.32145818657003,-123.36358441922236z" style="fill:rgb(83,212,212)"/><path d="M-76.02129365638952,167.13861918298772L-145.9837481401652,89.86961507279202L-99.66773394948665,154.4952154552721z" style="fill:rgb(51,38,177)"/><path d="M136.32145818657003,-123.36358441922236L157.1966182700193,-57.20369175791339L149.5889688581875,-104.82090699024857zM-99.721479018403,-104.1261200964064L-121.65360253625005,101.94977548583992L-91.85556741227226,108.70908281345382z" style="fill:rgb(83,212,212)"/><path d="M-164.10825099969065,73.36353260446266L-99.66773394948665,154.4952154552721L-145.9837481401652,89.86961507279202z" style="fill:rgb(34,46,160)"/><path d="M157.1966182700193,-57.20369175791339L182.1857977903772,-7.3255645204866235L156.80895904527486,-82.5415032687428z" style="fill:rgb(246,149,167)"/><path d="M183.12779157745135,17.999704280312567L150.2255453816538,-29.757489755039277L177.18423066339793,45.095465269775424z" style="fill:rgb(242,130,183)"/><path d="M-73.52121632066134,-120.79589070191557L-91.85556741227226,108.70908281345382L-57.76708249213471,109.47646017082823zM149.5889688581875,-104.82090699024857L157.1966182700193,-57.20369175791339L156.80895904527486,-82.5415032687428z" style="fill:rgb(83,212,212)"/><path d="M-91.85556741227226,108.70908281345382L-76.02129365638952,167.13861918298772L-47.46272889322478,174.65893169017966z" style="fill:rgb(71,33,192)"/><path d="M-45.51700154322098,-134.51819427913415L-57.76708249213471,109.47646017082823L-20.97696165991294,103.91310175390471zM136.32145818657003,-123.36358441922236L150.2255453816538,-29.757489755039277L157.1966182700193,-57.20369175791339z" style="fill:rgb(83,212,212)"/><path d="M-145.9837481401652,89.86961507279202L-76.02129365638952,167.13861918298772L-121.65360253625005,101.94977548583992z" style="fill:rgb(51,38,177)"/><path d="M150.2255453816538,-29.757489755039277L183.12779157745135,17.999704280312567L157.1966182700193,-57.20369175791339z" style="fill:rgb(242,130,183)"/><path d="M177.18423066339793,45.095465269775424L135.74126999818503,-1.4114373536222269L164.21057354043697,72.75987262674865z" style="fill:rgb(233,112,197)"/><path d="M117.94204267149071,-137.74396388467326L135.74126999818503,-1.4114373536222269L150.2255453816538,-29.757489755039277zM-16.418031836512398,-144.9365929276001L-20.97696165991294,103.91310175390471L16.61185916556137,92.09612811919474zM95.44872882602512,-147.7514675755899L114.05789219253332,26.42350290410923L135.74126999818503,-1.4114373536222269zM13.037594988205818,-151.7298019366091L16.61185916556137,92.09612811919474L52.943648208725506,74.55368727184675z" style="fill:rgb(83,212,212)"/><path d="M-57.76708249213471,109.47646017082823L-47.46272889322478,174.65893169017966L-15.137044392632554,176.3879492462784z" style="fill:rgb(92,32,204)"/><path d="M-76.02129365638952,167.13861918298772L-91.85556741227226,108.70908281345382L-121.65360253625005,101.94977548583992z" style="fill:rgb(71,33,192)"/><path d="M42.06865533071871,-154.61275494423055L52.943648208725506,74.55368727184675L86.01110914239743,52.2360650786449z" style="fill:rgb(83,212,212)"/><path d="M164.21057354043697,72.75987262674865L114.05789219253332,26.42350290410923L144.4877542087509,99.62195400320624z" style="fill:rgb(220,94,208)"/><path d="M95.44872882602512,-147.7514675755899L86.01110914239743,52.2360650786449L114.05789219253332,26.42350290410923z" style="fill:rgb(83,212,212)"/><path d="M135.74126999818503,-1.4114373536222269L177.18423066339793,45.095465269775424L150.2255453816538,-29.757489755039277z" style="fill:rgb(233,112,197)"/><path d="M-20.97696165991294,103.91310175390471L-15.137044392632554,176.3879492462784L19.454383775967685,171.96869967253488z" style="fill:rgb(115,34,214)"/><path d="M144.4877542087509,99.62195400320624L86.01110914239743,52.2360650786449L118.7673687001026,124.2414092473887z" style="fill:rgb(203,77,216)"/><path d="M-47.46272889322478,174.65893169017966L-57.76708249213471,109.47646017082823L-91.85556741227226,108.70908281345382z" style="fill:rgb(92,32,204)"/><path d="M86.01110914239743,52.2360650786449L88.25850152843276,145.23849528155375L118.7673687001026,124.2414092473887z" style="fill:rgb(183,62,221)"/><path d="M16.61185916556137,92.09612811919474L19.454383775967685,171.96869967253488L54.546885804177634,161.43349155204922z" style="fill:rgb(139,40,220)"/><path d="M52.943648208725506,74.55368727184675L54.546885804177634,161.43349155204922L88.25850152843276,145.23849528155375z" style="fill:rgb(162,50,222)"/><path d="M114.05789219253332,26.42350290410923L164.21057354043697,72.75987262674865L135.74126999818503,-1.4114373536222269z" style="fill:rgb(220,94,208)"/><path d="M-15.137044392632554,176.3879492462784L-20.97696165991294,103.91310175390471L-57.76708249213471,109.47646017082823z" style="fill:rgb(115,34,214)"/><path d="M86.01110914239743,52.2360650786449L144.4877542087509,99.62195400320624L114.05789219253332,26.42350290410923z" style="fill:rgb(203,77,216)"/><path d="M19.454383775967685,171.96869967253488L16.61185916556137,92.09612811919474L-20.97696165991294,103.91310175390471z" style="fill:rgb(139,40,220)"/><path d="M88.25850152843276,145.23849528155375L86.01110914239743,52.2360650786449L52.943648208725506,74.55368727184675z" style="fill:rgb(183,62,221)"/><path d="M54.546885804177634,161.43349155204922L52.943648208725506,74.55368727184675L16.61185916556137,92.09612811919474z" style="fill:rgb(162,50,222)"/></svg>
