solid JSxCAD
facet normal 0 0 1
outer loop
vertex 100 0 60
vertex 98.07853 19.50903 60
vertex 92.38795 38.26834 60
endloop
endfacet
facet normal 0 0 1
outer loop
vertex 100 0 60
vertex 92.38795 38.26834 60
vertex 83.14696 55.55702 60
endloop
endfacet
facet normal 0 0 1
outer loop
vertex 100 0 60
vertex 83.14696 55.55702 60
vertex 70.71068 70.71068 60
endloop
endfacet
facet normal 0 0 1
outer loop
vertex 100 0 60
vertex 70.71068 70.71068 60
vertex 55.55702 83.14696 60
endloop
endfacet
facet normal 0 0 1
outer loop
vertex 100 0 60
vertex 55.55702 83.14696 60
vertex 38.26834 92.38795 60
endloop
endfacet
facet normal 0 0 1
outer loop
vertex 100 0 60
vertex 38.26834 92.38795 60
vertex 19.50903 98.07853 60
endloop
endfacet
facet normal 0 0 1
outer loop
vertex 100 0 60
vertex 19.50903 98.07853 60
vertex 0 100 60
endloop
endfacet
facet normal 0 0 1
outer loop
vertex 100 0 60
vertex 0 100 60
vertex -19.50903 98.07853 60
endloop
endfacet
facet normal 0 0 1
outer loop
vertex 100 0 60
vertex -19.50903 98.07853 60
vertex -38.26834 92.38795 60
endloop
endfacet
facet normal 0 0 1
outer loop
vertex 100 0 60
vertex -38.26834 92.38795 60
vertex -55.55702 83.14696 60
endloop
endfacet
facet normal 0 0 1
outer loop
vertex 100 0 60
vertex -55.55702 83.14696 60
vertex -70.71068 70.71068 60
endloop
endfacet
facet normal 0 0 1
outer loop
vertex 100 0 60
vertex -70.71068 70.71068 60
vertex -83.14696 55.55702 60
endloop
endfacet
facet normal 0 0 1
outer loop
vertex 100 0 60
vertex -83.14696 55.55702 60
vertex -92.38795 38.26834 60
endloop
endfacet
facet normal 0 0 1
outer loop
vertex 100 0 60
vertex -92.38795 38.26834 60
vertex -98.07853 19.50903 60
endloop
endfacet
facet normal 0 0 1
outer loop
vertex 100 0 60
vertex -98.07853 19.50903 60
vertex -100 0 60
endloop
endfacet
facet normal 0 0 1
outer loop
vertex 100 0 60
vertex -100 0 60
vertex -98.07853 -19.50903 60
endloop
endfacet
facet normal 0 0 1
outer loop
vertex 100 0 60
vertex -98.07853 -19.50903 60
vertex -92.38795 -38.26834 60
endloop
endfacet
facet normal 0 0 1
outer loop
vertex 100 0 60
vertex -92.38795 -38.26834 60
vertex -83.14696 -55.55702 60
endloop
endfacet
facet normal 0 0 1
outer loop
vertex 100 0 60
vertex -83.14696 -55.55702 60
vertex -70.71068 -70.71068 60
endloop
endfacet
facet normal 0 0 1
outer loop
vertex 100 0 60
vertex -70.71068 -70.71068 60
vertex -55.55702 -83.14696 60
endloop
endfacet
facet normal 0 0 1
outer loop
vertex 100 0 60
vertex -55.55702 -83.14696 60
vertex -38.26834 -92.38795 60
endloop
endfacet
facet normal 0 0 1
outer loop
vertex 100 0 60
vertex -38.26834 -92.38795 60
vertex -19.50903 -98.07853 60
endloop
endfacet
facet normal 0 0 1
outer loop
vertex 100 0 60
vertex -19.50903 -98.07853 60
vertex 0 -100 60
endloop
endfacet
facet normal 0 0 1
outer loop
vertex 100 0 60
vertex 0 -100 60
vertex 19.50903 -98.07853 60
endloop
endfacet
facet normal 0 0 1
outer loop
vertex 100 0 60
vertex 19.50903 -98.07853 60
vertex 38.26834 -92.38795 60
endloop
endfacet
facet normal 0 0 1
outer loop
vertex 100 0 60
vertex 38.26834 -92.38795 60
vertex 55.55702 -83.14696 60
endloop
endfacet
facet normal 0 0 1
outer loop
vertex 100 0 60
vertex 55.55702 -83.14696 60
vertex 70.71068 -70.71068 60
endloop
endfacet
facet normal 0 0 1
outer loop
vertex 100 0 60
vertex 70.71068 -70.71068 60
vertex 83.14696 -55.55702 60
endloop
endfacet
facet normal 0 0 1
outer loop
vertex 100 0 60
vertex 83.14696 -55.55702 60
vertex 92.38795 -38.26834 60
endloop
endfacet
facet normal 0 0 1
outer loop
vertex 100 0 60
vertex 92.38795 -38.26834 60
vertex 98.07853 -19.50903 60
endloop
endfacet
facet normal 0 0 -1
outer loop
vertex 98.07853 -19.50903 0
vertex 92.38795 -38.26834 0
vertex 83.14696 -55.55702 0
endloop
endfacet
facet normal 0 0 -1
outer loop
vertex 98.07853 -19.50903 0
vertex 83.14696 -55.55702 0
vertex 70.71068 -70.71068 0
endloop
endfacet
facet normal 0 0 -1
outer loop
vertex 98.07853 -19.50903 0
vertex 70.71068 -70.71068 0
vertex 55.55702 -83.14696 0
endloop
endfacet
facet normal 0 0 -1
outer loop
vertex 98.07853 -19.50903 0
vertex 55.55702 -83.14696 0
vertex 38.26834 -92.38795 0
endloop
endfacet
facet normal 0 0 -1
outer loop
vertex 98.07853 -19.50903 0
vertex 38.26834 -92.38795 0
vertex 19.50903 -98.07853 0
endloop
endfacet
facet normal 0 0 -1
outer loop
vertex 98.07853 -19.50903 0
vertex 19.50903 -98.07853 0
vertex 0 -100 0
endloop
endfacet
facet normal 0 0 -1
outer loop
vertex 98.07853 -19.50903 0
vertex 0 -100 0
vertex -19.50903 -98.07853 0
endloop
endfacet
facet normal 0 0 -1
outer loop
vertex 98.07853 -19.50903 0
vertex -19.50903 -98.07853 0
vertex -38.26834 -92.38795 0
endloop
endfacet
facet normal 0 0 -1
outer loop
vertex 98.07853 -19.50903 0
vertex -38.26834 -92.38795 0
vertex -55.55702 -83.14696 0
endloop
endfacet
facet normal 0 0 -1
outer loop
vertex 98.07853 -19.50903 0
vertex -55.55702 -83.14696 0
vertex -70.71068 -70.71068 0
endloop
endfacet
facet normal 0 0 -1
outer loop
vertex 98.07853 -19.50903 0
vertex -70.71068 -70.71068 0
vertex -83.14696 -55.55702 0
endloop
endfacet
facet normal 0 0 -1
outer loop
vertex 98.07853 -19.50903 0
vertex -83.14696 -55.55702 0
vertex -92.38795 -38.26834 0
endloop
endfacet
facet normal 0 0 -1
outer loop
vertex 98.07853 -19.50903 0
vertex -92.38795 -38.26834 0
vertex -98.07853 -19.50903 0
endloop
endfacet
facet normal 0 0 -1
outer loop
vertex 98.07853 -19.50903 0
vertex -98.07853 -19.50903 0
vertex -100 0 0
endloop
endfacet
facet normal 0 0 -1
outer loop
vertex 98.07853 -19.50903 0
vertex -100 0 0
vertex -98.07853 19.50903 0
endloop
endfacet
facet normal 0 0 -1
outer loop
vertex 98.07853 -19.50903 0
vertex -98.07853 19.50903 0
vertex -92.38795 38.26834 0
endloop
endfacet
facet normal 0 0 -1
outer loop
vertex 98.07853 -19.50903 0
vertex -92.38795 38.26834 0
vertex -83.14696 55.55702 0
endloop
endfacet
facet normal 0 0 -1
outer loop
vertex 98.07853 -19.50903 0
vertex -83.14696 55.55702 0
vertex -70.71068 70.71068 0
endloop
endfacet
facet normal 0 0 -1
outer loop
vertex 98.07853 -19.50903 0
vertex -70.71068 70.71068 0
vertex -55.55702 83.14696 0
endloop
endfacet
facet normal 0 0 -1
outer loop
vertex 98.07853 -19.50903 0
vertex -55.55702 83.14696 0
vertex -38.26834 92.38795 0
endloop
endfacet
facet normal 0 0 -1
outer loop
vertex 98.07853 -19.50903 0
vertex -38.26834 92.38795 0
vertex -19.50903 98.07853 0
endloop
endfacet
facet normal 0 0 -1
outer loop
vertex 98.07853 -19.50903 0
vertex -19.50903 98.07853 0
vertex 0 100 0
endloop
endfacet
facet normal 0 0 -1
outer loop
vertex 98.07853 -19.50903 0
vertex 0 100 0
vertex 19.50903 98.07853 0
endloop
endfacet
facet normal 0 0 -1
outer loop
vertex 98.07853 -19.50903 0
vertex 19.50903 98.07853 0
vertex 38.26834 92.38795 0
endloop
endfacet
facet normal 0 0 -1
outer loop
vertex 98.07853 -19.50903 0
vertex 38.26834 92.38795 0
vertex 55.55702 83.14696 0
endloop
endfacet
facet normal 0 0 -1
outer loop
vertex 98.07853 -19.50903 0
vertex 55.55702 83.14696 0
vertex 70.71068 70.71068 0
endloop
endfacet
facet normal 0 0 -1
outer loop
vertex 98.07853 -19.50903 0
vertex 70.71068 70.71068 0
vertex 83.14696 55.55702 0
endloop
endfacet
facet normal 0 0 -1
outer loop
vertex 98.07853 -19.50903 0
vertex 83.14696 55.55702 0
vertex 92.38795 38.26834 0
endloop
endfacet
facet normal 0 0 -1
outer loop
vertex 98.07853 -19.50903 0
vertex 92.38795 38.26834 0
vertex 98.07853 19.50903 0
endloop
endfacet
facet normal 0 0 -1
outer loop
vertex 98.07853 -19.50903 0
vertex 98.07853 19.50903 0
vertex 100 0 0
endloop
endfacet
facet normal 0.9569402574453597 -0.290284935331492 0
outer loop
vertex 98.07853 -19.50903 0
vertex 98.07853 -19.50903 60
vertex 92.38795 -38.26834 60
endloop
endfacet
facet normal 0.9569402574453597 -0.290284935331492 0
outer loop
vertex 98.07853 -19.50903 0
vertex 92.38795 -38.26834 60
vertex 92.38795 -38.26834 0
endloop
endfacet
facet normal 0.8819213064636143 -0.47139665803388064 0
outer loop
vertex 92.38795 -38.26834 0
vertex 92.38795 -38.26834 60
vertex 83.14696 -55.55702 60
endloop
endfacet
facet normal 0.8819213064636143 -0.47139665803388064 0
outer loop
vertex 92.38795 -38.26834 0
vertex 83.14696 -55.55702 60
vertex 83.14696 -55.55702 0
endloop
endfacet
facet normal 0.7730106376137242 -0.6343930596531014 0
outer loop
vertex 83.14696 -55.55702 0
vertex 83.14696 -55.55702 60
vertex 70.71068 -70.71068 60
endloop
endfacet
facet normal 0.7730106376137242 -0.6343930596531014 0
outer loop
vertex 83.14696 -55.55702 0
vertex 70.71068 -70.71068 60
vertex 70.71068 -70.71068 0
endloop
endfacet
facet normal 0.6343930596531014 -0.7730106376137242 0
outer loop
vertex 70.71068 -70.71068 0
vertex 70.71068 -70.71068 60
vertex 55.55702 -83.14696 60
endloop
endfacet
facet normal 0.6343930596531014 -0.7730106376137242 0
outer loop
vertex 70.71068 -70.71068 0
vertex 55.55702 -83.14696 60
vertex 55.55702 -83.14696 0
endloop
endfacet
facet normal 0.47139665803388064 -0.8819213064636143 0
outer loop
vertex 55.55702 -83.14696 0
vertex 55.55702 -83.14696 60
vertex 38.26834 -92.38795 60
endloop
endfacet
facet normal 0.47139665803388064 -0.8819213064636143 0
outer loop
vertex 55.55702 -83.14696 0
vertex 38.26834 -92.38795 60
vertex 38.26834 -92.38795 0
endloop
endfacet
facet normal 0.290284935331492 -0.9569402574453597 0
outer loop
vertex 38.26834 -92.38795 0
vertex 38.26834 -92.38795 60
vertex 19.50903 -98.07853 60
endloop
endfacet
facet normal 0.290284935331492 -0.9569402574453597 0
outer loop
vertex 38.26834 -92.38795 0
vertex 19.50903 -98.07853 60
vertex 19.50903 -98.07853 0
endloop
endfacet
facet normal 0.09801705227898251 -0.995184735344418 0
outer loop
vertex 19.50903 -98.07853 0
vertex 19.50903 -98.07853 60
vertex 0 -100 60
endloop
endfacet
facet normal 0.09801705227898251 -0.995184735344418 0
outer loop
vertex 19.50903 -98.07853 0
vertex 0 -100 60
vertex 0 -100 0
endloop
endfacet
facet normal -0.09801705227898251 -0.995184735344418 0
outer loop
vertex 0 -100 0
vertex 0 -100 60
vertex -19.50903 -98.07853 60
endloop
endfacet
facet normal -0.09801705227898251 -0.995184735344418 0
outer loop
vertex 0 -100 0
vertex -19.50903 -98.07853 60
vertex -19.50903 -98.07853 0
endloop
endfacet
facet normal -0.290284935331492 -0.9569402574453597 0
outer loop
vertex -19.50903 -98.07853 0
vertex -19.50903 -98.07853 60
vertex -38.26834 -92.38795 60
endloop
endfacet
facet normal -0.290284935331492 -0.9569402574453597 0
outer loop
vertex -19.50903 -98.07853 0
vertex -38.26834 -92.38795 60
vertex -38.26834 -92.38795 0
endloop
endfacet
facet normal -0.47139665803388064 -0.8819213064636143 0
outer loop
vertex -38.26834 -92.38795 0
vertex -38.26834 -92.38795 60
vertex -55.55702 -83.14696 60
endloop
endfacet
facet normal -0.47139665803388064 -0.8819213064636143 0
outer loop
vertex -38.26834 -92.38795 0
vertex -55.55702 -83.14696 60
vertex -55.55702 -83.14696 0
endloop
endfacet
facet normal -0.6343930596531014 -0.7730106376137242 0
outer loop
vertex -55.55702 -83.14696 0
vertex -55.55702 -83.14696 60
vertex -70.71068 -70.71068 60
endloop
endfacet
facet normal -0.6343930596531014 -0.7730106376137242 0
outer loop
vertex -55.55702 -83.14696 0
vertex -70.71068 -70.71068 60
vertex -70.71068 -70.71068 0
endloop
endfacet
facet normal -0.7730106376137242 -0.6343930596531014 0
outer loop
vertex -70.71068 -70.71068 0
vertex -70.71068 -70.71068 60
vertex -83.14696 -55.55702 60
endloop
endfacet
facet normal -0.7730106376137242 -0.6343930596531014 0
outer loop
vertex -70.71068 -70.71068 0
vertex -83.14696 -55.55702 60
vertex -83.14696 -55.55702 0
endloop
endfacet
facet normal -0.8819213064636143 -0.47139665803388064 0
outer loop
vertex -83.14696 -55.55702 0
vertex -83.14696 -55.55702 60
vertex -92.38795 -38.26834 60
endloop
endfacet
facet normal -0.8819213064636143 -0.47139665803388064 0
outer loop
vertex -83.14696 -55.55702 0
vertex -92.38795 -38.26834 60
vertex -92.38795 -38.26834 0
endloop
endfacet
facet normal -0.9569402574453597 -0.290284935331492 0
outer loop
vertex -92.38795 -38.26834 0
vertex -92.38795 -38.26834 60
vertex -98.07853 -19.50903 60
endloop
endfacet
facet normal -0.9569402574453597 -0.290284935331492 0
outer loop
vertex -92.38795 -38.26834 0
vertex -98.07853 -19.50903 60
vertex -98.07853 -19.50903 0
endloop
endfacet
facet normal -0.995184735344418 -0.09801705227898251 0
outer loop
vertex -98.07853 -19.50903 0
vertex -98.07853 -19.50903 60
vertex -100 0 60
endloop
endfacet
facet normal -0.995184735344418 -0.09801705227898251 0
outer loop
vertex -98.07853 -19.50903 0
vertex -100 0 60
vertex -100 0 0
endloop
endfacet
facet normal -0.995184735344418 0.09801705227898251 0
outer loop
vertex -100 0 0
vertex -100 0 60
vertex -98.07853 19.50903 60
endloop
endfacet
facet normal -0.995184735344418 0.09801705227898251 0
outer loop
vertex -100 0 0
vertex -98.07853 19.50903 60
vertex -98.07853 19.50903 0
endloop
endfacet
facet normal -0.9569402574453597 0.290284935331492 0
outer loop
vertex -98.07853 19.50903 0
vertex -98.07853 19.50903 60
vertex -92.38795 38.26834 60
endloop
endfacet
facet normal -0.9569402574453597 0.290284935331492 0
outer loop
vertex -98.07853 19.50903 0
vertex -92.38795 38.26834 60
vertex -92.38795 38.26834 0
endloop
endfacet
facet normal -0.8819213064636143 0.47139665803388064 0
outer loop
vertex -92.38795 38.26834 0
vertex -92.38795 38.26834 60
vertex -83.14696 55.55702 60
endloop
endfacet
facet normal -0.8819213064636143 0.47139665803388064 0
outer loop
vertex -92.38795 38.26834 0
vertex -83.14696 55.55702 60
vertex -83.14696 55.55702 0
endloop
endfacet
facet normal -0.7730106376137242 0.6343930596531014 0
outer loop
vertex -83.14696 55.55702 0
vertex -83.14696 55.55702 60
vertex -70.71068 70.71068 60
endloop
endfacet
facet normal -0.7730106376137242 0.6343930596531014 0
outer loop
vertex -83.14696 55.55702 0
vertex -70.71068 70.71068 60
vertex -70.71068 70.71068 0
endloop
endfacet
facet normal -0.6343930596531014 0.7730106376137242 0
outer loop
vertex -70.71068 70.71068 0
vertex -70.71068 70.71068 60
vertex -55.55702 83.14696 60
endloop
endfacet
facet normal -0.6343930596531014 0.7730106376137242 0
outer loop
vertex -70.71068 70.71068 0
vertex -55.55702 83.14696 60
vertex -55.55702 83.14696 0
endloop
endfacet
facet normal -0.47139665803388064 0.8819213064636143 0
outer loop
vertex -55.55702 83.14696 0
vertex -55.55702 83.14696 60
vertex -38.26834 92.38795 60
endloop
endfacet
facet normal -0.47139665803388064 0.8819213064636143 0
outer loop
vertex -55.55702 83.14696 0
vertex -38.26834 92.38795 60
vertex -38.26834 92.38795 0
endloop
endfacet
facet normal -0.290284935331492 0.9569402574453597 0
outer loop
vertex -38.26834 92.38795 0
vertex -38.26834 92.38795 60
vertex -19.50903 98.07853 60
endloop
endfacet
facet normal -0.290284935331492 0.9569402574453597 0
outer loop
vertex -38.26834 92.38795 0
vertex -19.50903 98.07853 60
vertex -19.50903 98.07853 0
endloop
endfacet
facet normal -0.09801705227898251 0.995184735344418 0
outer loop
vertex -19.50903 98.07853 0
vertex -19.50903 98.07853 60
vertex 0 100 60
endloop
endfacet
facet normal -0.09801705227898251 0.995184735344418 0
outer loop
vertex -19.50903 98.07853 0
vertex 0 100 60
vertex 0 100 0
endloop
endfacet
facet normal 0.09801705227898251 0.995184735344418 0
outer loop
vertex 0 100 0
vertex 0 100 60
vertex 19.50903 98.07853 60
endloop
endfacet
facet normal 0.09801705227898251 0.995184735344418 0
outer loop
vertex 0 100 0
vertex 19.50903 98.07853 60
vertex 19.50903 98.07853 0
endloop
endfacet
facet normal 0.290284935331492 0.9569402574453597 0
outer loop
vertex 19.50903 98.07853 0
vertex 19.50903 98.07853 60
vertex 38.26834 92.38795 60
endloop
endfacet
facet normal 0.290284935331492 0.9569402574453597 0
outer loop
vertex 19.50903 98.07853 0
vertex 38.26834 92.38795 60
vertex 38.26834 92.38795 0
endloop
endfacet
facet normal 0.47139665803388064 0.8819213064636143 0
outer loop
vertex 38.26834 92.38795 0
vertex 38.26834 92.38795 60
vertex 55.55702 83.14696 60
endloop
endfacet
facet normal 0.47139665803388064 0.8819213064636143 0
outer loop
vertex 38.26834 92.38795 0
vertex 55.55702 83.14696 60
vertex 55.55702 83.14696 0
endloop
endfacet
facet normal 0.6343930596531014 0.7730106376137242 0
outer loop
vertex 55.55702 83.14696 0
vertex 55.55702 83.14696 60
vertex 70.71068 70.71068 60
endloop
endfacet
facet normal 0.6343930596531014 0.7730106376137242 0
outer loop
vertex 55.55702 83.14696 0
vertex 70.71068 70.71068 60
vertex 70.71068 70.71068 0
endloop
endfacet
facet normal 0.7730106376137242 0.6343930596531014 0
outer loop
vertex 70.71068 70.71068 0
vertex 70.71068 70.71068 60
vertex 83.14696 55.55702 60
endloop
endfacet
facet normal 0.7730106376137242 0.6343930596531014 0
outer loop
vertex 70.71068 70.71068 0
vertex 83.14696 55.55702 60
vertex 83.14696 55.55702 0
endloop
endfacet
facet normal 0.8819213064636143 0.47139665803388064 0
outer loop
vertex 83.14696 55.55702 0
vertex 83.14696 55.55702 60
vertex 92.38795 38.26834 60
endloop
endfacet
facet normal 0.8819213064636143 0.47139665803388064 0
outer loop
vertex 83.14696 55.55702 0
vertex 92.38795 38.26834 60
vertex 92.38795 38.26834 0
endloop
endfacet
facet normal 0.9569402574453597 0.290284935331492 0
outer loop
vertex 92.38795 38.26834 0
vertex 92.38795 38.26834 60
vertex 98.07853 19.50903 60
endloop
endfacet
facet normal 0.9569402574453597 0.290284935331492 0
outer loop
vertex 92.38795 38.26834 0
vertex 98.07853 19.50903 60
vertex 98.07853 19.50903 0
endloop
endfacet
facet normal 0.995184735344418 0.09801705227898251 0
outer loop
vertex 98.07853 19.50903 0
vertex 98.07853 19.50903 60
vertex 100 0 60
endloop
endfacet
facet normal 0.995184735344418 0.09801705227898251 0
outer loop
vertex 98.07853 19.50903 0
vertex 100 0 60
vertex 100 0 0
endloop
endfacet
facet normal 0.995184735344418 -0.09801705227898251 0
outer loop
vertex 100 0 0
vertex 100 0 60
vertex 98.07853 -19.50903 60
endloop
endfacet
facet normal 0.995184735344418 -0.09801705227898251 0
outer loop
vertex 100 0 0
vertex 98.07853 -19.50903 60
vertex 98.07853 -19.50903 0
endloop
endfacet
endsolid JSxCAD
