<?xml version="1.0" encoding="UTF-8"?>
<!-- Generated by jsxcad -->
<!DOCTYPE svg PUBLIC "-//W3C//DTD SVG 1.1 Tiny//EN" "http://www.w3.org/Graphics/SVG/1.1/DTD/svg11-tiny.dtd">
<svg viewBox="-250 -250 500 500" width="500" height="500" xmlns="http://www.w3.org/2000/svg"><path d="M140.36696130811583,-132.1755398500475L189.90652004972637,15.55834254842281L182.5449388392953,-7.065697332532143z" style="fill:rgb(246,167,149)"/><path d="M-175.61582568285348,-64.01187443626517L-181.0983442728183,49.87007641205253L-158.37272017275527,-87.03540133337528zM-158.37272017275527,-87.03540133337528L-162.95945876003037,66.18307010222007L-137.24881800832586,-108.5191949148899zM-188.2859171931789,-40.043789042264805L-192.52723688391106,30.081134548741964L-175.61582568285348,-64.01187443626517zM-137.24881800832586,-108.5191949148899L-138.4149189529164,78.00509546047448L-112.94210736094817,-127.94942749173576zM-197.29459632902692,7.8532856091932945L-188.2859171931789,-40.043789042264805L-195.71512015454712,-15.822769735611217zM-112.94210736094817,-127.94942749173576L-108.1932560627827,84.43785820775636L-86.15049173726145,-144.87711694660976zM-86.15049173726145,-144.87711694660976L-73.48123278497528,84.8117587538684L-57.57571485037104,-158.90319524108054z" style="fill:rgb(83,212,212)"/><path d="M-85.59599462874655,174.12976394543077L-181.0983442728183,49.87007641205253L-103.50129420943114,157.16927284316205z" style="fill:rgb(34,46,160)"/><path d="M-57.57571485037104,-158.90319524108054L-35.89811522889162,78.79724556555863L-27.93374756139875,-169.66723086981892zM-188.2859171931789,-40.043789042264805L-197.29459632902692,7.8532856091932945L-192.52723688391106,30.081134548741964zM-27.93374756139875,-169.66723086981892L2.6027365041875723,66.49035824106524L2.030937672806434,-176.84138877754z" style="fill:rgb(83,212,212)"/><path d="M189.90652004972637,15.55834254842281L147.68483252199394,-84.78893065817677L191.00029537684327,40.830836788198724z" style="fill:rgb(246,149,167)"/><path d="M2.030937672806434,-176.84138877754L39.90081587525716,48.44766900156434L31.53006199712875,-180.1309942033033zM-175.61582568285348,-64.01187443626517L-192.52723688391106,30.081134548741964L-181.0983442728183,49.87007641205253z" style="fill:rgb(83,212,212)"/><path d="M-62.18582904731403,186.90352087448014L-162.95945876003037,66.18307010222007L-85.59599462874655,174.12976394543077z" style="fill:rgb(51,38,177)"/><path d="M31.53006199712875,-180.1309942033033L73.91885578181906,25.654674321962403L59.71828666098218,-179.28303005204205z" style="fill:rgb(83,212,212)"/><path d="M189.90652004972637,15.55834254842281L140.36696130811583,-132.1755398500475L147.521392475604,-110.0694805157726z" style="fill:rgb(246,167,149)"/><path d="M-158.37272017275527,-87.03540133337528L-181.0983442728183,49.87007641205253L-162.95945876003037,66.18307010222007zM59.71828666098218,-179.28303005204205L102.83563187691543,-0.5714138236969707L85.68566798851587,-174.10381429920236z" style="fill:rgb(83,212,212)"/><path d="M191.00029537684327,40.830836788198724L140.3161357846899,-57.271769782771834L185.35233474729742,67.77486508931375z" style="fill:rgb(242,130,183)"/><path d="M85.68566798851587,-174.10381429920236L125.2574002661809,-28.725175680516248L108.46042056170319,-164.48657439444878z" style="fill:rgb(83,212,212)"/><path d="M-181.0983442728183,49.87007641205253L-85.59599462874655,174.12976394543077L-162.95945876003037,66.18307010222007z" style="fill:rgb(34,46,160)"/><path d="M-137.24881800832586,-108.5191949148899L-162.95945876003037,66.18307010222007L-138.4149189529164,78.00509546047448z" style="fill:rgb(83,212,212)"/><path d="M147.68483252199394,-84.78893065817677L189.90652004972637,15.55834254842281L147.521392475604,-110.0694805157726z" style="fill:rgb(246,149,167)"/><path d="M108.46042056170319,-164.48657439444878L140.3161357846899,-57.271769782771834L127.02725543063767,-150.44849154516393z" style="fill:rgb(83,212,212)"/><path d="M-108.1932560627827,84.43785820775636L-62.18582904731403,186.90352087448014L-34.027905693630196,194.6176699082417z" style="fill:rgb(71,33,192)"/><path d="M185.35233474729742,67.77486508931375L125.2574002661809,-28.725175680516248L172.82133325913603,95.19355445557854z" style="fill:rgb(233,112,197)"/><path d="M127.02725543063767,-150.44849154516393L147.68483252199394,-84.78893065817677L140.36696130811583,-132.1755398500475zM-112.94210736094817,-127.94942749173576L-138.4149189529164,78.00509546047448L-108.1932560627827,84.43785820775636z" style="fill:rgb(83,212,212)"/><path d="M-73.48123278497528,84.8117587538684L-34.027905693630196,194.6176699082417L-2.255409486609977,196.60676900208566z" style="fill:rgb(92,32,204)"/><path d="M-162.95945876003037,66.18307010222007L-62.18582904731403,186.90352087448014L-138.4149189529164,78.00509546047448z" style="fill:rgb(51,38,177)"/><path d="M140.3161357846899,-57.271769782771834L191.00029537684327,40.830836788198724L147.68483252199394,-84.78893065817677z" style="fill:rgb(242,130,183)"/><path d="M-86.15049173726145,-144.87711694660976L-108.1932560627827,84.43785820775636L-73.48123278497528,84.8117587538684z" style="fill:rgb(83,212,212)"/><path d="M172.82133325913603,95.19355445557854L102.83563187691543,-0.5714138236969707L153.67869161739955,121.73061407424476z" style="fill:rgb(220,94,208)"/><path d="M140.36696130811583,-132.1755398500475L147.68483252199394,-84.78893065817677L147.521392475604,-110.0694805157726z" style="fill:rgb(83,212,212)"/><path d="M-35.89811522889162,78.79724556555863L-2.255409486609977,196.60676900208566L31.65802680738747,192.51033795211225z" style="fill:rgb(115,34,214)"/><path d="M-57.57571485037104,-158.90319524108054L-73.48123278497528,84.8117587538684L-35.89811522889162,78.79724556555863z" style="fill:rgb(83,212,212)"/><path d="M153.67869161739955,121.73061407424476L73.91885578181906,25.654674321962403L128.65160184655826,145.96908932299294z" style="fill:rgb(203,77,216)"/><path d="M127.02725543063767,-150.44849154516393L140.3161357846899,-57.271769782771834L147.68483252199394,-84.78893065817677z" style="fill:rgb(83,212,212)"/><path d="M-62.18582904731403,186.90352087448014L-108.1932560627827,84.43785820775636L-138.4149189529164,78.00509546047448z" style="fill:rgb(71,33,192)"/><path d="M73.91885578181906,25.654674321962403L98.91008755220591,166.55829643980226L128.65160184655826,145.96908932299294z" style="fill:rgb(183,62,221)"/><path d="M2.6027365041875723,66.49035824106524L31.65802680738747,192.51033795211225L65.98986834377088,182.34889750009776z" style="fill:rgb(139,40,220)"/><path d="M39.90081587525716,48.44766900156434L65.98986834377088,182.34889750009776L98.91008755220591,166.55829643980226z" style="fill:rgb(162,50,222)"/><path d="M108.46042056170319,-164.48657439444878L125.2574002661809,-28.725175680516248L140.3161357846899,-57.271769782771834zM-27.93374756139875,-169.66723086981892L-35.89811522889162,78.79724556555863L2.6027365041875723,66.49035824106524z" style="fill:rgb(83,212,212)"/><path d="M125.2574002661809,-28.725175680516248L185.35233474729742,67.77486508931375L140.3161357846899,-57.271769782771834z" style="fill:rgb(233,112,197)"/><path d="M85.68566798851587,-174.10381429920236L102.83563187691543,-0.5714138236969707L125.2574002661809,-28.725175680516248zM2.030937672806434,-176.84138877754L2.6027365041875723,66.49035824106524L39.90081587525716,48.44766900156434zM59.71828666098218,-179.28303005204205L73.91885578181906,25.654674321962403L102.83563187691543,-0.5714138236969707zM31.53006199712875,-180.1309942033033L39.90081587525716,48.44766900156434L73.91885578181906,25.654674321962403z" style="fill:rgb(83,212,212)"/><path d="M-34.027905693630196,194.6176699082417L-73.48123278497528,84.8117587538684L-108.1932560627827,84.43785820775636z" style="fill:rgb(92,32,204)"/><path d="M102.83563187691543,-0.5714138236969707L172.82133325913603,95.19355445557854L125.2574002661809,-28.725175680516248z" style="fill:rgb(220,94,208)"/><path d="M-2.255409486609977,196.60676900208566L-35.89811522889162,78.79724556555863L-73.48123278497528,84.8117587538684z" style="fill:rgb(115,34,214)"/><path d="M73.91885578181906,25.654674321962403L153.67869161739955,121.73061407424476L102.83563187691543,-0.5714138236969707z" style="fill:rgb(203,77,216)"/><path d="M31.65802680738747,192.51033795211225L2.6027365041875723,66.49035824106524L-35.89811522889162,78.79724556555863z" style="fill:rgb(139,40,220)"/><path d="M98.91008755220591,166.55829643980226L73.91885578181906,25.654674321962403L39.90081587525716,48.44766900156434z" style="fill:rgb(183,62,221)"/><path d="M65.98986834377088,182.34889750009776L39.90081587525716,48.44766900156434L2.6027365041875723,66.49035824106524z" style="fill:rgb(162,50,222)"/></svg>
