<?xml version="1.0" encoding="UTF-8"?>
<!-- Generated by jsxcad -->
<!DOCTYPE svg PUBLIC "-//W3C//DTD SVG 1.1 Tiny//EN" "http://www.w3.org/Graphics/SVG/1.1/DTD/svg11-tiny.dtd">
<svg viewBox="-250 -250 500 500" width="500" height="500" xmlns="http://www.w3.org/2000/svg"><path d="M38.723616996477965,74.29406085782001L-18.89426755449932,-34.585792960695024L35.354370874896794,70.60911013798409z" style="fill:rgb(23,55,145)"/><path d="M65.33531361120771,58.33594566225467L13.503073965797228,-43.24191643409212L64.9551792842549,63.568144046253494z" style="fill:rgb(246,148,167)"/><path d="M44.077038641330574,76.09587827098008L-15.446548284835702,-31.058932186754525L38.723616996477965,74.29406085782001z" style="fill:rgb(57,36,182)"/><path d="M64.9551792842549,63.568144046253494L9.980923925862,-37.82474348659709L61.947281471185235,68.79548924124144z" style="fill:rgb(231,109,199)"/><path d="M-2.7841822256603685,-30.293289381673684L44.077038641330574,76.09587827098008L50.488862128468895,75.6739535422236z" style="fill:rgb(102,32,209)"/><path d="M61.947281471185235,68.79548924124144L4.21035334496501,-33.23284068689976L56.82287515304976,73.08766641704341z" style="fill:rgb(197,72,218)"/><path d="M4.21035334496501,-33.23284068689976L50.488862128468895,75.6739535422236L56.82287515304976,73.08766641704341z" style="fill:rgb(152,45,222)"/><path d="M-18.89426755449932,-34.585792960695024L38.723616996477965,74.29406085782001L-15.446548284835702,-31.058932186754525z" style="fill:rgb(23,55,145)"/><path d="M13.503073965797228,-43.24191643409212L65.33531361120771,58.33594566225467L14.1769628774647,-48.51871344580068z" style="fill:rgb(246,148,167)"/><path d="M-15.446548284835702,-31.058932186754525L44.077038641330574,76.09587827098008L-9.748649797831233,-29.529123291924797z" style="fill:rgb(57,36,182)"/><path d="M9.980923925862,-37.82474348659709L64.9551792842549,63.568144046253494L13.503073965797228,-43.24191643409212z" style="fill:rgb(231,109,199)"/><path d="M44.077038641330574,76.09587827098008L-2.7841822256603685,-30.293289381673684L-9.748649797831233,-29.529123291924797z" style="fill:rgb(102,32,209)"/><path d="M4.21035334496501,-33.23284068689976L61.947281471185235,68.79548924124144L9.980923925862,-37.82474348659709z" style="fill:rgb(197,72,218)"/><path d="M50.488862128468895,75.6739535422236L4.21035334496501,-33.23284068689976L-2.7841822256603685,-30.293289381673684z" style="fill:rgb(152,45,222)"/><path d="M-17.28541556191755,-44.86138620167177L-15.446548284835702,-31.058932186754525L-12.574195875110712,-49.84561956873136zM-12.574195875110712,-49.84561956873136L-9.748649797831233,-29.529123291924797L-6.200326055926887,-53.59418775705921zM-18.89426755449932,-34.585792960695024L-17.28541556191755,-44.86138620167177L-19.529477895192542,-39.47051040058073zM-6.200326055926887,-53.59418775705921L-2.7841822256603685,-30.293289381673684L0.7715305660034438,-55.48391747068984z" style="fill:rgb(83,212,212)"/><path d="M-45.18647535334595,63.05804465358726L-23.228873803251464,-159.66465645032017L-35.03431736474689,-185.01964563808693z" style="fill:rgb(247,158,158)"/><path d="M0.7715305660034438,-55.48391747068984L4.21035334496501,-33.23284068689976L7.1764548527309175,-55.18916811024495zM-17.28541556191755,-44.86138620167177L-18.89426755449932,-34.585792960695024L-15.446548284835702,-31.058932186754525zM7.1764548527309175,-55.18916811024495L9.980923925862,-37.82474348659709L11.924413400936198,-52.73722514617788zM-12.574195875110712,-49.84561956873136L-15.446548284835702,-31.058932186754525L-9.748649797831233,-29.529123291924797zM-65.61824586619875,-175.66824038983037L-45.18647535334595,63.05804465358726L-35.03431736474689,-185.01964563808693zM11.924413400936198,-52.73722514617788L13.503073965797228,-43.24191643409212L14.1769628774647,-48.51871344580068zM-6.200326055926887,-53.59418775705921L-9.748649797831233,-29.529123291924797L-2.7841822256603685,-30.293289381673684zM0.7715305660034438,-55.48391747068984L-2.7841822256603685,-30.293289381673684L4.21035334496501,-33.23284068689976zM11.924413400936198,-52.73722514617788L9.980923925862,-37.82474348659709L13.503073965797228,-43.24191643409212zM7.1764548527309175,-55.18916811024495L4.21035334496501,-33.23284068689976L9.980923925862,-37.82474348659709z" style="fill:rgb(83,212,212)"/><path d="M-23.228873803251464,-159.66465645032017L-45.18647535334595,63.05804465358726L-29.781681055621785,88.99076187754781z" style="fill:rgb(247,158,158)"/><path d="M-45.18647535334595,63.05804465358726L-65.61824586619875,-175.66824038983037L-84.44637204086337,72.65861670918252z" style="fill:rgb(83,212,212)"/><path d="M-45.18647535334595,63.05804465358726L-68.15819080628994,98.09155272503669L-29.781681055621785,88.99076187754781zM-68.15819080628994,98.09155272503669L-45.18647535334595,63.05804465358726L-84.44637204086337,72.65861670918252z" style="fill:rgb(127,37,217)"/></svg>
