<?xml version="1.0" encoding="UTF-8"?>
<!-- Generated by jsxcad -->
<!DOCTYPE svg PUBLIC "-//W3C//DTD SVG 1.1 Tiny//EN" "http://www.w3.org/Graphics/SVG/1.1/DTD/svg11-tiny.dtd">
<svg viewBox="-250 -250 500 500" width="500" height="500" xmlns="http://www.w3.org/2000/svg"><path d="M-49.14904345915822,-40.52017870240077L-60.731436519182274,103.89748590599385L-12.576551533431608,27.10288261721467z" style="fill:rgb(231,109,198)"/><path d="M75.28711495131043,21.080154990608943L83.9576969724149,-69.95414003141792L70.23716514348422,-50.16763701572249z" style="fill:rgb(11,165,165)"/><path d="M-49.14904345915822,-40.52017870240077L-127.45822025813638,-51.98283725566804L-181.80764023513348,21.70645706988894z" style="fill:rgb(83,212,212)"/><path d="M-102.59947235628857,38.11705210419957L-137.20563392042524,85.06985520969856L-60.731436519182274,103.89748590599385zM-102.59947235628857,38.11705210419957L-181.80764023513348,21.70645706988894L-137.20563392042524,85.06985520969856z" style="fill:rgb(68,33,190)"/><path d="M186.27354899354532,16.157137092863085L173.72286974495697,-55.079518020453264L149.23652117967166,-129.18809931569047z" style="fill:rgb(247,158,158)"/><path d="M75.28711495131043,21.080154990608943L90.11155929187521,1.2293339591600536L83.9576969724149,-69.95414003141792z" style="fill:rgb(11,165,165)"/><path d="M-49.14904345915822,-40.52017870240077L-102.59947235628857,38.11705210419957L-60.731436519182274,103.89748590599385z" style="fill:rgb(231,109,198)"/><path d="M90.11158032333655,1.2293282552797402L75.2871239531125,21.080169830564106L84.22641462095527,40.87777152285061zM90.11158032333655,1.2293282552797402L84.22641462095527,40.87777152285061L186.27354899354532,16.157137092863085z" style="fill:rgb(127,37,217)"/><path d="M-49.14904345915822,-40.52017870240077L-181.80764023513348,21.70645706988894L-102.59947235628857,38.11705210419957zM48.51192126487749,-101.08323133058266L160.80326543249808,-58.50804862442912L149.23652117967166,-129.18809931569047z" style="fill:rgb(83,212,212)"/><path d="M90.11158032333655,1.2293282552797402L186.27354899354532,16.157137092863085L173.98578817966214,-19.863975146369324z" style="fill:rgb(127,37,217)"/><path d="M186.27354899354532,16.157137092863085L149.23652117967166,-129.18809931569047L160.80326543249808,-58.50804862442912z" style="fill:rgb(247,158,158)"/><path d="M52.174813378563805,-30.106015609720444L62.023805384811915,-8.293723819951643L90.11158032333655,1.2293282552797402z" style="fill:rgb(127,37,217)"/><path d="M48.51192126487749,-101.08323133058266L52.174813378563805,-30.106015609720444L160.80326543249808,-58.50804862442912z" style="fill:rgb(83,212,212)"/><path d="M52.174813378563805,-30.106015609720444L90.11158032333655,1.2293282552797402L173.98578817966214,-19.863975146369324zM52.174813378563805,-30.106015609720444L173.98578817966214,-19.863975146369324L160.80326543249808,-58.50804862442912z" style="fill:rgb(127,37,217)"/></svg>
