solid JSxCAD
facet normal 0 0 1
outer loop
vertex 100 0 1000
vertex 98.07853 19.50903 1000
vertex 92.38795 38.26834 1000
endloop
endfacet
facet normal 0 0 1
outer loop
vertex 100 0 1000
vertex 92.38795 38.26834 1000
vertex 83.14696 55.55702 1000
endloop
endfacet
facet normal 0 0 1
outer loop
vertex 100 0 1000
vertex 83.14696 55.55702 1000
vertex 70.71068 70.71068 1000
endloop
endfacet
facet normal 0 0 1
outer loop
vertex 100 0 1000
vertex 70.71068 70.71068 1000
vertex 55.55702 83.14696 1000
endloop
endfacet
facet normal 0 0 1
outer loop
vertex 100 0 1000
vertex 55.55702 83.14696 1000
vertex 38.26834 92.38795 1000
endloop
endfacet
facet normal 0 0 1
outer loop
vertex 100 0 1000
vertex 38.26834 92.38795 1000
vertex 19.50903 98.07853 1000
endloop
endfacet
facet normal 0 0 1
outer loop
vertex 100 0 1000
vertex 19.50903 98.07853 1000
vertex 0 100 1000
endloop
endfacet
facet normal 0 0 1
outer loop
vertex 100 0 1000
vertex 0 100 1000
vertex -19.50903 98.07853 1000
endloop
endfacet
facet normal 0 0 1
outer loop
vertex 100 0 1000
vertex -19.50903 98.07853 1000
vertex -38.26834 92.38795 1000
endloop
endfacet
facet normal 0 0 1
outer loop
vertex 100 0 1000
vertex -38.26834 92.38795 1000
vertex -55.55702 83.14696 1000
endloop
endfacet
facet normal 0 0 1
outer loop
vertex 100 0 1000
vertex -55.55702 83.14696 1000
vertex -70.71068 70.71068 1000
endloop
endfacet
facet normal 0 0 1
outer loop
vertex 100 0 1000
vertex -70.71068 70.71068 1000
vertex -83.14696 55.55702 1000
endloop
endfacet
facet normal 0 0 1
outer loop
vertex 100 0 1000
vertex -83.14696 55.55702 1000
vertex -92.38795 38.26834 1000
endloop
endfacet
facet normal 0 0 1
outer loop
vertex 100 0 1000
vertex -92.38795 38.26834 1000
vertex -98.07853 19.50903 1000
endloop
endfacet
facet normal 0 0 1
outer loop
vertex 100 0 1000
vertex -98.07853 19.50903 1000
vertex -100 0 1000
endloop
endfacet
facet normal 0 0 1
outer loop
vertex 100 0 1000
vertex -100 0 1000
vertex -98.07853 -19.50903 1000
endloop
endfacet
facet normal 0 0 1
outer loop
vertex 100 0 1000
vertex -98.07853 -19.50903 1000
vertex -92.38795 -38.26834 1000
endloop
endfacet
facet normal 0 0 1
outer loop
vertex 100 0 1000
vertex -92.38795 -38.26834 1000
vertex -83.14696 -55.55702 1000
endloop
endfacet
facet normal 0 0 1
outer loop
vertex 100 0 1000
vertex -83.14696 -55.55702 1000
vertex -70.71068 -70.71068 1000
endloop
endfacet
facet normal 0 0 1
outer loop
vertex 100 0 1000
vertex -70.71068 -70.71068 1000
vertex -55.55702 -83.14696 1000
endloop
endfacet
facet normal 0 0 1
outer loop
vertex 100 0 1000
vertex -55.55702 -83.14696 1000
vertex -38.26834 -92.38795 1000
endloop
endfacet
facet normal 0 0 1
outer loop
vertex 100 0 1000
vertex -38.26834 -92.38795 1000
vertex -19.50903 -98.07853 1000
endloop
endfacet
facet normal 0 0 1
outer loop
vertex 100 0 1000
vertex -19.50903 -98.07853 1000
vertex 0 -100 1000
endloop
endfacet
facet normal 0 0 1
outer loop
vertex 100 0 1000
vertex 0 -100 1000
vertex 19.50903 -98.07853 1000
endloop
endfacet
facet normal 0 0 1
outer loop
vertex 100 0 1000
vertex 19.50903 -98.07853 1000
vertex 38.26834 -92.38795 1000
endloop
endfacet
facet normal 0 0 1
outer loop
vertex 100 0 1000
vertex 38.26834 -92.38795 1000
vertex 55.55702 -83.14696 1000
endloop
endfacet
facet normal 0 0 1
outer loop
vertex 100 0 1000
vertex 55.55702 -83.14696 1000
vertex 70.71068 -70.71068 1000
endloop
endfacet
facet normal 0 0 1
outer loop
vertex 100 0 1000
vertex 70.71068 -70.71068 1000
vertex 83.14696 -55.55702 1000
endloop
endfacet
facet normal 0 0 1
outer loop
vertex 100 0 1000
vertex 83.14696 -55.55702 1000
vertex 92.38795 -38.26834 1000
endloop
endfacet
facet normal 0 0 1
outer loop
vertex 100 0 1000
vertex 92.38795 -38.26834 1000
vertex 98.07853 -19.50903 1000
endloop
endfacet
facet normal 0 0 -1
outer loop
vertex 98.07853 -19.50903 0
vertex 92.38795 -38.26834 0
vertex 83.14696 -55.55702 0
endloop
endfacet
facet normal 0 0 -1
outer loop
vertex 98.07853 -19.50903 0
vertex 83.14696 -55.55702 0
vertex 70.71068 -70.71068 0
endloop
endfacet
facet normal 0 0 -1
outer loop
vertex 98.07853 -19.50903 0
vertex 70.71068 -70.71068 0
vertex 55.55702 -83.14696 0
endloop
endfacet
facet normal 0 0 -1
outer loop
vertex 98.07853 -19.50903 0
vertex 55.55702 -83.14696 0
vertex 38.26834 -92.38795 0
endloop
endfacet
facet normal 0 0 -1
outer loop
vertex 98.07853 -19.50903 0
vertex 38.26834 -92.38795 0
vertex 19.50903 -98.07853 0
endloop
endfacet
facet normal 0 0 -1
outer loop
vertex 98.07853 -19.50903 0
vertex 19.50903 -98.07853 0
vertex 0 -100 0
endloop
endfacet
facet normal 0 0 -1
outer loop
vertex 98.07853 -19.50903 0
vertex 0 -100 0
vertex -19.50903 -98.07853 0
endloop
endfacet
facet normal 0 0 -1
outer loop
vertex 98.07853 -19.50903 0
vertex -19.50903 -98.07853 0
vertex -38.26834 -92.38795 0
endloop
endfacet
facet normal 0 0 -1
outer loop
vertex 98.07853 -19.50903 0
vertex -38.26834 -92.38795 0
vertex -55.55702 -83.14696 0
endloop
endfacet
facet normal 0 0 -1
outer loop
vertex 98.07853 -19.50903 0
vertex -55.55702 -83.14696 0
vertex -70.71068 -70.71068 0
endloop
endfacet
facet normal 0 0 -1
outer loop
vertex 98.07853 -19.50903 0
vertex -70.71068 -70.71068 0
vertex -83.14696 -55.55702 0
endloop
endfacet
facet normal 0 0 -1
outer loop
vertex 98.07853 -19.50903 0
vertex -83.14696 -55.55702 0
vertex -92.38795 -38.26834 0
endloop
endfacet
facet normal 0 0 -1
outer loop
vertex 98.07853 -19.50903 0
vertex -92.38795 -38.26834 0
vertex -98.07853 -19.50903 0
endloop
endfacet
facet normal 0 0 -1
outer loop
vertex 98.07853 -19.50903 0
vertex -98.07853 -19.50903 0
vertex -100 0 0
endloop
endfacet
facet normal 0 0 -1
outer loop
vertex 98.07853 -19.50903 0
vertex -100 0 0
vertex -98.07853 19.50903 0
endloop
endfacet
facet normal 0 0 -1
outer loop
vertex 98.07853 -19.50903 0
vertex -98.07853 19.50903 0
vertex -92.38795 38.26834 0
endloop
endfacet
facet normal 0 0 -1
outer loop
vertex 98.07853 -19.50903 0
vertex -92.38795 38.26834 0
vertex -83.14696 55.55702 0
endloop
endfacet
facet normal 0 0 -1
outer loop
vertex 98.07853 -19.50903 0
vertex -83.14696 55.55702 0
vertex -70.71068 70.71068 0
endloop
endfacet
facet normal 0 0 -1
outer loop
vertex 98.07853 -19.50903 0
vertex -70.71068 70.71068 0
vertex -55.55702 83.14696 0
endloop
endfacet
facet normal 0 0 -1
outer loop
vertex 98.07853 -19.50903 0
vertex -55.55702 83.14696 0
vertex -38.26834 92.38795 0
endloop
endfacet
facet normal 0 0 -1
outer loop
vertex 98.07853 -19.50903 0
vertex -38.26834 92.38795 0
vertex -19.50903 98.07853 0
endloop
endfacet
facet normal 0 0 -1
outer loop
vertex 98.07853 -19.50903 0
vertex -19.50903 98.07853 0
vertex 0 100 0
endloop
endfacet
facet normal 0 0 -1
outer loop
vertex 98.07853 -19.50903 0
vertex 0 100 0
vertex 19.50903 98.07853 0
endloop
endfacet
facet normal 0 0 -1
outer loop
vertex 98.07853 -19.50903 0
vertex 19.50903 98.07853 0
vertex 38.26834 92.38795 0
endloop
endfacet
facet normal 0 0 -1
outer loop
vertex 98.07853 -19.50903 0
vertex 38.26834 92.38795 0
vertex 55.55702 83.14696 0
endloop
endfacet
facet normal 0 0 -1
outer loop
vertex 98.07853 -19.50903 0
vertex 55.55702 83.14696 0
vertex 70.71068 70.71068 0
endloop
endfacet
facet normal 0 0 -1
outer loop
vertex 98.07853 -19.50903 0
vertex 70.71068 70.71068 0
vertex 83.14696 55.55702 0
endloop
endfacet
facet normal 0 0 -1
outer loop
vertex 98.07853 -19.50903 0
vertex 83.14696 55.55702 0
vertex 92.38795 38.26834 0
endloop
endfacet
facet normal 0 0 -1
outer loop
vertex 98.07853 -19.50903 0
vertex 92.38795 38.26834 0
vertex 98.07853 19.50903 0
endloop
endfacet
facet normal 0 0 -1
outer loop
vertex 98.07853 -19.50903 0
vertex 98.07853 19.50903 0
vertex 100 0 0
endloop
endfacet
facet normal 0.9569402574453598 -0.2902849353314921 0
outer loop
vertex 98.07853 -19.50903 0
vertex 98.07853 -19.50903 1000
vertex 92.38795 -38.26834 1000
endloop
endfacet
facet normal 0.9569402574453598 -0.2902849353314921 0
outer loop
vertex 98.07853 -19.50903 0
vertex 92.38795 -38.26834 1000
vertex 92.38795 -38.26834 0
endloop
endfacet
facet normal 0.8819213064636144 -0.4713966580338807 0
outer loop
vertex 92.38795 -38.26834 0
vertex 92.38795 -38.26834 1000
vertex 83.14696 -55.55702 1000
endloop
endfacet
facet normal 0.8819213064636144 -0.4713966580338807 0
outer loop
vertex 92.38795 -38.26834 0
vertex 83.14696 -55.55702 1000
vertex 83.14696 -55.55702 0
endloop
endfacet
facet normal 0.7730106376137242 -0.6343930596531016 0
outer loop
vertex 83.14696 -55.55702 0
vertex 83.14696 -55.55702 1000
vertex 70.71068 -70.71068 1000
endloop
endfacet
facet normal 0.7730106376137242 -0.6343930596531016 0
outer loop
vertex 83.14696 -55.55702 0
vertex 70.71068 -70.71068 1000
vertex 70.71068 -70.71068 0
endloop
endfacet
facet normal 0.6343930596531016 -0.7730106376137242 0
outer loop
vertex 70.71068 -70.71068 0
vertex 70.71068 -70.71068 1000
vertex 55.55702 -83.14696 1000
endloop
endfacet
facet normal 0.6343930596531016 -0.7730106376137242 0
outer loop
vertex 70.71068 -70.71068 0
vertex 55.55702 -83.14696 1000
vertex 55.55702 -83.14696 0
endloop
endfacet
facet normal 0.4713966580338807 -0.8819213064636144 0
outer loop
vertex 55.55702 -83.14696 0
vertex 55.55702 -83.14696 1000
vertex 38.26834 -92.38795 1000
endloop
endfacet
facet normal 0.4713966580338807 -0.8819213064636144 0
outer loop
vertex 55.55702 -83.14696 0
vertex 38.26834 -92.38795 1000
vertex 38.26834 -92.38795 0
endloop
endfacet
facet normal 0.2902849353314921 -0.9569402574453598 0
outer loop
vertex 38.26834 -92.38795 0
vertex 38.26834 -92.38795 1000
vertex 19.50903 -98.07853 1000
endloop
endfacet
facet normal 0.2902849353314921 -0.9569402574453598 0
outer loop
vertex 38.26834 -92.38795 0
vertex 19.50903 -98.07853 1000
vertex 19.50903 -98.07853 0
endloop
endfacet
facet normal 0.09801705227898252 -0.995184735344418 0
outer loop
vertex 19.50903 -98.07853 0
vertex 19.50903 -98.07853 1000
vertex 0 -100 1000
endloop
endfacet
facet normal 0.09801705227898252 -0.995184735344418 0
outer loop
vertex 19.50903 -98.07853 0
vertex 0 -100 1000
vertex 0 -100 0
endloop
endfacet
facet normal -0.09801705227898252 -0.995184735344418 0
outer loop
vertex 0 -100 0
vertex 0 -100 1000
vertex -19.50903 -98.07853 1000
endloop
endfacet
facet normal -0.09801705227898252 -0.995184735344418 0
outer loop
vertex 0 -100 0
vertex -19.50903 -98.07853 1000
vertex -19.50903 -98.07853 0
endloop
endfacet
facet normal -0.2902849353314921 -0.9569402574453598 0
outer loop
vertex -19.50903 -98.07853 0
vertex -19.50903 -98.07853 1000
vertex -38.26834 -92.38795 1000
endloop
endfacet
facet normal -0.2902849353314921 -0.9569402574453598 0
outer loop
vertex -19.50903 -98.07853 0
vertex -38.26834 -92.38795 1000
vertex -38.26834 -92.38795 0
endloop
endfacet
facet normal -0.4713966580338807 -0.8819213064636144 0
outer loop
vertex -38.26834 -92.38795 0
vertex -38.26834 -92.38795 1000
vertex -55.55702 -83.14696 1000
endloop
endfacet
facet normal -0.4713966580338807 -0.8819213064636144 0
outer loop
vertex -38.26834 -92.38795 0
vertex -55.55702 -83.14696 1000
vertex -55.55702 -83.14696 0
endloop
endfacet
facet normal -0.6343930596531016 -0.7730106376137242 0
outer loop
vertex -55.55702 -83.14696 0
vertex -55.55702 -83.14696 1000
vertex -70.71068 -70.71068 1000
endloop
endfacet
facet normal -0.6343930596531016 -0.7730106376137242 0
outer loop
vertex -55.55702 -83.14696 0
vertex -70.71068 -70.71068 1000
vertex -70.71068 -70.71068 0
endloop
endfacet
facet normal -0.7730106376137242 -0.6343930596531016 0
outer loop
vertex -70.71068 -70.71068 0
vertex -70.71068 -70.71068 1000
vertex -83.14696 -55.55702 1000
endloop
endfacet
facet normal -0.7730106376137242 -0.6343930596531016 0
outer loop
vertex -70.71068 -70.71068 0
vertex -83.14696 -55.55702 1000
vertex -83.14696 -55.55702 0
endloop
endfacet
facet normal -0.8819213064636144 -0.4713966580338807 0
outer loop
vertex -83.14696 -55.55702 0
vertex -83.14696 -55.55702 1000
vertex -92.38795 -38.26834 1000
endloop
endfacet
facet normal -0.8819213064636144 -0.4713966580338807 0
outer loop
vertex -83.14696 -55.55702 0
vertex -92.38795 -38.26834 1000
vertex -92.38795 -38.26834 0
endloop
endfacet
facet normal -0.9569402574453598 -0.2902849353314921 0
outer loop
vertex -92.38795 -38.26834 0
vertex -92.38795 -38.26834 1000
vertex -98.07853 -19.50903 1000
endloop
endfacet
facet normal -0.9569402574453598 -0.2902849353314921 0
outer loop
vertex -92.38795 -38.26834 0
vertex -98.07853 -19.50903 1000
vertex -98.07853 -19.50903 0
endloop
endfacet
facet normal -0.995184735344418 -0.09801705227898252 0
outer loop
vertex -98.07853 -19.50903 0
vertex -98.07853 -19.50903 1000
vertex -100 0 1000
endloop
endfacet
facet normal -0.995184735344418 -0.09801705227898252 0
outer loop
vertex -98.07853 -19.50903 0
vertex -100 0 1000
vertex -100 0 0
endloop
endfacet
facet normal -0.995184735344418 0.09801705227898252 0
outer loop
vertex -100 0 0
vertex -100 0 1000
vertex -98.07853 19.50903 1000
endloop
endfacet
facet normal -0.995184735344418 0.09801705227898252 0
outer loop
vertex -100 0 0
vertex -98.07853 19.50903 1000
vertex -98.07853 19.50903 0
endloop
endfacet
facet normal -0.9569402574453598 0.2902849353314921 0
outer loop
vertex -98.07853 19.50903 0
vertex -98.07853 19.50903 1000
vertex -92.38795 38.26834 1000
endloop
endfacet
facet normal -0.9569402574453598 0.2902849353314921 0
outer loop
vertex -98.07853 19.50903 0
vertex -92.38795 38.26834 1000
vertex -92.38795 38.26834 0
endloop
endfacet
facet normal -0.8819213064636144 0.4713966580338807 0
outer loop
vertex -92.38795 38.26834 0
vertex -92.38795 38.26834 1000
vertex -83.14696 55.55702 1000
endloop
endfacet
facet normal -0.8819213064636144 0.4713966580338807 0
outer loop
vertex -92.38795 38.26834 0
vertex -83.14696 55.55702 1000
vertex -83.14696 55.55702 0
endloop
endfacet
facet normal -0.7730106376137242 0.6343930596531016 0
outer loop
vertex -83.14696 55.55702 0
vertex -83.14696 55.55702 1000
vertex -70.71068 70.71068 1000
endloop
endfacet
facet normal -0.7730106376137242 0.6343930596531016 0
outer loop
vertex -83.14696 55.55702 0
vertex -70.71068 70.71068 1000
vertex -70.71068 70.71068 0
endloop
endfacet
facet normal -0.6343930596531016 0.7730106376137242 0
outer loop
vertex -70.71068 70.71068 0
vertex -70.71068 70.71068 1000
vertex -55.55702 83.14696 1000
endloop
endfacet
facet normal -0.6343930596531016 0.7730106376137242 0
outer loop
vertex -70.71068 70.71068 0
vertex -55.55702 83.14696 1000
vertex -55.55702 83.14696 0
endloop
endfacet
facet normal -0.4713966580338807 0.8819213064636144 0
outer loop
vertex -55.55702 83.14696 0
vertex -55.55702 83.14696 1000
vertex -38.26834 92.38795 1000
endloop
endfacet
facet normal -0.4713966580338807 0.8819213064636144 0
outer loop
vertex -55.55702 83.14696 0
vertex -38.26834 92.38795 1000
vertex -38.26834 92.38795 0
endloop
endfacet
facet normal -0.2902849353314921 0.9569402574453598 0
outer loop
vertex -38.26834 92.38795 0
vertex -38.26834 92.38795 1000
vertex -19.50903 98.07853 1000
endloop
endfacet
facet normal -0.2902849353314921 0.9569402574453598 0
outer loop
vertex -38.26834 92.38795 0
vertex -19.50903 98.07853 1000
vertex -19.50903 98.07853 0
endloop
endfacet
facet normal -0.09801705227898252 0.995184735344418 0
outer loop
vertex -19.50903 98.07853 0
vertex -19.50903 98.07853 1000
vertex 0 100 1000
endloop
endfacet
facet normal -0.09801705227898252 0.995184735344418 0
outer loop
vertex -19.50903 98.07853 0
vertex 0 100 1000
vertex 0 100 0
endloop
endfacet
facet normal 0.09801705227898252 0.995184735344418 0
outer loop
vertex 0 100 0
vertex 0 100 1000
vertex 19.50903 98.07853 1000
endloop
endfacet
facet normal 0.09801705227898252 0.995184735344418 0
outer loop
vertex 0 100 0
vertex 19.50903 98.07853 1000
vertex 19.50903 98.07853 0
endloop
endfacet
facet normal 0.2902849353314921 0.9569402574453598 0
outer loop
vertex 19.50903 98.07853 0
vertex 19.50903 98.07853 1000
vertex 38.26834 92.38795 1000
endloop
endfacet
facet normal 0.2902849353314921 0.9569402574453598 0
outer loop
vertex 19.50903 98.07853 0
vertex 38.26834 92.38795 1000
vertex 38.26834 92.38795 0
endloop
endfacet
facet normal 0.4713966580338807 0.8819213064636144 0
outer loop
vertex 38.26834 92.38795 0
vertex 38.26834 92.38795 1000
vertex 55.55702 83.14696 1000
endloop
endfacet
facet normal 0.4713966580338807 0.8819213064636144 0
outer loop
vertex 38.26834 92.38795 0
vertex 55.55702 83.14696 1000
vertex 55.55702 83.14696 0
endloop
endfacet
facet normal 0.6343930596531016 0.7730106376137242 0
outer loop
vertex 55.55702 83.14696 0
vertex 55.55702 83.14696 1000
vertex 70.71068 70.71068 1000
endloop
endfacet
facet normal 0.6343930596531016 0.7730106376137242 0
outer loop
vertex 55.55702 83.14696 0
vertex 70.71068 70.71068 1000
vertex 70.71068 70.71068 0
endloop
endfacet
facet normal 0.7730106376137242 0.6343930596531016 0
outer loop
vertex 70.71068 70.71068 0
vertex 70.71068 70.71068 1000
vertex 83.14696 55.55702 1000
endloop
endfacet
facet normal 0.7730106376137242 0.6343930596531016 0
outer loop
vertex 70.71068 70.71068 0
vertex 83.14696 55.55702 1000
vertex 83.14696 55.55702 0
endloop
endfacet
facet normal 0.8819213064636144 0.4713966580338807 0
outer loop
vertex 83.14696 55.55702 0
vertex 83.14696 55.55702 1000
vertex 92.38795 38.26834 1000
endloop
endfacet
facet normal 0.8819213064636144 0.4713966580338807 0
outer loop
vertex 83.14696 55.55702 0
vertex 92.38795 38.26834 1000
vertex 92.38795 38.26834 0
endloop
endfacet
facet normal 0.9569402574453598 0.2902849353314921 0
outer loop
vertex 92.38795 38.26834 0
vertex 92.38795 38.26834 1000
vertex 98.07853 19.50903 1000
endloop
endfacet
facet normal 0.9569402574453598 0.2902849353314921 0
outer loop
vertex 92.38795 38.26834 0
vertex 98.07853 19.50903 1000
vertex 98.07853 19.50903 0
endloop
endfacet
facet normal 0.995184735344418 0.09801705227898252 0
outer loop
vertex 98.07853 19.50903 0
vertex 98.07853 19.50903 1000
vertex 100 0 1000
endloop
endfacet
facet normal 0.995184735344418 0.09801705227898252 0
outer loop
vertex 98.07853 19.50903 0
vertex 100 0 1000
vertex 100 0 0
endloop
endfacet
facet normal 0.995184735344418 -0.09801705227898252 0
outer loop
vertex 100 0 0
vertex 100 0 1000
vertex 98.07853 -19.50903 1000
endloop
endfacet
facet normal 0.995184735344418 -0.09801705227898252 0
outer loop
vertex 100 0 0
vertex 98.07853 -19.50903 1000
vertex 98.07853 -19.50903 0
endloop
endfacet
endsolid JSxCAD
