solid JSxCAD
facet normal 0 -1 0
outer loop
vertex -2.5 2.5 3
vertex -1.5 2.5 0
vertex -1.5 2.5 3
endloop
endfacet
facet normal 0 -1 0
outer loop
vertex -1.5 2.5 0
vertex -2.5 2.5 3
vertex -2.5 2.5 0
endloop
endfacet
facet normal 0 -1 0
outer loop
vertex 2.5 2.5 30
vertex 1.5 2.5 3
vertex 2.5 2.5 3
endloop
endfacet
facet normal 0 -1 0
outer loop
vertex 2.5 2.5 30
vertex -1.5 2.5 3
vertex 1.5 2.5 3
endloop
endfacet
facet normal 0 -1 0
outer loop
vertex -2.5 2.5 30
vertex -1.5 2.5 3
vertex 2.5 2.5 30
endloop
endfacet
facet normal 0 -1 0
outer loop
vertex -1.5 2.5 3
vertex -2.5 2.5 30
vertex -2.5 2.5 3
endloop
endfacet
facet normal 0 -1 0
outer loop
vertex 1.5 2.5 3
vertex 2.5 2.5 0
vertex 2.5 2.5 3
endloop
endfacet
facet normal 0 -1 0
outer loop
vertex 2.5 2.5 0
vertex 1.5 2.5 3
vertex 1.5 2.5 0
endloop
endfacet
facet normal 0 1 0
outer loop
vertex -2.5 -2.5 0
vertex -1.5 -2.5 3
vertex -1.5 -2.5 0
endloop
endfacet
facet normal 0 1 0
outer loop
vertex -1.5 -2.5 3
vertex -2.5 -2.5 0
vertex -2.5 -2.5 3
endloop
endfacet
facet normal 0 1 0
outer loop
vertex 1.5 -2.5 3
vertex 2.5 -2.5 30
vertex 2.5 -2.5 3
endloop
endfacet
facet normal 0 1 0
outer loop
vertex -1.5 -2.5 3
vertex 2.5 -2.5 30
vertex 1.5 -2.5 3
endloop
endfacet
facet normal 0 1 0
outer loop
vertex -2.5 -2.5 3
vertex 2.5 -2.5 30
vertex -1.5 -2.5 3
endloop
endfacet
facet normal 0 1 0
outer loop
vertex 2.5 -2.5 30
vertex -2.5 -2.5 3
vertex -2.5 -2.5 30
endloop
endfacet
facet normal 0 1 0
outer loop
vertex 1.5 -2.5 0
vertex 2.5 -2.5 3
vertex 2.5 -2.5 0
endloop
endfacet
facet normal 0 1 0
outer loop
vertex 2.5 -2.5 3
vertex 1.5 -2.5 0
vertex 1.5 -2.5 3
endloop
endfacet
facet normal 0 0 -1
outer loop
vertex 2.5 -2.5 30
vertex -2.5 2.5 30
vertex 2.5 2.5 30
endloop
endfacet
facet normal 0 0 -1
outer loop
vertex -2.5 2.5 30
vertex 2.5 -2.5 30
vertex -2.5 -2.5 30
endloop
endfacet
facet normal -1 0 0
outer loop
vertex 2.5 2.5 3
vertex 2.5 -2.5 30
vertex 2.5 2.5 30
endloop
endfacet
facet normal -1 0 0
outer loop
vertex 2.5 2.5 3
vertex 2.5 -2.5 3
vertex 2.5 -2.5 30
endloop
endfacet
facet normal -1 0 0
outer loop
vertex 2.5 2.5 0
vertex 2.5 -2.5 3
vertex 2.5 2.5 3
endloop
endfacet
facet normal -1 0 0
outer loop
vertex 2.5 -2.5 3
vertex 2.5 2.5 0
vertex 2.5 -2.5 0
endloop
endfacet
facet normal 1 0 0
outer loop
vertex -2.5 -2.5 3
vertex -2.5 2.5 30
vertex -2.5 -2.5 30
endloop
endfacet
facet normal 1 0 0
outer loop
vertex -2.5 -2.5 3
vertex -2.5 2.5 3
vertex -2.5 2.5 30
endloop
endfacet
facet normal 1 0 0
outer loop
vertex -2.5 -2.5 0
vertex -2.5 2.5 3
vertex -2.5 -2.5 3
endloop
endfacet
facet normal 1 0 0
outer loop
vertex -2.5 2.5 3
vertex -2.5 -2.5 0
vertex -2.5 2.5 0
endloop
endfacet
facet normal -0.6691315942802621 -0.7431439359477775 0
outer loop
vertex -4.04508 -2.93893 0
vertex -2.5 -4.33013 50
vertex -4.04508 -2.93893 50
endloop
endfacet
facet normal -0.6691315942802625 -0.7431439359477774 0
outer loop
vertex -2.5 -4.33013 50
vertex -4.04508 -2.93893 0
vertex -2.5 -4.33013 0
endloop
endfacet
facet normal -0.9135443867754875 -0.40673904827419566 0
outer loop
vertex -4.89074 -1.03956 50
vertex -4.04508 -2.93893 0
vertex -4.04508 -2.93893 50
endloop
endfacet
facet normal -0.9135443867754875 -0.40673904827419566 0
outer loop
vertex -4.89074 -1.03956 0
vertex -4.04508 -2.93893 0
vertex -4.89074 -1.03956 50
endloop
endfacet
facet normal 0 0 1
outer loop
vertex -4.04508 -2.93893 0
vertex -4.89074 -1.03956 0
vertex -4.24051 -2.5 0
endloop
endfacet
facet normal -1 0 0
outer loop
vertex -4.89074 -1.03956 0
vertex -4.89074 1.03956 50
vertex -4.89074 1.03956 0
endloop
endfacet
facet normal -1 0 0
outer loop
vertex -4.89074 1.03956 50
vertex -4.89074 -1.03956 0
vertex -4.89074 -1.03956 50
endloop
endfacet
facet normal -0.9135443867754875 0.40673904827419566 0
outer loop
vertex -4.04508 2.93893 0
vertex -4.89074 1.03956 50
vertex -4.04508 2.93893 50
endloop
endfacet
facet normal -0.9135443867754875 0.40673904827419566 0
outer loop
vertex -4.04508 2.93893 0
vertex -4.89074 1.03956 0
vertex -4.89074 1.03956 50
endloop
endfacet
facet normal 0 0 1
outer loop
vertex -4.89074 1.03956 0
vertex -4.04508 2.93893 0
vertex -4.24051 2.5 0
endloop
endfacet
facet normal -0.6691315942802625 0.7431439359477774 0
outer loop
vertex -2.5 4.33013 0
vertex -4.04508 2.93893 50
vertex -2.5 4.33013 50
endloop
endfacet
facet normal -0.6691315942802621 0.7431439359477775 0
outer loop
vertex -4.04508 2.93893 50
vertex -2.5 4.33013 0
vertex -4.04508 2.93893 0
endloop
endfacet
facet normal -4.04128849585306e-15 0 1
outer loop
vertex -2.5 4.33013 50
vertex 1.54508 4.75528 50
vertex -0.52264 4.97261 50
endloop
endfacet
facet normal 0 0 1
outer loop
vertex -2.5 4.33013 50
vertex 3.34565 3.71572 50
vertex 1.54508 4.75528 50
endloop
endfacet
facet normal 0 0 1
outer loop
vertex -4.04508 2.93893 50
vertex 3.34565 3.71572 50
vertex -2.5 4.33013 50
endloop
endfacet
facet normal 0 0 1
outer loop
vertex -4.04508 2.93893 50
vertex 4.56773 2.03368 50
vertex 3.34565 3.71572 50
endloop
endfacet
facet normal 8.298577472341423e-16 0 1
outer loop
vertex -4.89074 1.03956 50
vertex 4.56773 2.03368 50
vertex -4.04508 2.93893 50
endloop
endfacet
facet normal 0 0 1
outer loop
vertex -4.89074 1.03956 50
vertex 5 0 50
vertex 4.56773 2.03368 50
endloop
endfacet
facet normal 0 0 1
outer loop
vertex -4.89074 -1.03956 50
vertex 5 0 50
vertex -4.89074 1.03956 50
endloop
endfacet
facet normal 0 0 1
outer loop
vertex -4.89074 -1.03956 50
vertex 4.56773 -2.03368 50
vertex 5 0 50
endloop
endfacet
facet normal 8.298577472341423e-16 0 1
outer loop
vertex -4.04508 -2.93893 50
vertex 4.56773 -2.03368 50
vertex -4.89074 -1.03956 50
endloop
endfacet
facet normal 0 0 1
outer loop
vertex -4.04508 -2.93893 50
vertex 3.34565 -3.71572 50
vertex 4.56773 -2.03368 50
endloop
endfacet
facet normal 0 0 1
outer loop
vertex -2.5 -4.33013 50
vertex 3.34565 -3.71572 50
vertex -4.04508 -2.93893 50
endloop
endfacet
facet normal 0 0 1
outer loop
vertex -2.5 -4.33013 50
vertex 1.54508 -4.75528 50
vertex 3.34565 -3.71572 50
endloop
endfacet
facet normal 0 0 1
outer loop
vertex -2.5 -4.33013 50
vertex 1.5 -4.76002 50
vertex 1.54508 -4.75528 50
endloop
endfacet
facet normal 0 0 1
outer loop
vertex 1.5 -4.76002 50
vertex -2.5 -4.33013 50
vertex -0.52264 -4.97261 50
endloop
endfacet
facet normal 0 0 -1
outer loop
vertex 4.56773 -2.03368 0
vertex 4.56773 2.03368 0
vertex 5 0 0
endloop
endfacet
facet normal 0 0 -1
outer loop
vertex 4.22893 -2.5 0
vertex 4.56773 2.03368 0
vertex 4.56773 -2.03368 0
endloop
endfacet
facet normal 0 0 -1
outer loop
vertex 4.22893 -2.5 0
vertex 4.22893 2.5 0
vertex 4.56773 2.03368 0
endloop
endfacet
facet normal 0 0 -1
outer loop
vertex 4.22893 -2.5 0
vertex 2.5 2.5 0
vertex 4.22893 2.5 0
endloop
endfacet
facet normal 0 0 -1
outer loop
vertex 2.5 2.5 0
vertex 4.22893 -2.5 0
vertex 2.5 -2.5 0
endloop
endfacet
facet normal 0 0 -1
outer loop
vertex 2.5 2.5 0
vertex 3.34565 3.71572 0
vertex 4.22893 2.5 0
endloop
endfacet
facet normal 0 0 -1
outer loop
vertex 2.5 2.5 0
vertex 1.54508 4.75528 0
vertex 3.34565 3.71572 0
endloop
endfacet
facet normal 0 0 -1
outer loop
vertex 1.5 2.5 0
vertex 1.54508 4.75528 0
vertex 2.5 2.5 0
endloop
endfacet
facet normal 0 0 -1
outer loop
vertex 1.54508 4.75528 0
vertex 1.5 2.5 0
vertex 1.5 4.76002 0
endloop
endfacet
facet normal 0 0 -1
outer loop
vertex -1.5 -4.65505 0
vertex -2.5 -2.5 0
vertex -1.5 -2.5 0
endloop
endfacet
facet normal 0 0 -1
outer loop
vertex -2.5 -4.33013 0
vertex -2.5 -2.5 0
vertex -1.5 -4.65505 0
endloop
endfacet
facet normal 0 0 -1
outer loop
vertex -4.04508 -2.93893 0
vertex -2.5 -2.5 0
vertex -2.5 -4.33013 0
endloop
endfacet
facet normal 0 0 -1
outer loop
vertex -2.5 -2.5 0
vertex -4.04508 -2.93893 0
vertex -4.24051 -2.5 0
endloop
endfacet
facet normal 0 0 -1
outer loop
vertex -1.5 2.5 0
vertex -2.5 4.33013 0
vertex -1.5 4.65505 0
endloop
endfacet
facet normal 0 0 -1
outer loop
vertex -2.5 2.5 0
vertex -2.5 4.33013 0
vertex -1.5 2.5 0
endloop
endfacet
facet normal 0 0 -1
outer loop
vertex -2.5 2.5 0
vertex -4.04508 2.93893 0
vertex -2.5 4.33013 0
endloop
endfacet
facet normal 0 0 -1
outer loop
vertex -4.04508 2.93893 0
vertex -2.5 2.5 0
vertex -4.24051 2.5 0
endloop
endfacet
facet normal 0 0 -1
outer loop
vertex -4.24051 -2.5 0
vertex -2.5 2.5 0
vertex -2.5 -2.5 0
endloop
endfacet
facet normal 0 0 -1
outer loop
vertex -4.24051 -2.5 0
vertex -4.24051 2.5 0
vertex -2.5 2.5 0
endloop
endfacet
facet normal 0 0 -1
outer loop
vertex -4.89074 -1.03956 0
vertex -4.24051 2.5 0
vertex -4.24051 -2.5 0
endloop
endfacet
facet normal 0 0 -0.9999999999999999
outer loop
vertex -4.24051 2.5 0
vertex -4.89074 -1.03956 0
vertex -4.89074 1.03956 0
endloop
endfacet
facet normal 0 0 -1
outer loop
vertex 3.34565 -3.71572 0
vertex 2.5 -2.5 0
vertex 4.22893 -2.5 0
endloop
endfacet
facet normal 0 0 -1
outer loop
vertex 1.54508 -4.75528 0
vertex 2.5 -2.5 0
vertex 3.34565 -3.71572 0
endloop
endfacet
facet normal 0 0 -1
outer loop
vertex 1.54508 -4.75528 0
vertex 1.5 -2.5 0
vertex 2.5 -2.5 0
endloop
endfacet
facet normal 0 0 -1
outer loop
vertex 1.5 -2.5 0
vertex 1.54508 -4.75528 0
vertex 1.5 -4.76002 0
endloop
endfacet
facet normal 1 0 0
outer loop
vertex -1.5 2.5 3
vertex -1.5 4.65505 0
vertex -1.5 4.65505 3
endloop
endfacet
facet normal 1 0 0
outer loop
vertex -1.5 4.65505 0
vertex -1.5 2.5 3
vertex -1.5 2.5 0
endloop
endfacet
facet normal 1 0 0
outer loop
vertex -1.5 -4.65505 3
vertex -1.5 -2.5 0
vertex -1.5 -2.5 3
endloop
endfacet
facet normal 1 0 0
outer loop
vertex -1.5 -2.5 0
vertex -1.5 -4.65505 3
vertex -1.5 -4.65505 0
endloop
endfacet
facet normal -1 0 0
outer loop
vertex 1.5 -2.5 0
vertex 1.5 -4.76002 3
vertex 1.5 -2.5 3
endloop
endfacet
facet normal -1 0 0
outer loop
vertex 1.5 -4.76002 3
vertex 1.5 -2.5 0
vertex 1.5 -4.76002 0
endloop
endfacet
facet normal -1 0 0
outer loop
vertex 1.5 4.76002 3
vertex 1.5 2.5 0
vertex 1.5 2.5 3
endloop
endfacet
facet normal -1 0 0
outer loop
vertex 1.5 2.5 0
vertex 1.5 4.76002 3
vertex 1.5 4.76002 0
endloop
endfacet
facet normal 0 0 -1
outer loop
vertex -0.52264 -4.97261 3
vertex 1.5 -2.5 3
vertex 1.5 -4.76002 3
endloop
endfacet
facet normal 0 0 -0.9999999999999999
outer loop
vertex -0.52264 -4.97261 3
vertex -1.5 -2.5 3
vertex 1.5 -2.5 3
endloop
endfacet
facet normal 0 0 -1
outer loop
vertex -1.5 -2.5 3
vertex -0.52264 -4.97261 3
vertex -1.5 -4.65505 3
endloop
endfacet
facet normal 0 0 -1
outer loop
vertex 1.5 2.5 3
vertex -0.52264 4.97261 3
vertex 1.5 4.76002 3
endloop
endfacet
facet normal 0 0 -1
outer loop
vertex 1.5 2.5 3
vertex -1.5 4.65505 3
vertex -0.52264 4.97261 3
endloop
endfacet
facet normal 0 0 -1
outer loop
vertex -1.5 4.65505 3
vertex 1.5 2.5 3
vertex -1.5 2.5 3
endloop
endfacet
facet normal -0.3090172556871228 0.9510564313896412 0
outer loop
vertex -1.5 4.65505 3
vertex -2.5 4.33013 50
vertex -1.5 4.65505 50
endloop
endfacet
facet normal -0.3090172556871223 0.9510564313896415 0
outer loop
vertex -1.5 4.65505 0
vertex -2.5 4.33013 50
vertex -1.5 4.65505 3
endloop
endfacet
facet normal -0.30901725568712274 0.9510564313896411 0
outer loop
vertex -2.5 4.33013 50
vertex -1.5 4.65505 0
vertex -2.5 4.33013 0
endloop
endfacet
facet normal -0.3090139011949268 0.9510575213247052 0
outer loop
vertex -0.52264 4.97261 3
vertex -1.5 4.65505 50
vertex -0.52264 4.97261 50
endloop
endfacet
facet normal -0.3090139011949268 0.951057521324705 0
outer loop
vertex -1.5 4.65505 50
vertex -0.52264 4.97261 3
vertex -1.5 4.65505 3
endloop
endfacet
facet normal 0.10456994485401767 0.9945175346032004 0
outer loop
vertex 1.54508 4.75528 50
vertex 1.5 4.76002 3
vertex 1.5 4.76002 50
endloop
endfacet
facet normal 0.10456994485401853 0.9945175346032002 0
outer loop
vertex 1.54508 4.75528 0
vertex 1.5 4.76002 3
vertex 1.54508 4.75528 50
endloop
endfacet
facet normal 0.10456994485401842 0.9945175346032002 0
outer loop
vertex 1.5 4.76002 3
vertex 1.54508 4.75528 0
vertex 1.5 4.76002 0
endloop
endfacet
facet normal 0.10452942111986707 0.9945217946934825 0
outer loop
vertex 1.5 4.76002 50
vertex -0.52264 4.97261 3
vertex -0.52264 4.97261 50
endloop
endfacet
facet normal 0.10452942111986709 0.9945217946934825 0
outer loop
vertex -0.52264 4.97261 3
vertex 1.5 4.76002 50
vertex 1.5 4.76002 3
endloop
endfacet
facet normal 0.5000001536005657 0.8660253151030924 0
outer loop
vertex 3.34565 3.71572 0
vertex 1.54508 4.75528 50
vertex 3.34565 3.71572 50
endloop
endfacet
facet normal 0.5000001536005658 0.8660253151030923 0
outer loop
vertex 1.54508 4.75528 50
vertex 3.34565 3.71572 0
vertex 1.54508 4.75528 0
endloop
endfacet
facet normal 0.8090155291723139 0.587787268965602 0
outer loop
vertex 4.56773 2.03368 50
vertex 3.34565 3.71572 0
vertex 3.34565 3.71572 50
endloop
endfacet
facet normal 0.8090155291723137 0.5877872689656024 0
outer loop
vertex 4.56773 2.03368 0
vertex 3.34565 3.71572 0
vertex 4.56773 2.03368 50
endloop
endfacet
facet normal 0 0 1
outer loop
vertex 3.34565 3.71572 0
vertex 4.56773 2.03368 0
vertex 4.22893 2.5 0
endloop
endfacet
facet normal 0.9781477991350204 0.20791075741124165 0
outer loop
vertex 5 0 0
vertex 4.56773 2.03368 50
vertex 5 0 50
endloop
endfacet
facet normal 0.97814779913502 0.20791075741124265 0
outer loop
vertex 4.56773 2.03368 50
vertex 5 0 0
vertex 4.56773 2.03368 0
endloop
endfacet
facet normal 0.9781477991350204 -0.20791075741124165 0
outer loop
vertex 4.56773 -2.03368 50
vertex 5 0 0
vertex 5 0 50
endloop
endfacet
facet normal 0.97814779913502 -0.20791075741124265 0
outer loop
vertex 5 0 0
vertex 4.56773 -2.03368 50
vertex 4.56773 -2.03368 0
endloop
endfacet
facet normal 0.8090155291723139 -0.587787268965602 0
outer loop
vertex 3.34565 -3.71572 0
vertex 4.56773 -2.03368 50
vertex 3.34565 -3.71572 50
endloop
endfacet
facet normal 0.8090145520870085 -0.5877886137987469 6.912279108723044e-8
outer loop
vertex 4.22893 -2.5 0
vertex 4.56773 -2.03368 50
vertex 3.34565 -3.71572 0
endloop
endfacet
facet normal 0.8090180764840699 -0.5877837628941579 0
outer loop
vertex 4.56773 -2.03368 50
vertex 4.22893 -2.5 0
vertex 4.56773 -2.03368 0
endloop
endfacet
facet normal 0.5000001536005658 -0.8660253151030923 0
outer loop
vertex 1.54508 -4.75528 0
vertex 3.34565 -3.71572 50
vertex 1.54508 -4.75528 50
endloop
endfacet
facet normal 0.5000001536005657 -0.8660253151030924 0
outer loop
vertex 3.34565 -3.71572 50
vertex 1.54508 -4.75528 0
vertex 3.34565 -3.71572 0
endloop
endfacet
facet normal -0.3090172556871228 -0.9510564313896412 0
outer loop
vertex -2.5 -4.33013 50
vertex -1.5 -4.65505 3
vertex -1.5 -4.65505 50
endloop
endfacet
facet normal -0.3090172556871226 -0.9510564313896411 0
outer loop
vertex -2.5 -4.33013 0
vertex -1.5 -4.65505 3
vertex -2.5 -4.33013 50
endloop
endfacet
facet normal -0.30901725568712274 -0.9510564313896412 0
outer loop
vertex -1.5 -4.65505 3
vertex -2.5 -4.33013 0
vertex -1.5 -4.65505 0
endloop
endfacet
facet normal -0.3090139011949268 -0.9510575213247052 0
outer loop
vertex -1.5 -4.65505 50
vertex -0.52264 -4.97261 3
vertex -0.52264 -4.97261 50
endloop
endfacet
facet normal -0.3090139011949268 -0.951057521324705 0
outer loop
vertex -0.52264 -4.97261 3
vertex -1.5 -4.65505 50
vertex -1.5 -4.65505 3
endloop
endfacet
facet normal 0.10452942111986707 -0.9945217946934825 0
outer loop
vertex -0.52264 -4.97261 3
vertex 1.5 -4.76002 50
vertex -0.52264 -4.97261 50
endloop
endfacet
facet normal 0.10452942111986709 -0.9945217946934825 0
outer loop
vertex 1.5 -4.76002 50
vertex -0.52264 -4.97261 3
vertex 1.5 -4.76002 3
endloop
endfacet
facet normal 0.10456994485401767 -0.9945175346032004 0
outer loop
vertex 1.5 -4.76002 3
vertex 1.54508 -4.75528 50
vertex 1.5 -4.76002 50
endloop
endfacet
facet normal 0.10456994485401853 -0.9945175346032002 0
outer loop
vertex 1.5 -4.76002 3
vertex 1.54508 -4.75528 0
vertex 1.54508 -4.75528 50
endloop
endfacet
facet normal 0.10456994485401842 -0.9945175346032002 0
outer loop
vertex 1.54508 -4.75528 0
vertex 1.5 -4.76002 3
vertex 1.5 -4.76002 0
endloop
endfacet
facet normal -1 0 0
outer loop
vertex -2.5 2.5 3
vertex -2.5 -2.5 30
vertex -2.5 2.5 30
endloop
endfacet
facet normal -1 0 0
outer loop
vertex -2.5 2.5 3
vertex -2.5 -2.5 3
vertex -2.5 -2.5 30
endloop
endfacet
facet normal -1 0 0
outer loop
vertex -2.5 2.5 0
vertex -2.5 -2.5 3
vertex -2.5 2.5 3
endloop
endfacet
facet normal -1 0 0
outer loop
vertex -2.5 -2.5 3
vertex -2.5 2.5 0
vertex -2.5 -2.5 0
endloop
endfacet
facet normal 0 1 0
outer loop
vertex 1.5 2.5 0
vertex 2.5 2.5 30
vertex 2.5 2.5 0
endloop
endfacet
facet normal 0 1 0
outer loop
vertex -1.5 2.5 0
vertex 2.5 2.5 30
vertex 1.5 2.5 0
endloop
endfacet
facet normal 0 1 0
outer loop
vertex -2.5 2.5 0
vertex 2.5 2.5 30
vertex -1.5 2.5 0
endloop
endfacet
facet normal 0 1 0
outer loop
vertex -2.5 2.5 3
vertex 2.5 2.5 30
vertex -2.5 2.5 0
endloop
endfacet
facet normal 0 1 0
outer loop
vertex 2.5 2.5 30
vertex -2.5 2.5 3
vertex -2.5 2.5 30
endloop
endfacet
facet normal 1 0 0
outer loop
vertex 2.5 -2.5 3
vertex 2.5 2.5 30
vertex 2.5 -2.5 30
endloop
endfacet
facet normal 1 0 0
outer loop
vertex 2.5 -2.5 3
vertex 2.5 2.5 3
vertex 2.5 2.5 30
endloop
endfacet
facet normal 1 0 0
outer loop
vertex 2.5 -2.5 0
vertex 2.5 2.5 3
vertex 2.5 -2.5 3
endloop
endfacet
facet normal 1 0 0
outer loop
vertex 2.5 2.5 3
vertex 2.5 -2.5 0
vertex 2.5 2.5 0
endloop
endfacet
facet normal 0 -1 0
outer loop
vertex 2.5 -2.5 30
vertex 1.5 -2.5 0
vertex 2.5 -2.5 0
endloop
endfacet
facet normal 0 -1 0
outer loop
vertex 2.5 -2.5 30
vertex -1.5 -2.5 0
vertex 1.5 -2.5 0
endloop
endfacet
facet normal 0 -1 0
outer loop
vertex -2.5 -2.5 30
vertex -1.5 -2.5 0
vertex 2.5 -2.5 30
endloop
endfacet
facet normal 0 -1 0
outer loop
vertex -2.5 -2.5 3
vertex -1.5 -2.5 0
vertex -2.5 -2.5 30
endloop
endfacet
facet normal 0 -1 0
outer loop
vertex -1.5 -2.5 0
vertex -2.5 -2.5 3
vertex -2.5 -2.5 0
endloop
endfacet
facet normal 0 0 1
outer loop
vertex -2.5 2.5 30
vertex 2.5 -2.5 30
vertex 2.5 2.5 30
endloop
endfacet
facet normal 0 0 1
outer loop
vertex 2.5 -2.5 30
vertex -2.5 2.5 30
vertex -2.5 -2.5 30
endloop
endfacet
facet normal 0 0 -1
outer loop
vertex 2.5 -2.5 0
vertex 1.5 2.5 0
vertex 2.5 2.5 0
endloop
endfacet
facet normal 0 0 -1
outer loop
vertex 1.5 -2.5 0
vertex 1.5 2.5 0
vertex 2.5 -2.5 0
endloop
endfacet
facet normal 0 0 -1
outer loop
vertex -1.5 -2.5 0
vertex 1.5 2.5 0
vertex 1.5 -2.5 0
endloop
endfacet
facet normal 0 0 -1
outer loop
vertex -1.5 -2.5 0
vertex -1.5 2.5 0
vertex 1.5 2.5 0
endloop
endfacet
facet normal 0 0 -1
outer loop
vertex -1.5 -2.5 0
vertex -2.5 2.5 0
vertex -1.5 2.5 0
endloop
endfacet
facet normal 0 0 -1
outer loop
vertex -2.5 2.5 0
vertex -1.5 -2.5 0
vertex -2.5 -2.5 0
endloop
endfacet
endsolid JSxCAD
