<?xml version="1.0" encoding="UTF-8"?>
<!-- Generated by jsxcad -->
<!DOCTYPE svg PUBLIC "-//W3C//DTD SVG 1.1 Tiny//EN" "http://www.w3.org/Graphics/SVG/1.1/DTD/svg11-tiny.dtd">
<svg viewBox="-250 -250 500 500" width="500" height="500" xmlns="http://www.w3.org/2000/svg"><path d="M38.205534069161175,95.04260587353865L32.40172481593442,88.53067174879422L38.36605633385914,99.81622424110881z" style="fill:rgb(247,158,158)"/><path d="M32.40172481593442,88.53067174879422L25.757521930924934,102.7229759017822L38.36605633385914,99.81622424110881z" style="fill:rgb(127,37,217)"/><path d="M32.40172481593442,88.53067174879422L38.205534069161175,95.04260587353865L32.26453934277637,83.74787030161649z" style="fill:rgb(247,158,158)"/><path d="M25.757521930924934,102.7229759017822L32.40172481593442,88.53067174879422L19.66119272296125,91.50739987889504zM75.28062761030735,78.51234498173827L67.92245887973097,93.00233839475632L80.79386040761018,90.03498576316127zM67.92245887973097,93.00233839475632L75.28062761030735,78.51234498173827L62.27124652717834,81.55188727054875z" style="fill:rgb(127,37,217)"/><path d="M38.85581929527484,114.38083526306339L32.962333750186865,108.07563152591949L39.02186411859409,119.31868380527432zM32.962333750186865,108.07563152591949L38.85581929527484,114.38083526306339L32.82037068238673,103.12626505990337z" style="fill:rgb(247,158,158)"/><path d="M76.90791315651346,92.98434859297981L82.46061376897936,104.71070696150683L82.47339735740682,104.48201192742845z" style="fill:rgb(246,148,167)"/><path d="M4.500559132380559,-40.26813997824045L38.205534069161175,95.04260587353865L67.63622682543192,88.22304110520041z" style="fill:rgb(127,37,217)"/><path d="M4.500559132380559,-40.26813997824045L69.09203296538678,112.53101634234211L67.63622682543192,88.22304110520041zM32.26453934277637,83.74787030161649L-29.041493885563778,-6.968321138357326L32.40172481593442,88.53067174879422zM32.40172481593442,88.53067174879422L-29.041493885563778,-6.968321138357326L32.82037068238673,103.12626505990337z" style="fill:rgb(247,158,158)"/><path d="M4.610805858408244,-15.751123024227997L39.02186411859409,119.31868380527432L69.09203296538678,112.53101634234211z" style="fill:rgb(127,37,217)"/><path d="M32.82037068238673,103.12626505990337L-29.041493885563778,-6.968321138357326L32.962333750186865,108.07563152591949z" style="fill:rgb(247,158,158)"/><path d="M38.205534069161175,95.04260587353865L4.500559132380559,-40.26813997824045L-28.352728415846936,-31.49480451342012z" style="fill:rgb(127,37,217)"/><path d="M31.891795696790055,125.16131359285104L-101.56134723621088,-112.28982782806058L25.498138465243336,117.63497314826778z" style="fill:rgb(23,55,145)"/><path d="M-29.041493885563778,-6.968321138357326L32.26453934277637,83.74787030161649L-28.352728415846936,-31.49480451342012z" style="fill:rgb(247,158,158)"/><path d="M42.18068414228302,129.0365365210352L-95.02622308551527,-105.52542616990789L31.891795696790055,125.16131359285104z" style="fill:rgb(57,36,182)"/><path d="M69.09203296538678,112.53101634234211L4.500559132380559,-40.26813997824045L4.610805858408244,-15.751123024227997z" style="fill:rgb(247,158,158)"/><path d="M39.02186411859409,119.31868380527432L4.610805858408244,-15.751123024227997L-29.041493885563778,-6.968321138357326z" style="fill:rgb(127,37,217)"/><path d="M76.90791315651346,92.98434859297981L-32.40195969661667,-132.51773499996807L82.46061376897936,104.71070696150683zM77.53035285751656,82.78462151718925L-32.35902978085314,-132.74875869191004L76.90791315651346,92.98434859297981z" style="fill:rgb(246,148,167)"/><path d="M82.46061376897936,104.71070696150683L-40.47135866427704,-121.36198095460742L76.75035367840549,115.08203871109846z" style="fill:rgb(231,109,199)"/><path d="M-68.54768489547388,-105.03357827580838L42.18068414228302,129.0365365210352L54.58713507345474,128.47836384794326z" style="fill:rgb(102,32,209)"/><path d="M76.75035367840549,115.08203871109846L-53.303644627030465,-111.5869823229229L66.86363648653153,123.52787727732449z" style="fill:rgb(197,72,218)"/><path d="M-53.303644627030465,-111.5869823229229L54.58713507345474,128.47836384794326L66.86363648653153,123.52787727732449z" style="fill:rgb(152,45,222)"/><path d="M-28.352728415846936,-31.49480451342012L4.610805858408244,-15.751123024227997L4.500559132380559,-40.26813997824045zM4.610805858408244,-15.751123024227997L-28.352728415846936,-31.49480451342012L-29.041493885563778,-6.968321138357326z" style="fill:rgb(83,212,212)"/><path d="M-101.56134723621088,-112.28982782806058L31.891795696790055,125.16131359285104L-95.02622308551527,-105.52542616990789z" style="fill:rgb(23,55,145)"/><path d="M-32.35902978085314,-132.74875869191004L77.53035285751656,82.78462151718925L-30.453657024803334,-143.00297088400617z" style="fill:rgb(246,148,167)"/><path d="M-95.02622308551527,-105.52542616990789L42.18068414228302,129.0365365210352L-83.35631565470715,-102.90862132367211z" style="fill:rgb(57,36,182)"/><path d="M-40.47135866427704,-121.36198095460742L82.46061376897936,104.71070696150683L-32.40195969661667,-132.51773499996807z" style="fill:rgb(231,109,199)"/><path d="M-32.40195969661667,-132.51773499996807L76.90791315651346,92.98434859297981L-32.35902978085314,-132.74875869191004z" style="fill:rgb(246,148,167)"/><path d="M42.18068414228302,129.0365365210352L-68.54768489547388,-105.03357827580838L-83.35631565470715,-102.90862132367211z" style="fill:rgb(102,32,209)"/><path d="M-53.303644627030465,-111.5869823229229L76.75035367840549,115.08203871109846L-40.47135866427704,-121.36198095460742z" style="fill:rgb(197,72,218)"/><path d="M54.58713507345474,128.47836384794326L-53.303644627030465,-111.5869823229229L-68.54768489547388,-105.03357827580838z" style="fill:rgb(152,45,222)"/><path d="M-96.45204881898562,-132.66229746063325L-95.02622308551527,-105.52542616990789L-85.98296552827127,-142.79110408016552zM-101.56134723621088,-112.28982782806058L-96.45204881898562,-132.66229746063325L-101.99700823603196,-121.90117407411627zM-85.98296552827127,-142.79110408016552L-83.35631565470715,-102.90862132367211L-72.343435605223,-150.67501034720317zM-72.343435605223,-150.67501034720317L-68.54768489547388,-105.03357827580838L-57.71993381754169,-155.0619348868013zM-57.71993381754169,-155.0619348868013L-53.303644627030465,-111.5869823229229L-44.461575273445,-155.2073809975894zM-96.45204881898562,-132.66229746063325L-101.56134723621088,-112.28982782806058L-95.02622308551527,-105.52542616990789zM-44.461575273445,-155.2073809975894L-40.47135866427704,-121.36198095460742L-34.78739819135086,-150.99282647536327zM-85.98296552827127,-142.79110408016552L-95.02622308551527,-105.52542616990789L-83.35631565470715,-102.90862132367211zM-34.78739819135086,-150.99282647536327L-32.40195969661667,-132.51773499996807L-30.453657024803334,-143.00297088400617zM-72.343435605223,-150.67501034720317L-83.35631565470715,-102.90862132367211L-68.54768489547388,-105.03357827580838zM-57.71993381754169,-155.0619348868013L-68.54768489547388,-105.03357827580838L-53.303644627030465,-111.5869823229229zM-34.78739819135086,-150.99282647536327L-40.47135866427704,-121.36198095460742L-32.40195969661667,-132.51773499996807zM-44.461575273445,-155.2073809975894L-53.303644627030465,-111.5869823229229L-40.47135866427704,-121.36198095460742z" style="fill:rgb(83,212,212)"/></svg>
