solid JSxCAD
facet normal 0 0 -1
outer loop
vertex 1.54508 4.75528 3
vertex -2.5 4.33013 3
vertex -0.52264 4.97261 3
endloop
endfacet
facet normal 0 0 -1
outer loop
vertex 3.34565 3.71572 3
vertex -2.5 4.33013 3
vertex 1.54508 4.75528 3
endloop
endfacet
facet normal 0 0 -1
outer loop
vertex 3.34565 3.71572 3
vertex -4.04508 2.93893 3
vertex -2.5 4.33013 3
endloop
endfacet
facet normal -6.63770641326271e-17 0 -1
outer loop
vertex 4.56773 2.03368 3
vertex -4.04508 2.93893 3
vertex 3.34565 3.71572 3
endloop
endfacet
facet normal 0 0 -1
outer loop
vertex 4.56773 2.03368 3
vertex -4.89074 1.03956 3
vertex -4.04508 2.93893 3
endloop
endfacet
facet normal -9.032982998815216e-17 0 -1
outer loop
vertex 5 0 3
vertex -4.89074 1.03956 3
vertex 4.56773 2.03368 3
endloop
endfacet
facet normal 0 0 -1
outer loop
vertex 5 0 3
vertex -4.89074 -1.03956 3
vertex -4.89074 1.03956 3
endloop
endfacet
facet normal -9.032982998815216e-17 0 -1
outer loop
vertex 4.56773 -2.03368 3
vertex -4.89074 -1.03956 3
vertex 5 0 3
endloop
endfacet
facet normal 0 0 -1
outer loop
vertex 4.56773 -2.03368 3
vertex -4.04508 -2.93893 3
vertex -4.89074 -1.03956 3
endloop
endfacet
facet normal -6.63770641326271e-17 0 -1
outer loop
vertex 3.34565 -3.71572 3
vertex -4.04508 -2.93893 3
vertex 4.56773 -2.03368 3
endloop
endfacet
facet normal 0 0 -1
outer loop
vertex 3.34565 -3.71572 3
vertex -2.5 -4.33013 3
vertex -4.04508 -2.93893 3
endloop
endfacet
facet normal 0 0 -1
outer loop
vertex 1.54508 -4.75528 3
vertex -2.5 -4.33013 3
vertex 3.34565 -3.71572 3
endloop
endfacet
facet normal 0 0 -1
outer loop
vertex -2.5 -4.33013 3
vertex 1.54508 -4.75528 3
vertex -0.52264 -4.97261 3
endloop
endfacet
facet normal -0.3090155976462791 -0.9510569701186743 0
outer loop
vertex -2.5 -4.33013 3
vertex -0.52264 -4.97261 50
vertex -2.5 -4.33013 50
endloop
endfacet
facet normal -0.3090155976462792 -0.9510569701186742 0
outer loop
vertex -0.52264 -4.97261 50
vertex -2.5 -4.33013 3
vertex -0.52264 -4.97261 3
endloop
endfacet
facet normal -0.6691315942802621 -0.7431439359477775 0
outer loop
vertex -4.04508 -2.93893 3
vertex -2.5 -4.33013 50
vertex -4.04508 -2.93893 50
endloop
endfacet
facet normal -0.6691315942802625 -0.7431439359477772 0
outer loop
vertex -2.5 -4.33013 50
vertex -4.04508 -2.93893 3
vertex -2.5 -4.33013 3
endloop
endfacet
facet normal -0.9135443867754877 -0.40673904827419544 0
outer loop
vertex -4.89074 -1.03956 3
vertex -4.04508 -2.93893 50
vertex -4.89074 -1.03956 50
endloop
endfacet
facet normal -0.9135443867754874 -0.40673904827419594 0
outer loop
vertex -4.04508 -2.93893 50
vertex -4.89074 -1.03956 3
vertex -4.04508 -2.93893 3
endloop
endfacet
facet normal -1 0 0
outer loop
vertex -4.89074 -1.03956 3
vertex -4.89074 1.03956 50
vertex -4.89074 1.03956 3
endloop
endfacet
facet normal -1 0 0
outer loop
vertex -4.89074 1.03956 50
vertex -4.89074 -1.03956 3
vertex -4.89074 -1.03956 50
endloop
endfacet
facet normal -0.9135443867754874 0.40673904827419594 0
outer loop
vertex -4.04508 2.93893 3
vertex -4.89074 1.03956 50
vertex -4.04508 2.93893 50
endloop
endfacet
facet normal -0.9135443867754877 0.40673904827419544 0
outer loop
vertex -4.89074 1.03956 50
vertex -4.04508 2.93893 3
vertex -4.89074 1.03956 3
endloop
endfacet
facet normal -0.6691315942802625 0.7431439359477774 0
outer loop
vertex -2.5 4.33013 3
vertex -4.04508 2.93893 50
vertex -2.5 4.33013 50
endloop
endfacet
facet normal -0.6691315942802623 0.7431439359477775 0
outer loop
vertex -4.04508 2.93893 50
vertex -2.5 4.33013 3
vertex -4.04508 2.93893 3
endloop
endfacet
facet normal -0.30901559764627917 0.9510569701186742 0
outer loop
vertex -0.52264 4.97261 3
vertex -2.5 4.33013 50
vertex -0.52264 4.97261 50
endloop
endfacet
facet normal -0.30901559764627917 0.9510569701186743 0
outer loop
vertex -2.5 4.33013 50
vertex -0.52264 4.97261 3
vertex -2.5 4.33013 3
endloop
endfacet
facet normal 0.10453030461541621 0.9945217018331014 0
outer loop
vertex 1.54508 4.75528 3
vertex -0.52264 4.97261 50
vertex 1.54508 4.75528 50
endloop
endfacet
facet normal 0.10453030461541621 0.9945217018331014 0
outer loop
vertex -0.52264 4.97261 50
vertex 1.54508 4.75528 3
vertex -0.52264 4.97261 3
endloop
endfacet
facet normal 0.5000001536005657 0.8660253151030926 0
outer loop
vertex 3.34565 3.71572 3
vertex 1.54508 4.75528 50
vertex 3.34565 3.71572 50
endloop
endfacet
facet normal 0.5000001536005658 0.8660253151030924 0
outer loop
vertex 1.54508 4.75528 50
vertex 3.34565 3.71572 3
vertex 1.54508 4.75528 3
endloop
endfacet
facet normal 0.8090155291723138 0.5877872689656023 0
outer loop
vertex 4.56773 2.03368 3
vertex 3.34565 3.71572 50
vertex 4.56773 2.03368 50
endloop
endfacet
facet normal 0.8090155291723139 0.5877872689656019 0
outer loop
vertex 3.34565 3.71572 50
vertex 4.56773 2.03368 3
vertex 3.34565 3.71572 3
endloop
endfacet
facet normal 0.9781477991350203 0.20791075741124163 0
outer loop
vertex 5 0 3
vertex 4.56773 2.03368 50
vertex 5 0 50
endloop
endfacet
facet normal 0.97814779913502 0.20791075741124276 0
outer loop
vertex 4.56773 2.03368 50
vertex 5 0 3
vertex 4.56773 2.03368 3
endloop
endfacet
facet normal 0.97814779913502 -0.20791075741124276 0
outer loop
vertex 4.56773 -2.03368 3
vertex 5 0 50
vertex 4.56773 -2.03368 50
endloop
endfacet
facet normal 0.9781477991350203 -0.20791075741124163 0
outer loop
vertex 5 0 50
vertex 4.56773 -2.03368 3
vertex 5 0 3
endloop
endfacet
facet normal 0.8090155291723139 -0.5877872689656019 0
outer loop
vertex 3.34565 -3.71572 3
vertex 4.56773 -2.03368 50
vertex 3.34565 -3.71572 50
endloop
endfacet
facet normal 0.8090155291723138 -0.5877872689656023 0
outer loop
vertex 4.56773 -2.03368 50
vertex 3.34565 -3.71572 3
vertex 4.56773 -2.03368 3
endloop
endfacet
facet normal 0.5000001536005658 -0.8660253151030924 0
outer loop
vertex 1.54508 -4.75528 3
vertex 3.34565 -3.71572 50
vertex 1.54508 -4.75528 50
endloop
endfacet
facet normal 0.5000001536005657 -0.8660253151030926 0
outer loop
vertex 3.34565 -3.71572 50
vertex 1.54508 -4.75528 3
vertex 3.34565 -3.71572 3
endloop
endfacet
facet normal 0.10453030461541621 -0.9945217018331014 0
outer loop
vertex -0.52264 -4.97261 3
vertex 1.54508 -4.75528 50
vertex -0.52264 -4.97261 50
endloop
endfacet
facet normal 0.10453030461541621 -0.9945217018331014 0
outer loop
vertex 1.54508 -4.75528 50
vertex -0.52264 -4.97261 3
vertex 1.54508 -4.75528 3
endloop
endfacet
facet normal -4.04128849585306e-15 0 1
outer loop
vertex -2.5 4.33013 50
vertex 1.54508 4.75528 50
vertex -0.52264 4.97261 50
endloop
endfacet
facet normal 0 0 1
outer loop
vertex -2.5 4.33013 50
vertex 3.34565 3.71572 50
vertex 1.54508 4.75528 50
endloop
endfacet
facet normal 0 0 1
outer loop
vertex -4.04508 2.93893 50
vertex 3.34565 3.71572 50
vertex -2.5 4.33013 50
endloop
endfacet
facet normal 0 0 1
outer loop
vertex -4.04508 2.93893 50
vertex 4.56773 2.03368 50
vertex 3.34565 3.71572 50
endloop
endfacet
facet normal 8.298577472341423e-16 0 1
outer loop
vertex -4.89074 1.03956 50
vertex 4.56773 2.03368 50
vertex -4.04508 2.93893 50
endloop
endfacet
facet normal 0 0 1
outer loop
vertex -4.89074 1.03956 50
vertex 5 0 50
vertex 4.56773 2.03368 50
endloop
endfacet
facet normal 0 0 1
outer loop
vertex -4.89074 -1.03956 50
vertex 5 0 50
vertex -4.89074 1.03956 50
endloop
endfacet
facet normal 0 0 1
outer loop
vertex -4.89074 -1.03956 50
vertex 4.56773 -2.03368 50
vertex 5 0 50
endloop
endfacet
facet normal 8.298577472341423e-16 0 1
outer loop
vertex -4.04508 -2.93893 50
vertex 4.56773 -2.03368 50
vertex -4.89074 -1.03956 50
endloop
endfacet
facet normal 0 0 1
outer loop
vertex -4.04508 -2.93893 50
vertex 3.34565 -3.71572 50
vertex 4.56773 -2.03368 50
endloop
endfacet
facet normal 0 0 1
outer loop
vertex -2.5 -4.33013 50
vertex 3.34565 -3.71572 50
vertex -4.04508 -2.93893 50
endloop
endfacet
facet normal 0 0 1
outer loop
vertex -2.5 -4.33013 50
vertex 1.54508 -4.75528 50
vertex 3.34565 -3.71572 50
endloop
endfacet
facet normal 0 0 1
outer loop
vertex 1.54508 -4.75528 50
vertex -2.5 -4.33013 50
vertex -0.52264 -4.97261 50
endloop
endfacet
facet normal -1 0 0
outer loop
vertex -50 -5 55
vertex -50 -15 65
vertex -50 -5 65
endloop
endfacet
facet normal -1 0 0
outer loop
vertex -50 -15 65
vertex -50 -5 55
vertex -50 -15 55
endloop
endfacet
facet normal 0 1 0
outer loop
vertex -50 -5 55
vertex 50 -5 65
vertex 50 -5 55
endloop
endfacet
facet normal 0 1 0
outer loop
vertex 50 -5 65
vertex -50 -5 55
vertex -50 -5 65
endloop
endfacet
facet normal 1 0 0
outer loop
vertex 50 -15 55
vertex 50 -5 65
vertex 50 -15 65
endloop
endfacet
facet normal 1 0 0
outer loop
vertex 50 -5 65
vertex 50 -15 55
vertex 50 -5 55
endloop
endfacet
facet normal 0 -1 0
outer loop
vertex -50 -15 65
vertex 50 -15 55
vertex 50 -15 65
endloop
endfacet
facet normal 0 -1 0
outer loop
vertex 50 -15 55
vertex -50 -15 65
vertex -50 -15 55
endloop
endfacet
facet normal 0 0 1
outer loop
vertex -50 -5 65
vertex 50 -15 65
vertex 50 -5 65
endloop
endfacet
facet normal 0 0 1
outer loop
vertex 50 -15 65
vertex -50 -5 65
vertex -50 -15 65
endloop
endfacet
facet normal 0 0 -1
outer loop
vertex 50 -15 55
vertex -50 -5 55
vertex 50 -5 55
endloop
endfacet
facet normal 0 0 -1
outer loop
vertex -50 -5 55
vertex 50 -15 55
vertex -50 -15 55
endloop
endfacet
endsolid JSxCAD
