<svg viewBox="-250 -250 500 500" width="500" height="500" xmlns="http://www.w3.org/2000/svg"><path d="M-73.49152573004166,-152.02717557136782L-12.471431804287866,-174.29704801881977L-43.36083231081258,-164.98716702843407zM18.335278874800046,-179.6136410230822L-73.49152573004166,-152.02717557136782L-102.0630674552764,-135.79668563222586zM-12.471431804287866,-174.29704801881977L-73.49152573004166,-152.02717557136782L18.335278874800046,-179.6136410230822zM48.15991675756749,-180.63516677839607L-102.0630674552764,-135.79668563222586L-128.29778755523952,-116.71501389513149zM18.335278874800046,-179.6136410230822L-102.0630674552764,-135.79668563222586L48.15991675756749,-180.63516677839607zM76.03202148262172,-177.11660540547018L-128.29778755523952,-116.71501389513149L-151.42692295501283,-95.25250838368724zM48.15991675756749,-180.63516677839607L-128.29778755523952,-116.71501389513149L76.03202148262172,-177.11660540547018zM100.90814939291121,-168.89721490296617L-151.42692295501283,-95.25250838368724L-170.68220549780693,-71.94583596922058zM76.03202148262172,-177.11660540547018L-151.42692295501283,-95.25250838368724L100.90814939291121,-168.89721490296617zM137.23488968318046,-138.37977912954605L-170.68220549780693,-71.94583596922058L-185.29799043234922,-47.417630674953536zM100.90814939291121,-168.89721490296617L-170.68220549780693,-71.94583596922058L121.68476385802107,-155.939642445338zM137.23488968318046,-138.37977912954605L-185.29799043234922,-47.417630674953536L-194.5276365916363,-22.39503528471184zM121.68476385802107,-155.939642445338L-170.68220549780693,-71.94583596922058L137.23488968318046,-138.37977912954605z" style="fill:rgb(83,212,212)"/><path d="M188.76308584737896,9.132970562536013L146.47348774547598,-116.58096268467764L191.51854730460326,34.65776514479477z" style="fill:rgb(247,153,162)"/><path d="M-88.3137545755285,172.0108087368388L-165.85267857327656,64.02732391400627L-105.94356028269716,153.94759555033565z" style="fill:rgb(32,47,158)"/><path d="M146.47348774547598,-116.58096268467764L-194.5276365916363,-22.39503528471184L-197.67784326818943,2.2763375307538376z" style="fill:rgb(83,212,212)"/><path d="M191.51854730460326,34.65776514479477L148.4563880656661,-91.18689239803085L187.1717196795239,62.223017047649165z" style="fill:rgb(243,134,179)"/><path d="M-64.7384380984711,185.7405988474204L-141.21257725147387,76.80848571449509L-88.3137545755285,172.0108087368388z" style="fill:rgb(49,39,175)"/><path d="M137.23488968318046,-138.37977912954605L-194.5276365916363,-22.39503528471184L146.47348774547598,-116.58096268467764z" style="fill:rgb(83,212,212)"/><path d="M-105.94356028269716,153.94759555033565L-165.85267857327656,64.02732391400627L-183.59466072508548,46.59241375265758z" style="fill:rgb(32,47,158)"/><path d="M187.1717196795239,62.223017047649165L142.50539502481678,-63.15423257138404L175.48174829105835,90.5581133754314z" style="fill:rgb(235,115,194)"/><path d="M148.4563880656661,-91.18689239803085L-197.67784326818943,2.2763375307538376L-194.165635280682,25.629812813291036z" style="fill:rgb(83,212,212)"/><path d="M191.51854730460326,34.65776514479477L146.47348774547598,-116.58096268467764L148.4563880656661,-91.18689239803085z" style="fill:rgb(247,153,162)"/><path d="M-36.004301569059955,194.15783935245432L-110.42068138533115,83.92719039511874L-64.7384380984711,185.7405988474204z" style="fill:rgb(69,33,191)"/><path d="M146.47348774547598,-116.58096268467764L-197.67784326818943,2.2763375307538376L148.4563880656661,-91.18689239803085z" style="fill:rgb(83,212,212)"/><path d="M-88.3137545755285,172.0108087368388L-141.21257725147387,76.80848571449509L-165.85267857327656,64.02732391400627z" style="fill:rgb(49,39,175)"/><path d="M175.48174829105835,90.5581133754314L128.34773878369265,-33.75259971277812L156.66206843556017,118.19512965687898z" style="fill:rgb(222,96,207)"/><path d="M-3.3259502762142885,196.50782406983214L-74.74314419336764,84.62179006257513L-36.004301569059955,194.15783935245432z" style="fill:rgb(91,32,204)"/><path d="M187.1717196795239,62.223017047649165L148.4563880656661,-91.18689239803085L142.50539502481678,-63.15423257138404z" style="fill:rgb(243,134,179)"/><path d="M142.50539502481678,-63.15423257138404L-194.165635280682,25.629812813291036L-183.59466072508548,46.59241375265758z" style="fill:rgb(83,212,212)"/><path d="M156.66206843556017,118.19512965687898L106.24239228613663,-4.511551989863113L131.43934550988442,143.57646530976123z" style="fill:rgb(205,79,215)"/><path d="M31.691177940360888,192.37568296608563L-35.94074916532785,78.50943674847214L-3.3259502762142885,196.50782406983214z" style="fill:rgb(115,34,214)"/><path d="M-64.7384380984711,185.7405988474204L-110.42068138533115,83.92719039511874L-141.21257725147387,76.80848571449509z" style="fill:rgb(69,33,191)"/><path d="M148.4563880656661,-91.18689239803085L-194.165635280682,25.629812813291036L142.50539502481678,-63.15423257138404z" style="fill:rgb(83,212,212)"/><path d="M131.43934550988442,143.57646530976123L77.05772252407961,22.88908247289068L101.04921369346313,165.19977387808518z" style="fill:rgb(185,63,221)"/><path d="M67.1544429389029,181.77739022409003L3.8408438694524194,65.68862033923031L31.691177940360888,192.37568296608563z" style="fill:rgb(139,40,220)"/><path d="M101.04921369346313,165.19977387808518L42.266269807959965,46.77995557138381L67.1544429389029,181.77739022409003z" style="fill:rgb(163,50,222)"/><path d="M175.48174829105835,90.5581133754314L142.50539502481678,-63.15423257138404L128.34773878369265,-33.75259971277812z" style="fill:rgb(235,115,194)"/><path d="M128.34773878369265,-33.75259971277812L-183.59466072508548,46.59241375265758L-165.85267857327656,64.02732391400627z" style="fill:rgb(83,212,212)"/><path d="M-36.004301569059955,194.15783935245432L-74.74314419336764,84.62179006257513L-110.42068138533115,83.92719039511874z" style="fill:rgb(91,32,204)"/><path d="M142.50539502481678,-63.15423257138404L-183.59466072508548,46.59241375265758L128.34773878369265,-33.75259971277812z" style="fill:rgb(83,212,212)"/><path d="M156.66206843556017,118.19512965687898L128.34773878369265,-33.75259971277812L106.24239228613663,-4.511551989863113z" style="fill:rgb(222,96,207)"/><path d="M-3.3259502762142885,196.50782406983214L-35.94074916532785,78.50943674847214L-74.74314419336764,84.62179006257513z" style="fill:rgb(115,34,214)"/><path d="M106.24239228613663,-4.511551989863113L-165.85267857327656,64.02732391400627L-141.21257725147387,76.80848571449509z" style="fill:rgb(83,212,212)"/><path d="M131.43934550988442,143.57646530976123L106.24239228613663,-4.511551989863113L77.05772252407961,22.88908247289068z" style="fill:rgb(205,79,215)"/><path d="M31.691177940360888,192.37568296608563L3.8408438694524194,65.68862033923031L-35.94074916532785,78.50943674847214z" style="fill:rgb(139,40,220)"/><path d="M128.34773878369265,-33.75259971277812L-165.85267857327656,64.02732391400627L106.24239228613663,-4.511551989863113z" style="fill:rgb(83,212,212)"/><path d="M101.04921369346313,165.19977387808518L77.05772252407961,22.88908247289068L42.266269807959965,46.77995557138381z" style="fill:rgb(185,63,221)"/><path d="M67.1544429389029,181.77739022409003L42.266269807959965,46.77995557138381L3.8408438694524194,65.68862033923031z" style="fill:rgb(163,50,222)"/><path d="M77.05772252407961,22.88908247289068L-141.21257725147387,76.80848571449509L-110.42068138533115,83.92719039511874zM106.24239228613663,-4.511551989863113L-141.21257725147387,76.80848571449509L77.05772252407961,22.88908247289068zM42.266269807959965,46.77995557138381L-110.42068138533115,83.92719039511874L-74.74314419336764,84.62179006257513zM77.05772252407961,22.88908247289068L-110.42068138533115,83.92719039511874L42.266269807959965,46.77995557138381zM3.8408438694524194,65.68862033923031L-74.74314419336764,84.62179006257513L-35.94074916532785,78.50943674847214zM42.266269807959965,46.77995557138381L-74.74314419336764,84.62179006257513L3.8408438694524194,65.68862033923031z" style="fill:rgb(83,212,212)"/></svg>