<?xml version="1.0" encoding="UTF-8"?>
<!-- Generated by jsxcad -->
<!DOCTYPE svg PUBLIC "-//W3C//DTD SVG 1.1 Tiny//EN" "http://www.w3.org/Graphics/SVG/1.1/DTD/svg11-tiny.dtd">
<svg viewBox="-250 -250 500 500" width="500" height="500" xmlns="http://www.w3.org/2000/svg"><path d="M40.01641058534009,117.15582214830232L-88.51313380568091,-118.76924404940019L35.97306173496203,112.49662432675645z" style="fill:rgb(23,55,145)"/><path d="M46.44662499182569,119.52440945204273L-84.35135314411046,-114.6051904979303L40.01641058534009,117.15582214830232z" style="fill:rgb(57,36,182)"/><path d="M71.90862079687913,97.92699180613121L-45.417058890301625,-131.40307790451897L71.48765354586878,104.41466086623154z" style="fill:rgb(246,148,167)"/><path d="M71.48765354586878,104.41466086623154L-50.47726702012404,-124.48952275598539L67.90239041152829,110.84795348040481z" style="fill:rgb(231,109,199)"/><path d="M-67.86250760355259,-114.3903222034716L46.44662499182569,119.52440945204273L54.15174106917348,119.1494996032044z" style="fill:rgb(102,32,209)"/><path d="M67.90239041152829,110.84795348040481L-58.43476473911675,-118.45134381324155L61.75974468362015,116.07485209955891z" style="fill:rgb(197,72,218)"/><path d="M-58.43476473911675,-118.45134381324155L54.15174106917348,119.1494996032044L61.75974468362015,116.07485209955891z" style="fill:rgb(152,45,222)"/><path d="M-88.51313380568091,-118.76924404940019L40.01641058534009,117.15582214830232L-84.35135314411046,-114.6051904979303z" style="fill:rgb(23,55,145)"/><path d="M-45.417058890301625,-131.40307790451897L71.90862079687913,97.92699180613121L-44.11581002435043,-137.9490624347363z" style="fill:rgb(246,148,167)"/><path d="M-84.35135314411046,-114.6051904979303L46.44662499182569,119.52440945204273L-77.04934741120789,-113.0370230566037z" style="fill:rgb(57,36,182)"/><path d="M-50.47726702012404,-124.48952275598539L71.48765354586878,104.41466086623154L-45.417058890301625,-131.40307790451897z" style="fill:rgb(231,109,199)"/><path d="M46.44662499182569,119.52440945204273L-67.86250760355259,-114.3903222034716L-77.04934741120789,-113.0370230566037z" style="fill:rgb(102,32,209)"/><path d="M-58.43476473911675,-118.45134381324155L67.90239041152829,110.84795348040481L-50.47726702012404,-124.48952275598539z" style="fill:rgb(197,72,218)"/><path d="M54.15174106917348,119.1494996032044L-58.43476473911675,-118.45134381324155L-67.86250760355259,-114.3903222034716z" style="fill:rgb(152,45,222)"/><path d="M-85.46092506190833,-131.52021945720878L-84.35135314411046,-114.6051904979303L-78.890746127553,-137.91787148514422zM-88.51313380568091,-118.76924404940019L-85.46092506190833,-131.52021945720878L-88.87856792291262,-124.75768444432624zM-78.890746127553,-137.91787148514422L-77.04934741120789,-113.0370230566037L-70.28228265399002,-142.89946667998362zM-70.28228265399002,-142.89946667998362L-67.86250760355259,-114.3903222034716L-61.055659882051465,-145.64789642833347zM-61.055659882051465,-145.64789642833347L-58.43476473911675,-118.45134381324155L-52.73507757127052,-145.69317956718172zM-85.46092506190833,-131.52021945720878L-88.51313380568091,-118.76924404940019L-84.35135314411046,-114.6051904979303zM-52.73507757127052,-145.69317956718172L-50.47726702012404,-124.48952275598539L-46.73105329452591,-142.99000843590477zM-78.890746127553,-137.91787148514422L-84.35135314411046,-114.6051904979303L-77.04934741120789,-113.0370230566037zM-46.73105329452591,-142.99000843590477L-45.417058890301625,-131.40307790451897L-44.11581002435043,-137.9490624347363zM-70.28228265399002,-142.89946667998362L-77.04934741120789,-113.0370230566037L-67.86250760355259,-114.3903222034716zM-61.055659882051465,-145.64789642833347L-67.86250760355259,-114.3903222034716L-58.43476473911675,-118.45134381324155zM-46.73105329452591,-142.99000843590477L-50.47726702012404,-124.48952275598539L-45.417058890301625,-131.40307790451897zM-52.73507757127052,-145.69317956718172L-58.43476473911675,-118.45134381324155L-50.47726702012404,-124.48952275598539z" style="fill:rgb(83,212,212)"/></svg>
