<?xml version="1.0" encoding="UTF-8"?>
<!-- Generated by jsxcad -->
<!DOCTYPE svg PUBLIC "-//W3C//DTD SVG 1.1 Tiny//EN" "http://www.w3.org/Graphics/SVG/1.1/DTD/svg11-tiny.dtd">
<svg viewBox="-250 -250 500 500" width="500" height="500" xmlns="http://www.w3.org/2000/svg"><path d="M29.192625985076244,123.19703565844588L-100.81595948203382,-110.48809928812878L26.348219953418702,119.53572835714026z" style="fill:rgb(21,57,142)"/><path d="M-30.89105155115865,-144.7578990636408L83.4124074268394,97.07374657468736L82.4884133709636,92.47930217811142z" style="fill:rgb(246,167,149)"/><path d="M33.00248638645932,126.14173183780831L-97.95232681682376,-107.16424092555303L29.192625985076244,123.19703565844588z" style="fill:rgb(34,46,160)"/><path d="M83.4124074268394,97.07374657468736L-31.215110115046734,-135.3547635068309L83.17924660506384,101.97306935353261z" style="fill:rgb(246,149,167)"/><path d="M37.638990531315685,128.24442700039836L-93.84402479105435,-104.676851739027L33.00248638645932,126.14173183780831z" style="fill:rgb(51,38,177)"/><path d="M83.17924660506384,101.97306935353261L-33.48348949800912,-130.14719874171314L81.78429043736253,106.98628425649892z" style="fill:rgb(242,130,183)"/><path d="M-82.52167395336316,-102.62340709230797L37.638990531315685,128.24442700039836L42.925963698298006,129.41153406751684z" style="fill:rgb(71,33,192)"/><path d="M81.78429043736253,106.98628425649892L-37.07844168507795,-124.87348632295145L79.27102990440076,111.91333674161854z" style="fill:rgb(233,112,197)"/><path d="M-75.74144362387993,-103.16644489356497L42.925963698298006,129.41153406751684L48.65621995879445,129.58681823374084z" style="fill:rgb(92,32,204)"/><path d="M79.27102990440076,111.91333674161854L-41.86756140455872,-119.74926535533089L75.73112716445374,116.55391799051854z" style="fill:rgb(220,94,208)"/><path d="M-68.56807723708245,-104.75508078077488L48.65621995879445,129.58681823374084L54.60006593532682,128.75544922145616z" style="fill:rgb(115,34,214)"/><path d="M75.73112716445374,116.55391799051854L-47.663220515802436,-114.98783979656389L71.30171597481967,120.71681042832907z" style="fill:rgb(203,77,216)"/><path d="M-47.663220515802436,-114.98783979656389L66.16004609399614,124.22929941414914L71.30171597481967,120.71681042832907z" style="fill:rgb(183,62,221)"/><path d="M-61.29677168631697,-107.33059498568L54.60006593532682,128.75544922145616L60.51558226986909,126.94586459951687z" style="fill:rgb(139,40,220)"/><path d="M-54.23021985353314,-110.78941632392568L60.51558226986909,126.94586459951687L66.16004609399614,124.22929941414914z" style="fill:rgb(162,50,222)"/><path d="M-100.81595948203382,-110.48809928812878L29.192625985076244,123.19703565844588L-97.95232681682376,-107.16424092555303z" style="fill:rgb(21,57,142)"/><path d="M83.4124074268394,97.07374657468736L-30.89105155115865,-144.7578990636408L-30.34646714984098,-140.2885514556763z" style="fill:rgb(246,167,149)"/><path d="M-97.95232681682376,-107.16424092555303L33.00248638645932,126.14173183780831L-93.84402479105435,-104.676851739027z" style="fill:rgb(34,46,160)"/><path d="M-31.215110115046734,-135.3547635068309L83.4124074268394,97.07374657468736L-30.34646714984098,-140.2885514556763z" style="fill:rgb(246,149,167)"/><path d="M-93.84402479105435,-104.676851739027L37.638990531315685,128.24442700039836L-88.6355030188806,-103.13805023711856z" style="fill:rgb(51,38,177)"/><path d="M-33.48348949800912,-130.14719874171314L83.17924660506384,101.97306935353261L-31.215110115046734,-135.3547635068309z" style="fill:rgb(242,130,183)"/><path d="M37.638990531315685,128.24442700039836L-82.52167395336316,-102.62340709230797L-88.6355030188806,-103.13805023711856z" style="fill:rgb(71,33,192)"/><path d="M-37.07844168507795,-124.87348632295145L81.78429043736253,106.98628425649892L-33.48348949800912,-130.14719874171314z" style="fill:rgb(233,112,197)"/><path d="M42.925963698298006,129.41153406751684L-75.74144362387993,-103.16644489356497L-82.52167395336316,-102.62340709230797z" style="fill:rgb(92,32,204)"/><path d="M-41.86756140455872,-119.74926535533089L79.27102990440076,111.91333674161854L-37.07844168507795,-124.87348632295145z" style="fill:rgb(220,94,208)"/><path d="M48.65621995879445,129.58681823374084L-68.56807723708245,-104.75508078077488L-75.74144362387993,-103.16644489356497z" style="fill:rgb(115,34,214)"/><path d="M-47.663220515802436,-114.98783979656389L75.73112716445374,116.55391799051854L-41.86756140455872,-119.74926535533089z" style="fill:rgb(203,77,216)"/><path d="M54.60006593532682,128.75544922145616L-61.29677168631697,-107.33059498568L-68.56807723708245,-104.75508078077488z" style="fill:rgb(139,40,220)"/><path d="M66.16004609399614,124.22929941414914L-47.663220515802436,-114.98783979656389L-54.23021985353314,-110.78941632392568z" style="fill:rgb(183,62,221)"/><path d="M60.51558226986909,126.94586459951687L-54.23021985353314,-110.78941632392568L-61.29677168631697,-107.33059498568z" style="fill:rgb(162,50,222)"/><path d="M-95.13007608787103,-134.07373955059902L-93.84402479105435,-104.676851739027L-90.41233797947348,-138.92056921212117zM-90.41233797947348,-138.92056921212117L-88.6355030188806,-103.13805023711856L-84.83136557216798,-143.39505310847832zM-98.80776840175542,-129.0256409760416L-97.95232681682376,-107.16424092555303L-95.13007608787103,-134.07373955059902zM-84.83136557216798,-143.39505310847832L-82.52167395336316,-102.62340709230797L-78.58968346579513,-147.34071003978153zM-101.30034042053568,-123.95755841188927L-100.81595948203382,-110.48809928812878L-98.80776840175542,-129.0256409760416zM-78.58968346579513,-147.34071003978153L-75.74144362387993,-103.16644489356497L-71.9095119986287,-150.61947809706172zM-102.34419356195485,-114.50665779852348L-101.30034042053568,-123.95755841188927L-102.50046798336072,-119.0559676638484zM-71.9095119986287,-150.61947809706172L-68.56807723708245,-104.75508078077488L-65.02676217667876,-153.11507032586215zM-65.02676217667876,-153.11507032586215L-61.29677168631697,-107.33059498568L-58.184920295577555,-154.73608640869034zM-101.30034042053568,-123.95755841188927L-102.34419356195485,-114.50665779852348L-100.81595948203382,-110.48809928812878zM-58.184920295577555,-154.73608640869034L-54.23021985353314,-110.78941632392568L-51.62870180786119,-155.4188354767647zM-51.62870180786119,-155.4188354767647L-47.663220515802436,-114.98783979656389L-45.5973089957138,-155.1299086136582zM-98.80776840175542,-129.0256409760416L-100.81595948203382,-110.48809928812878L-97.95232681682376,-107.16424092555303zM-45.5973089957138,-155.1299086136582L-41.86756140455872,-119.74926535533089L-40.31716212961421,-153.86845816626234zM-95.13007608787103,-134.07373955059902L-97.95232681682376,-107.16424092555303L-93.84402479105435,-104.676851739027zM-40.31716212961421,-153.86845816626234L-37.07844168507795,-124.87348632295145L-35.99413087374816,-151.66782760233522zM-90.41233797947348,-138.92056921212117L-93.84402479105435,-104.676851739027L-88.6355030188806,-103.13805023711856zM-35.99413087374816,-151.66782760233522L-33.48348949800912,-130.14719874171314L-32.80536838166655,-148.59651998318387zM-84.83136557216798,-143.39505310847832L-88.6355030188806,-103.13805023711856L-82.52167395336316,-102.62340709230797zM-32.80536838166655,-148.59651998318387L-31.215110115046734,-135.3547635068309L-30.89105155115865,-144.7578990636408zM-78.58968346579513,-147.34071003978153L-82.52167395336316,-102.62340709230797L-75.74144362387993,-103.16644489356497zM-71.9095119986287,-150.61947809706172L-75.74144362387993,-103.16644489356497L-68.56807723708245,-104.75508078077488zM-30.89105155115865,-144.7578990636408L-31.215110115046734,-135.3547635068309L-30.34646714984098,-140.2885514556763zM-65.02676217667876,-153.11507032586215L-68.56807723708245,-104.75508078077488L-61.29677168631697,-107.33059498568zM-32.80536838166655,-148.59651998318387L-33.48348949800912,-130.14719874171314L-31.215110115046734,-135.3547635068309zM-58.184920295577555,-154.73608640869034L-61.29677168631697,-107.33059498568L-54.23021985353314,-110.78941632392568zM-35.99413087374816,-151.66782760233522L-37.07844168507795,-124.87348632295145L-33.48348949800912,-130.14719874171314zM-51.62870180786119,-155.4188354767647L-54.23021985353314,-110.78941632392568L-47.663220515802436,-114.98783979656389zM-40.31716212961421,-153.86845816626234L-41.86756140455872,-119.74926535533089L-37.07844168507795,-124.87348632295145zM-45.5973089957138,-155.1299086136582L-47.663220515802436,-114.98783979656389L-41.86756140455872,-119.74926535533089z" style="fill:rgb(83,212,212)"/></svg>
