<?xml version="1.0" encoding="UTF-8"?>
<!-- Generated by jsxcad -->
<!DOCTYPE svg PUBLIC "-//W3C//DTD SVG 1.1 Tiny//EN" "http://www.w3.org/Graphics/SVG/1.1/DTD/svg11-tiny.dtd">
<svg viewBox="-250 -250 500 500" width="500" height="500" xmlns="http://www.w3.org/2000/svg"><path d="M-1.3048928667965947,-8.81477112751177L-83.27651185226946,-125.09752165098642L-19.724632219572285,-5.385545678200964z" style="fill:rgb(115,34,214)"/><path d="M16.657467261201607,-9.412575932450325L-63.15476947418097,-129.70901891093067L-1.3048928667965947,-8.81477112751177z" style="fill:rgb(92,32,204)"/><path d="M33.57385439824706,-7.088742138909751L-43.68435305079722,-131.50732189683626L16.657467261201607,-9.412575932450325z" style="fill:rgb(71,33,192)"/><path d="M48.848624284091706,-1.8276167651790154L-25.494344721552466,-130.3571363637177L33.57385439824706,-7.088742138909751z" style="fill:rgb(51,38,177)"/><path d="M-1.3048928667965947,-8.81477112751177L-63.15476947418097,-129.70901891093067L-83.27651185226946,-125.09752165098642z" style="fill:rgb(115,34,214)"/><path d="M61.89148359390675,6.298487286530397L-9.224029475769905,-126.19108012148581L48.848624284091706,-1.8276167651790154z" style="fill:rgb(34,46,160)"/><path d="M16.657467261201607,-9.412575932450325L-43.68435305079722,-131.50732189683626L-63.15476947418097,-129.70901891093067z" style="fill:rgb(92,32,204)"/><path d="M72.13676355948488,17.115806105569995L4.490055796326203,-119.02478394048245L61.89148359390675,6.298487286530397z" style="fill:rgb(21,57,142)"/><path d="M33.57385439824706,-7.088742138909751L-25.494344721552466,-130.3571363637177L-43.68435305079722,-131.50732189683626z" style="fill:rgb(71,33,192)"/><path d="M48.848624284091706,-1.8276167651790154L-9.224029475769905,-126.19108012148581L-25.494344721552466,-130.3571363637177z" style="fill:rgb(51,38,177)"/><path d="M79.07123000292262,30.33548478698544L15.035258680574621,-108.97430809032004L72.13676355948488,17.115806105569995z" style="fill:rgb(12,71,124)"/><path d="M91.43983798067886,57.704375990297976L24.478901028279267,-81.29163242012554L94.73056847331085,72.89869513744836z" style="fill:rgb(246,167,149)"/><path d="M-78.60981514619802,172.69178560517187L-189.0784551718366,22.83216391078957L-90.01223093830592,162.00470232609683zM61.89148359390675,6.298487286530397L4.490055796326203,-119.02478394048245L-9.224029475769905,-126.19108012148581z" style="fill:rgb(34,46,160)"/><path d="M-199.5613284050319,-4.15059312117444L-103.43733703267421,-117.86452423392504L-123.04412210157629,-108.25059489883682zM-199.5613284050319,-4.15059312117444L-123.04412210157629,-108.25059489883682L-141.52304346712472,-96.54142139467018zM-199.5613284050319,-4.15059312117444L-83.27651185226946,-125.09752165098642L-103.43733703267421,-117.86452423392504z" style="fill:rgb(83,212,212)"/><path d="M94.73056847331085,72.89869513744836L22.587234077119724,-64.53563548717474L94.08372221396709,89.47560150679008z" style="fill:rgb(246,149,167)"/><path d="M-199.5613284050319,-4.15059312117444L-141.52304346712472,-96.54142139467018L-158.31952840567882,-83.06727012958319zM-199.5613284050319,-4.15059312117444L-63.15476947418097,-129.70901891093067L-83.27651185226946,-125.09752165098642z" style="fill:rgb(83,212,212)"/><path d="M-63.97748229335526,180.6067958874346L-177.48767801401468,32.92622073919161L-78.60981514619802,172.69178560517187z" style="fill:rgb(51,38,177)"/><path d="M-199.5613284050319,-4.15059312117444L-158.31952840567882,-83.06727012958319L-172.8999470191421,-68.2046775243205zM-199.5613284050319,-4.15059312117444L-43.68435305079722,-131.50732189683626L-63.15476947418097,-129.70901891093067z" style="fill:rgb(83,212,212)"/><path d="M72.13676355948488,17.115806105569995L15.035258680574621,-108.97430809032004L4.490055796326203,-119.02478394048245z" style="fill:rgb(21,57,142)"/><path d="M-199.5613284050319,-4.15059312117444L-172.8999470191421,-68.2046775243205L-184.75679292976304,-52.37929937389976z" style="fill:rgb(83,212,212)"/><path d="M94.08372221396709,89.47560150679008L16.040506377132452,-46.65186917600804L89.36211308105369,106.7808786651947z" style="fill:rgb(242,130,183)"/><path d="M-199.5613284050319,-4.15059312117444L-25.494344721552466,-130.3571363637177L-43.68435305079722,-131.50732189683626z" style="fill:rgb(83,212,212)"/><path d="M-46.630916838681564,185.29257669878575L-161.9796992469046,39.99359668829206L-63.97748229335526,180.6067958874346z" style="fill:rgb(71,33,192)"/><path d="M-199.5613284050319,-4.15059312117444L-184.75679292976304,-52.37929937389976L-193.4188594259234,-36.06826066084753zM-199.5613284050319,-4.15059312117444L-9.224029475769905,-126.19108012148581L-25.494344721552466,-130.3571363637177z" style="fill:rgb(83,212,212)"/><path d="M79.07123000292262,30.33548478698544L21.853159549833816,-96.27406258435644L15.035258680574621,-108.97430809032004z" style="fill:rgb(12,71,124)"/><path d="M89.36211308105369,106.7808786651947L4.931328219723459,-28.40369767176544L80.62178856271476,124.07264120313116z" style="fill:rgb(233,112,197)"/><path d="M-27.263238386688883,186.426265311004L-143.07018334807282,43.57814265956463L-46.630916838681564,185.29257669878575z" style="fill:rgb(92,32,204)"/><path d="M91.43983798067886,57.704375990297976L21.853159549833816,-96.27406258435644L24.478901028279267,-81.29163242012554z" style="fill:rgb(246,167,149)"/><path d="M-199.5613284050319,-4.15059312117444L-193.4188594259234,-36.06826066084753L-198.4677795077913,-19.800160376400346zM-199.5613284050319,-4.15059312117444L4.490055796326203,-119.02478394048245L-9.224029475769905,-126.19108012148581z" style="fill:rgb(83,212,212)"/><path d="M80.62178856271476,124.07264120313116L-10.389038789655554,-10.634547094492186L68.13392553318482,140.55953283116028z" style="fill:rgb(220,94,208)"/><path d="M-6.717804783936119,183.857477774454L-121.50184783997622,43.3741479495099L-27.263238386688883,186.426265311004z" style="fill:rgb(115,34,214)"/><path d="M68.13392553318482,140.55953283116028L-29.305326513816055,5.786316068615527L52.38909482889864,155.4510745374103z" style="fill:rgb(203,77,216)"/><path d="M14.058752192250605,177.63486366633413L-98.21933488509046,39.26950270869265L-6.717804783936119,183.857477774454z" style="fill:rgb(139,40,220)"/><path d="M-78.60981514619802,172.69178560517187L-177.48767801401468,32.92622073919161L-189.0784551718366,22.83216391078957z" style="fill:rgb(34,46,160)"/><path d="M-199.5613284050319,-4.15059312117444L15.035258680574621,-108.97430809032004L4.490055796326203,-119.02478394048245z" style="fill:rgb(83,212,212)"/><path d="M94.73056847331085,72.89869513744836L24.478901028279267,-81.29163242012554L22.587234077119724,-64.53563548717474z" style="fill:rgb(246,149,167)"/><path d="M52.38909482889864,155.4510745374103L-50.96197499847198,20.02961752517284L34.079536318280645,168.0150991314625z" style="fill:rgb(183,62,221)"/><path d="M34.079536318280645,168.0150991314625L-74.31684192319419,31.374595727866335L14.058752192250605,177.63486366633413z" style="fill:rgb(162,50,222)"/><path d="M-199.5613284050319,-4.15059312117444L21.853159549833816,-96.27406258435644L15.035258680574621,-108.97430809032004z" style="fill:rgb(83,212,212)"/><path d="M-63.97748229335526,180.6067958874346L-161.9796992469046,39.99359668829206L-177.48767801401468,32.92622073919161z" style="fill:rgb(51,38,177)"/><path d="M94.08372221396709,89.47560150679008L22.587234077119724,-64.53563548717474L16.040506377132452,-46.65186917600804z" style="fill:rgb(242,130,183)"/><path d="M-199.5613284050319,-4.15059312117444L-196.46336417273113,10.269140330293343L-189.0784551718366,22.83216391078957zM-199.5613284050319,-4.15059312117444L24.478901028279267,-81.29163242012554L21.853159549833816,-96.27406258435644z" style="fill:rgb(83,212,212)"/><path d="M-46.630916838681564,185.29257669878575L-143.07018334807282,43.57814265956463L-161.9796992469046,39.99359668829206z" style="fill:rgb(71,33,192)"/><path d="M89.36211308105369,106.7808786651947L16.040506377132452,-46.65186917600804L4.931328219723459,-28.40369767176544z" style="fill:rgb(233,112,197)"/><path d="M-199.5613284050319,-4.15059312117444L-189.0784551718366,22.83216391078957L-177.48767801401468,32.92622073919161zM-199.5613284050319,-4.15059312117444L22.587234077119724,-64.53563548717474L24.478901028279267,-81.29163242012554z" style="fill:rgb(83,212,212)"/><path d="M-27.263238386688883,186.426265311004L-121.50184783997622,43.3741479495099L-143.07018334807282,43.57814265956463z" style="fill:rgb(92,32,204)"/><path d="M145.8614928118766,-66.03200087659272L177.47243393843274,-56.65477127406019L121.72486071510242,-227.3854887136453z" style="fill:rgb(247,158,158)"/><path d="M80.62178856271476,124.07264120313116L4.931328219723459,-28.40369767176544L-10.389038789655554,-10.634547094492186z" style="fill:rgb(220,94,208)"/><path d="M-199.5613284050319,-4.15059312117444L-177.48767801401468,32.92622073919161L-161.9796992469046,39.99359668829206z" style="fill:rgb(83,212,212)"/><path d="M145.8614928118766,-66.03200087659272L207.1368905514841,107.8977030179684L177.47243393843274,-56.65477127406019z" style="fill:rgb(247,158,158)"/><path d="M-199.5613284050319,-4.15059312117444L16.040506377132452,-46.65186917600804L22.587234077119724,-64.53563548717474z" style="fill:rgb(83,212,212)"/><path d="M-6.717804783936119,183.857477774454L-98.21933488509046,39.26950270869265L-121.50184783997622,43.3741479495099z" style="fill:rgb(115,34,214)"/><path d="M68.13392553318482,140.55953283116028L-10.389038789655554,-10.634547094492186L-29.305326513816055,5.786316068615527z" style="fill:rgb(203,77,216)"/><path d="M-199.5613284050319,-4.15059312117444L-161.9796992469046,39.99359668829206L-143.07018334807282,43.57814265956463z" style="fill:rgb(83,212,212)"/><path d="M14.058752192250605,177.63486366633413L-74.31684192319419,31.374595727866335L-98.21933488509046,39.26950270869265z" style="fill:rgb(139,40,220)"/><path d="M52.38909482889864,155.4510745374103L-29.305326513816055,5.786316068615527L-50.96197499847198,20.02961752517284z" style="fill:rgb(183,62,221)"/><path d="M-199.5613284050319,-4.15059312117444L4.931328219723459,-28.40369767176544L16.040506377132452,-46.65186917600804z" style="fill:rgb(83,212,212)"/><path d="M34.079536318280645,168.0150991314625L-50.96197499847198,20.02961752517284L-74.31684192319419,31.374595727866335z" style="fill:rgb(162,50,222)"/><path d="M-199.5613284050319,-4.15059312117444L-143.07018334807282,43.57814265956463L-121.50184783997622,43.3741479495099zM-199.5613284050319,-4.15059312117444L-10.389038789655554,-10.634547094492186L4.931328219723459,-28.40369767176544zM-199.5613284050319,-4.15059312117444L-121.50184783997622,43.3741479495099L-98.21933488509046,39.26950270869265zM145.8614928118766,-66.03200087659272L121.72486071510242,-227.3854887136453L-101.50223746540142,-159.4291192046517zM-199.5613284050319,-4.15059312117444L-29.305326513816055,5.786316068615527L-10.389038789655554,-10.634547094492186zM-199.5613284050319,-4.15059312117444L-98.21933488509046,39.26950270869265L-74.31684192319419,31.374595727866335zM-199.5613284050319,-4.15059312117444L-50.96197499847198,20.02961752517284L-29.305326513816055,5.786316068615527zM-199.5613284050319,-4.15059312117444L-74.31684192319419,31.374595727866335L-50.96197499847198,20.02961752517284z" style="fill:rgb(83,212,212)"/><path d="M145.8614928118766,-66.03200087659272L-22.84334123250272,158.37639649032184L207.1368905514841,107.8977030179684z" style="fill:rgb(127,37,217)"/><path d="M145.8614928118766,-66.03200087659272L-101.50223746540142,-159.4291192046517L-120.35092272323168,4.297829975895162z" style="fill:rgb(83,212,212)"/><path d="M145.8614928118766,-66.03200087659272L-120.35092272323168,4.297829975895162L-22.84334123250272,158.37639649032184z" style="fill:rgb(127,37,217)"/></svg>
